<svg xmlns="http://www.w3.org/2000/svg" xmlns:xlink="http://www.w3.org/1999/xlink" id="_&#xCE;&#xD3;&#xC8;_1" data-name="&#x2014;&#xCE;&#xD3;&#xC8;_1" viewBox="0 0 369.05 317.02"><defs><style>.cls-1{fill:url(#linear-gradient);}.cls-14,.cls-15,.cls-16,.cls-2,.cls-21,.cls-22,.cls-23,.cls-28,.cls-29,.cls-3,.cls-30,.cls-35,.cls-36,.cls-37,.cls-4,.cls-44,.cls-5,.cls-7,.cls-9{fill:none;}.cls-14,.cls-15,.cls-16,.cls-2,.cls-21,.cls-22,.cls-23,.cls-28,.cls-29,.cls-3,.cls-30,.cls-35,.cls-36,.cls-37,.cls-4,.cls-44,.cls-5{stroke-linecap:round;}.cls-2,.cls-3,.cls-4,.cls-44,.cls-5,.cls-7,.cls-9{stroke-miterlimit:10;}.cls-2{stroke-dasharray:7;stroke:url(#linear-gradient-2);}.cls-3{stroke:url(#linear-gradient-3);}.cls-4{stroke-dasharray:6.96 6.96;stroke:url(#linear-gradient-4);}.cls-5{stroke:url(#linear-gradient-5);}.cls-6{fill:#396caa;}.cls-7{stroke:#021c35;}.cls-8{fill:#7ba9e3;}.cls-9{stroke:#396caa;}.cls-10{fill:#5793ce;}.cls-11{fill:url(#linear-gradient-6);}.cls-12{fill:url(#linear-gradient-7);}.cls-13{fill:url(#linear-gradient-8);}.cls-14,.cls-15,.cls-16,.cls-21,.cls-22,.cls-23,.cls-28,.cls-29,.cls-30,.cls-35,.cls-36,.cls-37{stroke-linejoin:round;stroke-width:7px;}.cls-14{stroke:url(#linear-gradient-9);}.cls-15{stroke:url(#linear-gradient-10);}.cls-16{stroke:url(#linear-gradient-11);}.cls-17{fill:url(#linear-gradient-12);}.cls-18{fill:url(#linear-gradient-13);}.cls-19{fill:url(#linear-gradient-14);}.cls-20{fill:url(#linear-gradient-15);}.cls-21{stroke:url(#linear-gradient-16);}.cls-22{stroke:url(#linear-gradient-17);}.cls-23{stroke:url(#linear-gradient-18);}.cls-24{fill:url(#linear-gradient-19);}.cls-25{fill:url(#linear-gradient-20);}.cls-26{fill:url(#linear-gradient-21);}.cls-27{fill:url(#linear-gradient-22);}.cls-28{stroke:url(#linear-gradient-23);}.cls-29{stroke:url(#linear-gradient-24);}.cls-30{stroke:url(#linear-gradient-25);}.cls-31{fill:url(#linear-gradient-26);}.cls-32{fill:url(#linear-gradient-27);}.cls-33{fill:url(#linear-gradient-28);}.cls-34{fill:url(#linear-gradient-29);}.cls-35{stroke:url(#linear-gradient-30);}.cls-36{stroke:url(#linear-gradient-31);}.cls-37{stroke:url(#linear-gradient-32);}.cls-38{fill:url(#linear-gradient-33);}.cls-39{fill:#d4ecff;}.cls-40{fill:url(#linear-gradient-34);}.cls-41{fill:url(#linear-gradient-35);}.cls-42{fill:#fff;}.cls-43{fill:url(#linear-gradient-36);}.cls-44{stroke:url(#linear-gradient-37);}.cls-45{fill:url(#linear-gradient-38);}.cls-46{fill:url(#linear-gradient-39);}.cls-47{fill:url(#linear-gradient-40);}.cls-48{fill:url(#linear-gradient-41);}.cls-49{fill:url(#linear-gradient-42);}.cls-50{fill:url(#linear-gradient-43);}.cls-51{fill:url(#linear-gradient-44);}.cls-52{fill:url(#linear-gradient-45);}.cls-53{fill:url(#linear-gradient-46);}.cls-54{fill:url(#linear-gradient-47);}.cls-55{fill:url(#linear-gradient-48);}</style><linearGradient id="linear-gradient" x1="23.47" y1="80.1" x2="328.85" y2="80.1" gradientTransform="translate(30.37 49.42) rotate(8.45)" gradientUnits="userSpaceOnUse"><stop offset="0" stop-color="#eff5ff"></stop><stop offset="1" stop-color="#eff5ff"></stop></linearGradient><linearGradient id="linear-gradient-2" x1="111.47" y1="95.72" x2="207.21" y2="95.72" gradientUnits="userSpaceOnUse"><stop offset="0" stop-color="#0a91f2"></stop><stop offset="0.75" stop-color="#004d8a"></stop></linearGradient><linearGradient id="linear-gradient-3" x1="257.07" y1="80.64" x2="258.07" y2="80.64" xlink:href="#linear-gradient-2"></linearGradient><linearGradient id="linear-gradient-4" x1="257.07" y1="136.31" x2="258.07" y2="136.31" xlink:href="#linear-gradient-2"></linearGradient><linearGradient id="linear-gradient-5" x1="257.07" y1="188.5" x2="258.07" y2="188.5" xlink:href="#linear-gradient-2"></linearGradient><linearGradient id="linear-gradient-6" x1="65.17" y1="150.48" x2="71.11" y2="150.48" gradientUnits="userSpaceOnUse"><stop offset="0.06" stop-color="#fff"></stop><stop offset="1" stop-color="#dfe9ed"></stop></linearGradient><linearGradient id="linear-gradient-7" x1="73.69" y1="150.48" x2="79.64" y2="150.48" xlink:href="#linear-gradient-6"></linearGradient><linearGradient id="linear-gradient-8" x1="82.22" y1="150.48" x2="88.17" y2="150.48" xlink:href="#linear-gradient-6"></linearGradient><linearGradient id="linear-gradient-9" x1="140.36" y1="150.48" x2="147.36" y2="150.48" xlink:href="#linear-gradient-6"></linearGradient><linearGradient id="linear-gradient-10" x1="130.25" y1="150.48" x2="137.25" y2="150.48" xlink:href="#linear-gradient-6"></linearGradient><linearGradient id="linear-gradient-11" x1="120.25" y1="150.48" x2="127.25" y2="150.48" xlink:href="#linear-gradient-6"></linearGradient><linearGradient id="linear-gradient-12" x1="90.55" y1="150.34" x2="96.49" y2="150.34" xlink:href="#linear-gradient-6"></linearGradient><linearGradient id="linear-gradient-13" x1="65.17" y1="193.82" x2="71.11" y2="193.82" xlink:href="#linear-gradient-6"></linearGradient><linearGradient id="linear-gradient-14" x1="73.69" y1="193.82" x2="79.64" y2="193.82" xlink:href="#linear-gradient-6"></linearGradient><linearGradient id="linear-gradient-15" x1="82.22" y1="193.82" x2="88.17" y2="193.82" xlink:href="#linear-gradient-6"></linearGradient><linearGradient id="linear-gradient-16" x1="140.36" y1="193.82" x2="147.36" y2="193.82" xlink:href="#linear-gradient-6"></linearGradient><linearGradient id="linear-gradient-17" x1="130.25" y1="193.82" x2="137.25" y2="193.82" xlink:href="#linear-gradient-6"></linearGradient><linearGradient id="linear-gradient-18" x1="120.25" y1="193.82" x2="127.25" y2="193.82" xlink:href="#linear-gradient-6"></linearGradient><linearGradient id="linear-gradient-19" x1="90.55" y1="193.68" x2="96.49" y2="193.68" xlink:href="#linear-gradient-6"></linearGradient><linearGradient id="linear-gradient-20" x1="65.17" y1="237.08" x2="71.11" y2="237.08" xlink:href="#linear-gradient-6"></linearGradient><linearGradient id="linear-gradient-21" x1="73.69" y1="237.08" x2="79.64" y2="237.08" xlink:href="#linear-gradient-6"></linearGradient><linearGradient id="linear-gradient-22" x1="82.22" y1="237.08" x2="88.17" y2="237.08" xlink:href="#linear-gradient-6"></linearGradient><linearGradient id="linear-gradient-23" x1="140.36" y1="237.08" x2="147.36" y2="237.08" xlink:href="#linear-gradient-6"></linearGradient><linearGradient id="linear-gradient-24" x1="130.25" y1="237.08" x2="137.25" y2="237.08" xlink:href="#linear-gradient-6"></linearGradient><linearGradient id="linear-gradient-25" x1="120.25" y1="237.08" x2="127.25" y2="237.08" xlink:href="#linear-gradient-6"></linearGradient><linearGradient id="linear-gradient-26" x1="90.55" y1="236.94" x2="96.49" y2="236.94" xlink:href="#linear-gradient-6"></linearGradient><linearGradient id="linear-gradient-27" x1="65.17" y1="280.35" x2="71.11" y2="280.35" xlink:href="#linear-gradient-6"></linearGradient><linearGradient id="linear-gradient-28" x1="73.69" y1="280.35" x2="79.64" y2="280.35" xlink:href="#linear-gradient-6"></linearGradient><linearGradient id="linear-gradient-29" x1="82.22" y1="280.35" x2="88.17" y2="280.35" xlink:href="#linear-gradient-6"></linearGradient><linearGradient id="linear-gradient-30" x1="140.36" y1="280.35" x2="147.36" y2="280.35" xlink:href="#linear-gradient-6"></linearGradient><linearGradient id="linear-gradient-31" x1="130.25" y1="280.35" x2="137.25" y2="280.35" xlink:href="#linear-gradient-6"></linearGradient><linearGradient id="linear-gradient-32" x1="120.25" y1="280.35" x2="127.25" y2="280.35" xlink:href="#linear-gradient-6"></linearGradient><linearGradient id="linear-gradient-33" x1="90.55" y1="280.21" x2="96.49" y2="280.21" xlink:href="#linear-gradient-6"></linearGradient><linearGradient id="linear-gradient-34" x1="225.3" y1="297.86" x2="266.94" y2="297.86" gradientUnits="userSpaceOnUse"><stop offset="0" stop-color="#1b6d9b"></stop><stop offset="1" stop-color="#004d8a"></stop></linearGradient><linearGradient id="linear-gradient-35" x1="192.55" y1="55.44" x2="290.24" y2="55.44" gradientUnits="userSpaceOnUse"><stop offset="0" stop-color="#049fe1"></stop><stop offset="1" stop-color="#004d8a"></stop></linearGradient><linearGradient id="linear-gradient-36" x1="149.56" y1="225.72" x2="215.76" y2="225.72" gradientUnits="userSpaceOnUse"><stop offset="0" stop-color="#faffff"></stop><stop offset="1" stop-color="#caebef"></stop></linearGradient><linearGradient id="linear-gradient-37" x1="163.65" y1="225.72" x2="190.1" y2="225.72" gradientTransform="translate(37.15 -24.7) rotate(8.92)" xlink:href="#linear-gradient-2"></linearGradient><linearGradient id="linear-gradient-38" x1="174.38" y1="226" x2="182.54" y2="226" xlink:href="#linear-gradient-2"></linearGradient><linearGradient id="linear-gradient-39" x1="287.68" y1="257.9" x2="353.88" y2="257.9" xlink:href="#linear-gradient-36"></linearGradient><linearGradient id="linear-gradient-40" x1="300.76" y1="261.25" x2="334.56" y2="261.25" xlink:href="#linear-gradient-2"></linearGradient><linearGradient id="linear-gradient-41" x1="320.14" y1="250.16" x2="327.03" y2="250.16" xlink:href="#linear-gradient-2"></linearGradient><linearGradient id="linear-gradient-42" x1="282.84" y1="177.96" x2="334.68" y2="177.96" xlink:href="#linear-gradient-36"></linearGradient><linearGradient id="linear-gradient-43" x1="301.29" y1="177.96" x2="306.75" y2="177.96" xlink:href="#linear-gradient-2"></linearGradient><linearGradient id="linear-gradient-44" x1="292.01" y1="178.16" x2="299.85" y2="178.16" xlink:href="#linear-gradient-2"></linearGradient><linearGradient id="linear-gradient-45" x1="-658.98" y1="178.16" x2="-651.13" y2="178.16" gradientTransform="matrix(-1, 0, 0, 1, -343.36, 0)" xlink:href="#linear-gradient-2"></linearGradient><linearGradient id="linear-gradient-46" x1="186.37" y1="136.7" x2="233.3" y2="136.7" gradientUnits="userSpaceOnUse"><stop offset="0" stop-color="#0a91f2"></stop><stop offset="1" stop-color="#004d8a"></stop></linearGradient><linearGradient id="linear-gradient-47" x1="188.36" y1="139.36" x2="231.19" y2="139.36" xlink:href="#linear-gradient-6"></linearGradient><linearGradient id="linear-gradient-48" x1="186.37" y1="140.53" x2="233.3" y2="140.53" xlink:href="#linear-gradient-46"></linearGradient></defs><path id="Background" class="cls-1" d="M232.35,34.53c10.79,32.9.91,26.95,50.49,26.88,53.39-.07,80.56,47.47,62.3,91.83-16.92,41.12-66.39,45.16-54,89.66,20.57,74-13.1,76.77-101.52,57.42C112.07,283.34,60.94,287.55,41,252.6s20.11-64.28,7.32-135.4C37.22,55.72,93.52,57.49,133.75,24.1S223.66,8,232.35,34.53Z"></path><polyline id="Line" class="cls-2" points="206.71 60.29 111.97 60.29 111.97 131.15"></polyline><g id="Line-2" data-name="Line"><line class="cls-3" x1="257.57" y1="78.89" x2="257.57" y2="82.39"></line><line class="cls-4" x1="257.57" y1="89.35" x2="257.57" y2="183.27"></line><line class="cls-5" x1="257.57" y1="186.75" x2="257.57" y2="190.25"></line></g><path id="Leaf_Part" data-name="Leaf Part" class="cls-6" d="M270.24,207s-6.66-35.81,18.15-49.51,34.07-9.95,38.18-9.48-5.1,5.14-11.13,15.47-3.19,20.37-20.88,28.76-20.86,24-20.86,24Z"></path><path id="Leaf_Part-2" data-name="Leaf Part" class="cls-7" d="M281.76,206s-3.1-40.2,32.14-51.54"></path><path id="Leaf_Part-3" data-name="Leaf Part" class="cls-8" d="M308,177.48s3.49-19.23,15.64-18.54,15.63,4.94,17.14,5.87-2.93,1.07-7.17,4-5,7.36-13.42,7.38a16.11,16.11,0,0,0-12.54,5.53Z"></path><path id="Leaf_Part-4" data-name="Leaf Part" class="cls-9" d="M307.65,181.71s7.25-19.09,25.84-16.68"></path><path id="Leaf_Part-5" data-name="Leaf Part" class="cls-6" d="M313.41,226.42s1.84-30,20.51-31.18,24.78,4.7,27.27,5.85-4.28,2.17-10.24,7.4-6.26,12.15-19.15,13.73S313.65,233,313.65,233Z"></path><path id="Leaf_Part-6" data-name="Leaf Part" class="cls-7" d="M313.65,233s7.6-30.49,36.44-30.21"></path><path id="Leaf_Part-7" data-name="Leaf Part" class="cls-8" d="M309.69,232.29s9.26-17.21,20.59-12.8,13.34,9.52,14.5,10.88-3.12.11-8.06,1.58-7,5.46-15,2.88a16.1,16.1,0,0,0-13.63,1.38Z"></path><path id="Leaf_Part-8" data-name="Leaf Part" class="cls-9" d="M308.05,236.21s12.79-15.91,29.73-7.89"></path><path id="Leaf_Part-9" data-name="Leaf Part" class="cls-8" d="M59.22,222.72S69,184.77,46.27,175.86s-32.6-4.11-36.15-3.67,4.44,4.4,9.73,13.28S22.76,203,38.1,210.16s18.2,20.56,18.2,20.56Z"></path><path id="Leaf_Part-10" data-name="Leaf Part" class="cls-9" d="M56.3,230.72s2.79-40.84-33.08-52"></path><path id="Leaf_Part-11" data-name="Leaf Part" class="cls-6" d="M64.86,264.73S63,234.26,44,233.08,18.88,237.84,16.36,239s4.34,2.2,10.39,7.51,6.36,12.34,19.45,13.94,18.42,10.89,18.42,10.89Z"></path><path id="Leaf_Part-12" data-name="Leaf Part" class="cls-7" d="M64.62,271.36s-7.72-31-37-30.66"></path><path id="Leaf_Part-13" data-name="Leaf Part" class="cls-8" d="M68.65,270.69s-9.41-17.47-20.92-13S34.19,267.37,33,268.75s3.16.11,8.18,1.6,7.12,5.54,15.27,2.92a16.35,16.35,0,0,1,13.84,1.4Z"></path><path id="Leaf_Part-14" data-name="Leaf Part" class="cls-9" d="M70.31,274.67s-13-16.15-30.19-8"></path><rect id="Server_Part" data-name="Server Part" class="cls-6" x="54.3" y="124.6" width="107.8" height="182.11" rx="5.53"></rect><rect id="Server_Part-2" data-name="Server Part" class="cls-10" x="61.07" y="174.41" width="94.26" height="38.67" rx="1.81"></rect><rect id="Server_Part-3" data-name="Server Part" class="cls-10" x="61.07" y="131.15" width="94.26" height="38.67" rx="1.81"></rect><rect id="Server_Part-4" data-name="Server Part" class="cls-10" x="61.07" y="260.94" width="94.26" height="38.67" rx="1.81"></rect><rect id="Server_Part-5" data-name="Server Part" class="cls-10" x="61.07" y="217.68" width="94.26" height="38.67" rx="1.81"></rect><rect id="Server_Part-6" data-name="Server Part" class="cls-11" x="65.17" y="134.63" width="5.95" height="31.71" rx="1.58"></rect><rect id="Server_Part-7" data-name="Server Part" class="cls-12" x="73.69" y="134.63" width="5.95" height="31.71" rx="1.58"></rect><rect id="Server_Part-8" data-name="Server Part" class="cls-13" x="82.22" y="134.63" width="5.95" height="31.71" rx="1.58"></rect><line id="Server_Part-9" data-name="Server Part" class="cls-14" x1="143.86" y1="150.48" x2="143.86" y2="150.48"></line><line id="Server_Part-10" data-name="Server Part" class="cls-15" x1="133.75" y1="150.48" x2="133.75" y2="150.48"></line><line id="Server_Part-11" data-name="Server Part" class="cls-16" x1="123.75" y1="150.48" x2="123.75" y2="150.48"></line><rect id="Server_Part-12" data-name="Server Part" class="cls-17" x="90.55" y="134.49" width="5.95" height="31.71" rx="1.58"></rect><rect id="Server_Part-13" data-name="Server Part" class="cls-18" x="65.17" y="177.96" width="5.95" height="31.71" rx="1.58"></rect><rect id="Server_Part-14" data-name="Server Part" class="cls-19" x="73.69" y="177.96" width="5.95" height="31.71" rx="1.58"></rect><rect id="Server_Part-15" data-name="Server Part" class="cls-20" x="82.22" y="177.96" width="5.95" height="31.71" rx="1.58"></rect><line id="Server_Part-16" data-name="Server Part" class="cls-21" x1="143.86" y1="193.82" x2="143.86" y2="193.82"></line><line id="Server_Part-17" data-name="Server Part" class="cls-22" x1="133.75" y1="193.82" x2="133.75" y2="193.82"></line><line id="Server_Part-18" data-name="Server Part" class="cls-23" x1="123.75" y1="193.82" x2="123.75" y2="193.82"></line><rect id="Server_Part-19" data-name="Server Part" class="cls-24" x="90.55" y="177.82" width="5.95" height="31.71" rx="1.58"></rect><rect id="Server_Part-20" data-name="Server Part" class="cls-25" x="65.17" y="221.23" width="5.95" height="31.71" rx="1.58"></rect><rect id="Server_Part-21" data-name="Server Part" class="cls-26" x="73.69" y="221.23" width="5.95" height="31.71" rx="1.58"></rect><rect id="Server_Part-22" data-name="Server Part" class="cls-27" x="82.22" y="221.23" width="5.95" height="31.71" rx="1.58"></rect><line id="Server_Part-23" data-name="Server Part" class="cls-28" x1="143.86" y1="237.08" x2="143.86" y2="237.08"></line><line id="Server_Part-24" data-name="Server Part" class="cls-29" x1="133.75" y1="237.08" x2="133.75" y2="237.08"></line><line id="Server_Part-25" data-name="Server Part" class="cls-30" x1="123.75" y1="237.08" x2="123.75" y2="237.08"></line><rect id="Server_Part-26" data-name="Server Part" class="cls-31" x="90.55" y="221.09" width="5.95" height="31.71" rx="1.58"></rect><rect id="Server_Part-27" data-name="Server Part" class="cls-32" x="65.17" y="264.49" width="5.95" height="31.71" rx="1.58"></rect><rect id="Server_Part-28" data-name="Server Part" class="cls-33" x="73.69" y="264.49" width="5.95" height="31.71" rx="1.58"></rect><rect id="Server_Part-29" data-name="Server Part" class="cls-34" x="82.22" y="264.49" width="5.95" height="31.71" rx="1.58"></rect><line id="Server_Part-30" data-name="Server Part" class="cls-35" x1="143.86" y1="280.35" x2="143.86" y2="280.35"></line><line id="Server_Part-31" data-name="Server Part" class="cls-36" x1="133.75" y1="280.35" x2="133.75" y2="280.35"></line><line id="Server_Part-32" data-name="Server Part" class="cls-37" x1="123.75" y1="280.35" x2="123.75" y2="280.35"></line><rect id="Server_Part-33" data-name="Server Part" class="cls-38" x="90.55" y="264.35" width="5.95" height="31.71" rx="1.58"></rect><rect id="PC_Part" data-name="PC Part" class="cls-6" x="173.35" y="177.96" width="146.04" height="110.63" rx="5.48"></rect><g id="PC_Part-2" data-name="PC Part"><rect id="Mask" class="cls-39" x="178.13" y="183.02" width="136.48" height="85.39" rx="1.92"></rect></g><path id="PC_Part-3" data-name="PC Part" class="cls-10" d="M173.35,273.07h146a0,0,0,0,1,0,0v10a5.48,5.48,0,0,1-5.48,5.48H178.83a5.48,5.48,0,0,1-5.48-5.48v-10A0,0,0,0,1,173.35,273.07Z"></path><path id="PC_Part-4" data-name="PC Part" class="cls-40" d="M261.13,296.27v-7.68h-30v7.68a9.64,9.64,0,0,1-5.14,8.52h0a1.25,1.25,0,0,0,.58,2.35h39.14a1.24,1.24,0,0,0,.58-2.35h0A9.64,9.64,0,0,1,261.13,296.27Z"></path><path id="Cloud_Part" data-name="Cloud Part" class="cls-41" d="M277.69,53.73a11.84,11.84,0,0,0-5.59,1.42c-.51-6.88-5.88-12.29-12.44-12.29a12.22,12.22,0,0,0-2,.19c-2.24-7.41-8.73-12.77-16.39-12.77s-14.19,5.39-16.41,12.83a11.64,11.64,0,0,0-2.38-.25c-6.45,0-11.76,5.24-12.42,12a11.78,11.78,0,0,0-5-1.09c-6.93,0-12.55,6-12.55,13.44S198.17,80.6,205.1,80.6h72.59c6.93,0,12.55-6,12.55-13.43S284.62,53.73,277.69,53.73Z"></path><path id="Cloud_Part-2" data-name="Cloud Part" class="cls-42" d="M239.46,56.17,234.16,50a1.36,1.36,0,0,0-2.06,0l-5.3,6.14a1.36,1.36,0,0,0,1,2.24h1a.45.45,0,0,1,.45.45V71.11a1.36,1.36,0,0,0,1.36,1.36h4.88a1.36,1.36,0,0,0,1.36-1.36V58.86a.45.45,0,0,1,.45-.45h1.05A1.36,1.36,0,0,0,239.46,56.17Z"></path><path id="Cloud_Part-3" data-name="Cloud Part" class="cls-42" d="M243.33,65.14l5.3,6.14a1.36,1.36,0,0,0,2.06,0l5.3-6.14a1.36,1.36,0,0,0-1-2.24h-.86a.65.65,0,0,1-.64-.65V50.19a1.35,1.35,0,0,0-1.36-1.35h-4.88a1.35,1.35,0,0,0-1.36,1.35V62.45a.45.45,0,0,1-.45.45h-1A1.36,1.36,0,0,0,243.33,65.14Z"></path><path id="Board_3_Part" data-name="Board 3 Part" class="cls-10" d="M202,200.61h-3.44a4.76,4.76,0,0,1,4.75,4.76v40.7a4.76,4.76,0,0,1-4.75,4.76H202a4.76,4.76,0,0,0,4.76-4.76v-40.7A4.76,4.76,0,0,0,202,200.61Z"></path><rect id="Board_3_Part-2" data-name="Board 3 Part" class="cls-43" x="149.56" y="200.61" width="54.63" height="50.21" rx="4.76"></rect><circle id="Board_3_Part-3" data-name="Board 3 Part" class="cls-44" cx="176.88" cy="225.72" r="12.73" transform="translate(-32.87 30.17) rotate(-8.92)"></circle><path id="Board_3_Part-4" data-name="Board 3 Part" class="cls-45" d="M174.38,222.85v6.3a.84.84,0,0,0,1.29.71l5.05-3.15a.83.83,0,0,0,0-1.42l-5.05-3.15A.84.84,0,0,0,174.38,222.85Z"></path><path id="Board_2_Part" data-name="Board 2 Part" class="cls-10" d="M340.07,234.34h-3.44a4.62,4.62,0,0,1,4.76,4.46V277a4.62,4.62,0,0,1-4.76,4.47h3.44a4.62,4.62,0,0,0,4.76-4.47V238.8A4.62,4.62,0,0,0,340.07,234.34Z"></path><rect id="Board_2_Part-2" data-name="Board 2 Part" class="cls-46" x="287.68" y="234.34" width="54.63" height="47.12" rx="4.76"></rect><path id="Board_2_Part-3" data-name="Board 2 Part" class="cls-47" d="M300.94,266.91l10.55-12.6a.74.74,0,0,1,1.14,0l6,7.18a.74.74,0,0,0,1.17,0l1.95-2.68a.74.74,0,0,1,1.22,0l5.55,8.51a.75.75,0,0,1-.64,1.15l-26.4-.33A.74.74,0,0,1,300.94,266.91Z"></path><circle id="Board_2_Part-4" data-name="Board 2 Part" class="cls-48" cx="322.99" cy="250.16" r="2.84"></circle><path id="Board_1_Part" data-name="Board 1 Part" class="cls-10" d="M323.87,161.22h-2.7a3.48,3.48,0,0,1,3.73,3.17v27.14a3.49,3.49,0,0,1-3.73,3.18h2.7a3.49,3.49,0,0,0,3.72-3.18V164.39A3.48,3.48,0,0,0,323.87,161.22Z"></path><rect id="Board_1_Part-2" data-name="Board 1 Part" class="cls-49" x="282.84" y="161.22" width="42.78" height="33.48" rx="4.76"></rect><path id="Board_1_Part-3" data-name="Board 1 Part" class="cls-50" d="M301.7,184.57l-.14,0a.41.41,0,0,1-.24-.53L306,171.63a.41.41,0,0,1,.53-.24.41.41,0,0,1,.25.53l-4.64,12.38A.42.42,0,0,1,301.7,184.57Z"></path><path id="Board_1_Part-4" data-name="Board 1 Part" class="cls-51" d="M299.44,181.4a.41.41,0,0,1-.16,0l-7.13-3a.23.23,0,0,1,0-.43l7-3a.41.41,0,0,1,.54.22.4.4,0,0,1-.22.54L294.27,178a.23.23,0,0,0,0,.43l5.32,2.21a.4.4,0,0,1,.23.54A.41.41,0,0,1,299.44,181.4Z"></path><path id="Board_1_Part-5" data-name="Board 1 Part" class="cls-52" d="M308.19,181.4l.16,0,7.12-3a.23.23,0,0,0,0-.43l-7-3a.42.42,0,0,0-.55.22.41.41,0,0,0,.22.54l5.23,2.27a.23.23,0,0,1,0,.43L308,180.61a.42.42,0,0,0-.23.54A.41.41,0,0,0,308.19,181.4Z"></path><path id="File_Part" data-name="File Part" class="cls-53" d="M209,118.17h0a1.37,1.37,0,0,0-1.37-1.37H187.74a1.37,1.37,0,0,0-1.37,1.37v37.06a1.38,1.38,0,0,0,1.37,1.37h44.19a1.37,1.37,0,0,0,1.37-1.37V120.91a1.37,1.37,0,0,0-1.37-1.37H210.41A1.38,1.38,0,0,1,209,118.17Z"></path><rect id="File_Part-2" data-name="File Part" class="cls-54" x="188.36" y="122.12" width="42.83" height="34.48"></rect><path id="File_Part-3" data-name="File Part" class="cls-55" d="M208.56,126.58h0a2.11,2.11,0,0,1-2.12,2.11H188.49a2.12,2.12,0,0,0-2.12,2.12v23.67a2.12,2.12,0,0,0,2.12,2.12h42.7a2.12,2.12,0,0,0,2.11-2.12v-27.9a2.11,2.11,0,0,0-2.11-2.11H210.67A2.1,2.1,0,0,0,208.56,126.58Z"></path></svg>