<svg xmlns="http://www.w3.org/2000/svg" viewBox="0 0 369.05 317.02"><defs><style>.cls-1{isolation:isolate;}.cls-2{fill:#ececec;}.cls-13,.cls-19,.cls-3{opacity:0.6;}.cls-4{fill:#f5f5f5;}.cls-5{fill:#e1e1e1;}.cls-16,.cls-6{opacity:0.5;}.cls-7{fill:#e7e7e7;}.cls-8{fill:#f0f0f0;}.cls-18,.cls-19,.cls-9{fill:#fff;}.cls-10{fill:#30509f;}.cls-11,.cls-16{fill:#007cff;}.cls-12,.cls-13,.cls-26{fill:#5793ce;}.cls-14{fill:#7ba9e3;}.cls-15{fill:#1a2e35;}.cls-16{mix-blend-mode:multiply;}.cls-17{fill:#396caa;}.cls-18{opacity:0.7;}.cls-20,.cls-27{opacity:0.2;}.cls-21{fill:#ffc2b0;}.cls-22{fill:#ff8b7b;}.cls-23{fill:#ff5551;}.cls-24{fill:#0f264c;}.cls-25{fill:#14365b;}.cls-26{opacity:0.3;}.cls-27{fill:#fafafa;}</style></defs><g class="cls-1"><g id="_&#xCE;&#xD3;&#xC8;_1" data-name="&#x2014;&#xCE;&#xD3;&#xC8;_1"><rect class="cls-2" x="3.5" y="262.59" width="363.56" height="0.18"></rect><rect class="cls-2" x="41.64" y="269.51" width="15.42" height="0.18"></rect><rect class="cls-2" x="127.93" y="267.54" width="61.78" height="0.18"></rect><rect class="cls-2" x="52.7" y="276.26" width="27.71" height="0.18"></rect><rect class="cls-2" x="299.22" y="275.04" width="31.41" height="0.18"></rect><rect class="cls-2" x="288.14" y="275.04" width="8.71" height="0.18"></rect><rect class="cls-2" x="256.45" y="271.97" width="16.72" height="0.18"></rect><rect class="cls-2" x="212.82" y="271.97" width="35.22" height="0.18"></rect><path class="cls-2" d="M175.83,230.16H35.43A4.15,4.15,0,0,1,31.28,226V28.65a4.15,4.15,0,0,1,4.15-4.15h140.4A4.15,4.15,0,0,1,180,28.65V226A4.15,4.15,0,0,1,175.83,230.16ZM35.43,24.68a4,4,0,0,0-4,4V226a4,4,0,0,0,4,4h140.4a4,4,0,0,0,4-4V28.65a4,4,0,0,0-4-4Z"></path><path class="cls-2" d="M333.1,230.16H192.7a4.15,4.15,0,0,1-4.15-4.15V28.65a4.15,4.15,0,0,1,4.15-4.15H333.1a4.16,4.16,0,0,1,4.16,4.15V226A4.16,4.16,0,0,1,333.1,230.16ZM192.7,24.68a4,4,0,0,0-4,4V226a4,4,0,0,0,4,4H333.1a4,4,0,0,0,4-4V28.65a4,4,0,0,0-4-4Z"></path><g class="cls-3"><path class="cls-2" d="M259.67,141.25l5.38-5.38a29.18,29.18,0,0,1-28.19,48.81l2-7.35a21.57,21.57,0,0,0,20.84-36.08Z"></path><path class="cls-4" d="M223.79,135.87a29.19,29.19,0,0,1,41.26,0l-5.38,5.38a21.57,21.57,0,0,0-30.5,0Z"></path><path class="cls-5" d="M223.79,135.87l5.38,5.38a21.57,21.57,0,0,0,9.66,36.08l-2,7.35a29.18,29.18,0,0,1-13.07-48.81Z"></path><path class="cls-2" d="M283.62,114.29v11.44A43.82,43.82,0,0,1,261.72,44l5.72,9.9a32.38,32.38,0,0,0,16.18,60.43Z"></path><path class="cls-4" d="M327.44,81.91a43.82,43.82,0,0,1-43.82,43.81V114.29A32.39,32.39,0,0,0,316,81.91Z"></path><path class="cls-5" d="M327.44,81.91H316a32.38,32.38,0,0,0-48.57-28L261.72,44a43.82,43.82,0,0,1,65.72,37.95Z"></path></g><g class="cls-6"><rect class="cls-4" x="207.77" y="221.54" width="19.43" height="41.05" transform="translate(434.96 484.12) rotate(180)"></rect><rect class="cls-7" x="184.38" y="233.92" width="19.43" height="28.66" transform="translate(388.18 496.51) rotate(180)"></rect><rect class="cls-8" x="160.99" y="244.47" width="19.43" height="18.11" transform="translate(341.4 507.06) rotate(180)"></rect><rect class="cls-4" x="280.65" y="233.92" width="19.43" height="28.66" transform="translate(580.73 496.51) rotate(180)"></rect><rect class="cls-7" x="257.26" y="240.26" width="19.43" height="22.33" transform="translate(533.95 502.84) rotate(180)"></rect><rect class="cls-8" x="233.87" y="214.5" width="19.43" height="48.09" transform="translate(487.17 477.08) rotate(180)"></rect><rect class="cls-4" x="134.88" y="217.72" width="19.43" height="44.86" transform="translate(289.19 480.31) rotate(180)"></rect><rect class="cls-7" x="111.49" y="233.92" width="19.43" height="28.66" transform="translate(242.41 496.51) rotate(180)"></rect><rect class="cls-8" x="88.1" y="224.87" width="19.43" height="37.72" transform="translate(195.63 487.45) rotate(180)"></rect></g><g class="cls-3"><path class="cls-8" d="M44.3,42.32a5,5,0,0,1,5-5H203.59a5,5,0,0,1,4.95,5v16H44.3Z"></path><path class="cls-9" d="M84.35,51.92a4.11,4.11,0,1,1,4.11-4.11A4.12,4.12,0,0,1,84.35,51.92Zm0-7.49a3.39,3.39,0,1,0,3.39,3.38A3.39,3.39,0,0,0,84.35,44.43Z"></path><path class="cls-9" d="M71.08,51.92a4.11,4.11,0,1,1,4.11-4.11A4.11,4.11,0,0,1,71.08,51.92Zm0-7.49a3.39,3.39,0,1,0,3.38,3.38A3.38,3.38,0,0,0,71.08,44.43Z"></path><path class="cls-9" d="M57.81,51.92a4.11,4.11,0,1,1,4.11-4.11A4.11,4.11,0,0,1,57.81,51.92Zm0-7.49a3.39,3.39,0,1,0,3.38,3.38A3.39,3.39,0,0,0,57.81,44.43Z"></path><path class="cls-5" d="M203.59,165.68H49.25a5,5,0,0,1-5-5V58.27H208.54V160.72A5,5,0,0,1,203.59,165.68Z"></path><path class="cls-4" d="M69.35,80.73a5,5,0,0,1,5-5H228.64a5,5,0,0,1,5,5v16H69.35Z"></path><path class="cls-7" d="M109.41,90.34a4.11,4.11,0,1,1,4.11-4.11A4.12,4.12,0,0,1,109.41,90.34Zm0-7.49a3.38,3.38,0,1,0,3.39,3.38A3.38,3.38,0,0,0,109.41,82.85Z"></path><path class="cls-7" d="M96.14,90.34a4.11,4.11,0,1,1,4.11-4.11A4.11,4.11,0,0,1,96.14,90.34Zm0-7.49a3.38,3.38,0,1,0,3.38,3.38A3.38,3.38,0,0,0,96.14,82.85Z"></path><path class="cls-7" d="M82.87,90.34A4.11,4.11,0,1,1,87,86.23,4.11,4.11,0,0,1,82.87,90.34Zm0-7.49a3.38,3.38,0,1,0,3.38,3.38A3.38,3.38,0,0,0,82.87,82.85Z"></path><path class="cls-7" d="M228.64,204.09H74.31a5,5,0,0,1-5-5V96.68H233.6V199.14A5,5,0,0,1,228.64,204.09Z"></path></g><ellipse id="_Path_" data-name="&lt;Path&gt;" class="cls-4" cx="185.27" cy="287.19" rx="140.98" ry="8.23"></ellipse><path class="cls-10" d="M197.29,103.32a1.78,1.78,0,0,0,1.79-1.88l-.53-10.76a2,2,0,0,0-2-1.88h-1.43l-1.32-26.73a11.32,11.32,0,0,0-11.15-10.63H99a10,10,0,0,0-10.1,10.63l1.32,26.85A1.88,1.88,0,0,0,89,90.79l1.27,25.77a2.13,2.13,0,0,0,1.42,1.87l5.62,113.68a11.33,11.33,0,0,0,11.15,10.63h83.68a10,10,0,0,0,10.1-10.63l-5.41-109.58h1.42a1.79,1.79,0,0,0,1.8-1.89l-.53-10.75a2,2,0,0,0-2-1.89h-1.43l-.23-4.68Z"></path><path class="cls-11" d="M110.21,242.74h83.68A10.06,10.06,0,0,0,204,232.11l-8.41-170a11.32,11.32,0,0,0-11.15-10.63H100.76a10.05,10.05,0,0,0-10.1,10.63l8.4,170A11.33,11.33,0,0,0,110.21,242.74Z"></path><path class="cls-12" d="M110.21,242.74h83.68A10.06,10.06,0,0,0,204,232.11l-8.41-170a11.32,11.32,0,0,0-11.15-10.63H100.76a10.05,10.05,0,0,0-10.1,10.63l8.4,170A11.33,11.33,0,0,0,110.21,242.74Z"></path><path class="cls-9" d="M103.34,227.91h96a1.56,1.56,0,0,0,1.57-1.65l-7.8-158a1.77,1.77,0,0,0-1.74-1.65h-96a1.56,1.56,0,0,0-1.58,1.65l7.81,158A1.75,1.75,0,0,0,103.34,227.91Z"></path><path class="cls-10" d="M152.93,56.36H132.75a1.23,1.23,0,0,0-1.24,1.31h0A1.39,1.39,0,0,0,132.88,59h20.18a1.25,1.25,0,0,0,1.25-1.31h0A1.4,1.4,0,0,0,152.93,56.36Z"></path><polygon class="cls-13" points="226.74 195.03 142.84 195.03 136.83 73.34 220.72 73.34 226.74 195.03"></polygon><path class="cls-9" d="M216.83,161.76l-.12,0a.31.31,0,0,1-.09-.07.24.24,0,0,1-.06-.09.27.27,0,0,1,0-.12.3.3,0,0,1,.51-.22.32.32,0,0,1,.1.22.53.53,0,0,1,0,.12l-.07.09a.31.31,0,0,1-.09.07Z"></path><path class="cls-9" d="M217.67,184.5a.3.3,0,0,1,.28-.32h0a.31.31,0,0,1,.32.29h0a.31.31,0,0,1-.29.32h0A.3.3,0,0,1,217.67,184.5Zm-.12-2.3a.3.3,0,0,1,.29-.32h0a.29.29,0,0,1,.31.29h0a.29.29,0,0,1-.28.31h0A.31.31,0,0,1,217.55,182.2Zm-.11-2.31a.3.3,0,0,1,.29-.31h0a.3.3,0,0,1,.31.28h0a.3.3,0,0,1-.29.32h0A.31.31,0,0,1,217.44,179.89Zm-.11-2.3a.29.29,0,0,1,.28-.31h0a.3.3,0,0,1,.32.28h0a.3.3,0,0,1-.28.32h0A.29.29,0,0,1,217.33,177.59Zm-.12-2.3a.3.3,0,0,1,.29-.32h0a.29.29,0,0,1,.31.29h0a.28.28,0,0,1-.28.31h0A.3.3,0,0,1,217.21,175.29Zm-.11-2.3a.3.3,0,0,1,.28-.32h0a.3.3,0,0,1,.32.29h0a.32.32,0,0,1-.29.32h0A.31.31,0,0,1,217.1,173Zm-.12-2.31a.31.31,0,0,1,.29-.31h0a.3.3,0,0,1,.32.28h0a.31.31,0,0,1-.29.32h0A.31.31,0,0,1,217,170.68Zm-.1-2.3a.29.29,0,0,1,.28-.32h0a.31.31,0,0,1,.31.29h0a.3.3,0,0,1-.28.32h0A.29.29,0,0,1,216.88,168.38Zm-.12-2.3a.3.3,0,0,1,.28-.32h0a.31.31,0,0,1,.32.29h0a.31.31,0,0,1-.29.32h0A.31.31,0,0,1,216.76,166.08Zm-.12-2.3a.32.32,0,0,1,.29-.32h0a.31.31,0,0,1,.32.28h0a.3.3,0,0,1-.29.32h0A.31.31,0,0,1,216.64,163.78Z"></path><path class="cls-9" d="M218.08,187.09a.31.31,0,0,1-.21-.09.27.27,0,0,1-.09-.21.27.27,0,0,1,0-.12.21.21,0,0,1,.06-.1.33.33,0,0,1,.1-.06.31.31,0,0,1,.23,0l.1.06.06.1a.27.27,0,0,1,0,.12.31.31,0,0,1-.09.21.27.27,0,0,1-.1.06A.24.24,0,0,1,218.08,187.09Z"></path><path class="cls-9" d="M215.34,186.79a.3.3,0,0,1,.31-.3h0a.29.29,0,0,1,.29.3h0a.3.3,0,0,1-.29.3h0A.31.31,0,0,1,215.34,186.79Zm-2.44,0a.3.3,0,0,1,.3-.3h0a.29.29,0,0,1,.3.3h0a.3.3,0,0,1-.3.3h0A.31.31,0,0,1,212.9,186.79Zm-2.44,0a.29.29,0,0,1,.3-.3h0a.3.3,0,0,1,.31.3h0a.31.31,0,0,1-.31.3h0A.3.3,0,0,1,210.46,186.79Zm-2.44,0a.3.3,0,0,1,.3-.3h0a.29.29,0,0,1,.3.3h0a.3.3,0,0,1-.3.3h0A.31.31,0,0,1,208,186.79Zm-2.44,0a.29.29,0,0,1,.3-.3h0a.3.3,0,0,1,.31.3h0a.31.31,0,0,1-.31.3h0A.3.3,0,0,1,205.58,186.79Zm-2.44,0a.3.3,0,0,1,.31-.3h0a.29.29,0,0,1,.29.3h0a.3.3,0,0,1-.29.3h0A.31.31,0,0,1,203.14,186.79Zm-2.44,0a.29.29,0,0,1,.3-.3h0a.29.29,0,0,1,.3.3h0a.3.3,0,0,1-.3.3h0A.3.3,0,0,1,200.7,186.79Zm-2.44,0a.3.3,0,0,1,.3-.3h0a.29.29,0,0,1,.3.3h0a.3.3,0,0,1-.3.3h0A.31.31,0,0,1,198.26,186.79Zm-2.44,0a.3.3,0,0,1,.3-.3h0a.29.29,0,0,1,.3.3h0a.3.3,0,0,1-.3.3h0A.31.31,0,0,1,195.82,186.79Zm-2.44,0a.29.29,0,0,1,.3-.3h0a.3.3,0,0,1,.31.3h0a.31.31,0,0,1-.31.3h0A.3.3,0,0,1,193.38,186.79Zm-2.44,0a.3.3,0,0,1,.3-.3h0a.29.29,0,0,1,.3.3h0a.3.3,0,0,1-.3.3h0A.31.31,0,0,1,190.94,186.79Z"></path><path class="cls-9" d="M188.8,187.09a.33.33,0,0,1-.21-.09.36.36,0,0,1-.07-.1.43.43,0,0,1,0-.11.31.31,0,0,1,.09-.22.3.3,0,0,1,.33-.06l.09.06a.32.32,0,0,1,.1.22.45.45,0,0,1,0,.11.36.36,0,0,1-.07.1.18.18,0,0,1-.09.06A.27.27,0,0,1,188.8,187.09Z"></path><polygon class="cls-14" points="222.32 105.77 138.43 105.77 136.83 73.34 220.72 73.34 222.32 105.77"></polygon><path class="cls-15" d="M218.38,157.74l-.2-2.13a20.27,20.27,0,0,0,13.9-6.26,20,20,0,0,0,4.63-7.93l2,.72a22.08,22.08,0,0,1-5.1,8.72A22.34,22.34,0,0,1,218.38,157.74Z"></path><path class="cls-16" d="M230.58,119a22.74,22.74,0,0,0-9.2-5.36l.52-2a25.17,25.17,0,0,1,10.11,5.9,24.32,24.32,0,0,1,6.74,24.62l-2-.72A22.13,22.13,0,0,0,230.58,119Z"></path><path class="cls-17" d="M200.31,150.86a24.78,24.78,0,0,1-7.71-16.37l2.13,0a22.75,22.75,0,0,0,23.45,21.15l.2,2.13A24.66,24.66,0,0,1,200.31,150.86Z"></path><path class="cls-18" d="M192.6,134.49a22.44,22.44,0,0,1,6.07-17,22.85,22.85,0,0,1,23.23-5.9l-.52,2A20.79,20.79,0,0,0,200.24,119a20.42,20.42,0,0,0-5.51,15.44Z"></path><ellipse class="cls-19" cx="216.16" cy="134.19" rx="17.54" ry="18.43" transform="translate(-30.84 195.2) rotate(-45.71)"></ellipse><path class="cls-15" d="M172.3,169.35l-.35,1.46a15.12,15.12,0,0,0-11,1,14.12,14.12,0,0,0-5,4.21l-1.24-1a15.68,15.68,0,0,1,5.53-4.63A16.61,16.61,0,0,1,172.3,169.35Z"></path><path class="cls-16" d="M154.93,192.33A16.44,16.44,0,0,0,160,198l-.83,1.23a18,18,0,0,1-5.6-6.26,16.67,16.67,0,0,1,1.05-18l1.24,1A15.17,15.17,0,0,0,154.93,192.33Z"></path><path class="cls-18" d="M183.15,178.11a17,17,0,0,1,1.53,12.69l-1.47-.48a15.47,15.47,0,0,0-1.39-11.54,16.41,16.41,0,0,0-9.87-8l.35-1.46A18.07,18.07,0,0,1,183.15,178.11Z"></path><path class="cls-17" d="M184.68,190.8a15.71,15.71,0,0,1-8.11,9.9,17.06,17.06,0,0,1-17.37-1.44L160,198a15.55,15.55,0,0,0,15.8,1.31,14.27,14.27,0,0,0,7.38-9Z"></path><ellipse class="cls-19" cx="168.38" cy="185.56" rx="12.56" ry="13.19" transform="translate(-82.02 176.5) rotate(-45.71)"></ellipse><polygon class="cls-9" points="190.37 77.43 187.49 77.43 180.25 88.22 188.55 99.01 191.43 99.01 183.13 88.22 190.37 77.43"></polygon><polygon class="cls-9" points="198.98 77.43 201.86 77.43 210.17 88.22 202.93 99.01 200.05 99.01 207.29 88.22 198.98 77.43"></polygon><g class="cls-3"><path class="cls-11" d="M125.51,87.19H107.12a1.3,1.3,0,0,0-1.31,1.37l.63,12.65a1.46,1.46,0,0,0,1.44,1.38h18.39a1.3,1.3,0,0,0,1.3-1.38L127,88.56A1.47,1.47,0,0,0,125.51,87.19Zm-7,11.77h-3.33l.23-4a2.36,2.36,0,0,1-1.1-1.87,2.12,2.12,0,0,1,2.13-2.24,2.38,2.38,0,0,1,2.35,2.24,2.1,2.1,0,0,1-.92,1.87Z"></path><path class="cls-20" d="M114.36,93.07a2.36,2.36,0,0,0,1.1,1.87l-.23,4h1.66l.18,3.63h-9.19a1.46,1.46,0,0,1-1.44-1.38l-.63-12.65a1.3,1.3,0,0,1,1.31-1.37h9.19l.18,3.64A2.12,2.12,0,0,0,114.36,93.07Z"></path><path class="cls-11" d="M123.82,86.29h0a1.29,1.29,0,0,1-1.27-1.22l-.07-1.24a6.85,6.85,0,0,0-6.34-6.51,6,6,0,0,0-6.34,6.33l.07,1.42a1.16,1.16,0,0,1-1.16,1.22h0a1.29,1.29,0,0,1-1.27-1.22l-.06-1.21a8.39,8.39,0,0,1,8-9,9.32,9.32,0,0,1,9.54,8.77l.07,1.42A1.16,1.16,0,0,1,123.82,86.29Z"></path></g><polygon class="cls-13" points="131.85 221.77 71.79 221.77 66.61 116.94 126.67 116.94 131.85 221.77"></polygon><polygon class="cls-14" points="126.92 121.96 66.86 121.96 66.61 116.94 126.67 116.94 126.92 121.96"></polygon><polygon class="cls-14" points="131.85 221.77 71.79 221.77 71.55 216.75 131.6 216.75 131.85 221.77"></polygon><path class="cls-17" d="M85.26,146.6l-2.16-1.11a15.07,15.07,0,0,0-1.25-2.7h0l.59-2.27L77.72,136l-2.24.7h0a15.26,15.26,0,0,0-2.75-1.12h0l-1.22-2.1H65.15l-1,2.1a13.43,13.43,0,0,0-2.64,1.12h0l-2.31-.7-4.27,4.5.81,2.27h0a13.59,13.59,0,0,0-1,2.7l-2,1.11L53,153l2.16,1.11h0a15.3,15.3,0,0,0,1.25,2.69h0L55.83,159l4.72,4.5,2.24-.7A15.26,15.26,0,0,0,65.54,164l1.22,2.1h6.36l1-2.1h0a13.43,13.43,0,0,0,2.64-1.12l2.31.7,4.27-4.5-.81-2.27h0a13.73,13.73,0,0,0,1-2.69h0l2-1.11ZM69.7,161.3a12.24,12.24,0,0,1-12.09-11.52,10.86,10.86,0,0,1,11-11.52,12.25,12.25,0,0,1,12.1,11.52A10.87,10.87,0,0,1,69.7,161.3Z"></path><path class="cls-19" d="M68.64,139.87a9.35,9.35,0,0,0-9.41,9.91,10.53,10.53,0,0,0,10.39,9.91A9.35,9.35,0,0,0,79,149.78,10.54,10.54,0,0,0,68.64,139.87Z"></path><path class="cls-17" d="M132.47,156.43H98.38a2.45,2.45,0,0,0-2.47,2.6l.86,17.5a2.76,2.76,0,0,0,2.73,2.6H120l.37,7.59,7.22-7.59h6a2.45,2.45,0,0,0,2.47-2.6L135.2,159A2.76,2.76,0,0,0,132.47,156.43Z"></path><path class="cls-9" d="M86.44,185.56h23.29a1.89,1.89,0,0,1,1.87,1.77l.59,12a1.68,1.68,0,0,1-1.69,1.78h-14l.26,5.18-5.44-5.18H87.2a1.89,1.89,0,0,1-1.86-1.78l-.59-12A1.67,1.67,0,0,1,86.44,185.56Z"></path><path class="cls-21" d="M287.93,142.82l-3.44-.16,1.56,6.53a18,18,0,0,0,3.33-2.94,1.65,1.65,0,0,0-.18-2.33Z"></path><polygon class="cls-21" points="280.5 146.19 282.04 151.52 286.05 149.19 284.49 142.66 280.5 146.19"></polygon><path class="cls-21" d="M261.82,109.46l-1.66,1.91c-.56.66-1.12,1.32-1.66,2-1.09,1.34-2.17,2.7-3.19,4.08a57.32,57.32,0,0,0-5.38,8.51c-.18.36-.33.72-.5,1.08l-.24.53s0,0,0,0a1.9,1.9,0,0,0,0,1.08A16.36,16.36,0,0,0,251,132.7a77.3,77.3,0,0,0,5.91,8.5l-2.74,2.93a45.2,45.2,0,0,1-8.31-7.89,19.81,19.81,0,0,1-3.26-5.53,8.84,8.84,0,0,1-.56-4.27,7.44,7.44,0,0,1,.3-1.33l.26-.73c.17-.48.34-1,.53-1.44a53.87,53.87,0,0,1,5.65-10.18c1.09-1.56,2.21-3.08,3.41-4.54.6-.73,1.2-1.46,1.82-2.17s1.24-1.4,2-2.15Z"></path><polygon class="cls-22" points="261.28 143.5 258.18 149.63 255.15 147.02 257.64 142.66 261.28 143.5"></polygon><path class="cls-21" d="M291.71,103.59c1.91,3.38,3.69,6.78,5.4,10.24s3.35,7,4.87,10.58l.13.31.14.4a5.2,5.2,0,0,1,.2.8c0,.25.07.5.1.75a5.37,5.37,0,0,1,0,.69,6.56,6.56,0,0,1-.13,1.24,7.65,7.65,0,0,1-.25,1.07,16.19,16.19,0,0,1-1.51,3.34,27.06,27.06,0,0,1-1.81,2.67c-.63.83-1.28,1.63-1.95,2.39a64.75,64.75,0,0,1-8.7,8.12l-2.77-2.89c2.32-2.91,4.63-5.94,6.64-9a33.31,33.31,0,0,0,2.58-4.51,8.27,8.27,0,0,0,.67-2,2.75,2.75,0,0,0,0-.34c0-.09,0-.18,0-.19s0,0,0,0a.11.11,0,0,0,0,.05s0,.06,0,.11a.14.14,0,0,0,0,.06s0,.06,0,0c-1.74-3.33-3.56-6.66-5.37-10s-3.62-6.69-5.38-10Z"></path><path class="cls-15" d="M264.21,82.93c.09.42-.06.82-.34.89s-.56-.22-.65-.64.06-.82.33-.89S264.12,82.51,264.21,82.93Z"></path><path class="cls-23" d="M264.19,83.74A16.24,16.24,0,0,1,263,87.85a2.45,2.45,0,0,0,2.08-.13Z"></path><path class="cls-24" d="M263.74,87c-.56,0-1.09-.43-1.52-1.22a8.34,8.34,0,0,1-.44-6c.32-.89.82-1.4,1.4-1.44s1.15.39,1.6,1.22a7.75,7.75,0,0,1,.79,3c.17,2.44-.6,4.42-1.76,4.51Zm-.48-8.35h-.05c-.42,0-.82.47-1.09,1.2a7.94,7.94,0,0,0,.42,5.75c.37.69.83,1.07,1.25,1,.92-.06,1.57-1.95,1.41-4.11a7.26,7.26,0,0,0-.74-2.84C264.1,79,263.67,78.65,263.26,78.65Z"></path><path class="cls-15" d="M263.09,80.37a.24.24,0,0,0,.14-.05A2,2,0,0,1,265,80.2a.24.24,0,0,0,.33-.13.25.25,0,0,0-.13-.33,2.49,2.49,0,0,0-2.3.17.25.25,0,0,0-.06.35A.26.26,0,0,0,263.09,80.37Z"></path><path class="cls-21" d="M278.73,85.89c-.15,4.4-1.78,9.71.86,12.32,0,0-1.22,4-8.49,4-8,0-3.66-4-3.66-4,4.4-1,4.41-4.27,3.77-7.31Z"></path><path class="cls-10" d="M281.46,99.57c.62-1.25,1.26-3.18,0-3.63s-8.61-1.75-14.08,0a4.79,4.79,0,0,1,.07,3.9Z"></path><path class="cls-9" d="M291,282a1.67,1.67,0,0,1-1.27-.35.51.51,0,0,1,0-.61.62.62,0,0,1,.42-.29c.78-.17,2.21.83,2.27.87a.13.13,0,0,1,0,.13.12.12,0,0,1-.09.1A6.61,6.61,0,0,1,291,282Zm-.63-1-.15,0a.35.35,0,0,0-.25.17c-.13.21-.06.3,0,.33.22.3,1.31.3,2.11.16A4,4,0,0,0,290.41,281Z"></path><path class="cls-9" d="M292.41,281.86h-.06c-.54-.3-1.56-1.46-1.44-2.06a.43.43,0,0,1,.42-.34.66.66,0,0,1,.53.17c.6.51.67,2.05.67,2.11a.12.12,0,0,1-.06.12Zm-1-2.16h-.05c-.18,0-.19.11-.2.14-.07.36.58,1.23,1.1,1.65a3,3,0,0,0-.56-1.68A.46.46,0,0,0,291.41,279.7Z"></path><path class="cls-9" d="M259,282c-.68,0-1.34-.09-1.55-.4a.47.47,0,0,1,0-.56c.58-.94,2.95.42,3.22.58a.14.14,0,0,1,.06.13.13.13,0,0,1-.1.1A9.4,9.4,0,0,1,259,282Zm-.82-1a.55.55,0,0,0-.49.2c-.11.18,0,.26,0,.29.24.33,1.59.34,2.59.2A5.64,5.64,0,0,0,258.14,281Z"></path><path class="cls-9" d="M260.58,281.86h-.05c-.64-.29-1.85-1.42-1.75-2,0-.14.13-.32.48-.36a.9.9,0,0,1,.7.22,3.53,3.53,0,0,1,.75,2.06.13.13,0,0,1-.06.11A.08.08,0,0,1,260.58,281.86Zm-1.22-2.16h-.07c-.24,0-.26.12-.26.16-.06.37.76,1.26,1.4,1.65a2.83,2.83,0,0,0-.64-1.65A.64.64,0,0,0,259.36,279.7Z"></path><polygon class="cls-21" points="266.45 281.74 261.11 281.74 261.06 269.37 266.4 269.37 266.45 281.74"></polygon><polygon class="cls-21" points="298.53 281.74 293.19 281.74 290.98 269.37 296.32 269.37 298.53 281.74"></polygon><path class="cls-25" d="M292.83,281.12h6a.44.44,0,0,1,.44.36l.87,4.75a.82.82,0,0,1-.82.95c-2.09,0-3.1-.16-5.74-.16-1.62,0-5,.17-7.22.17s-2.45-2.22-1.52-2.42c4.15-.9,5.75-2.14,7.11-3.32A1.32,1.32,0,0,1,292.83,281.12Z"></path><path class="cls-25" d="M261.17,281.12H267a.45.45,0,0,1,.44.36l.87,4.75a.81.81,0,0,1-.81.95c-2.1,0-5.14-.16-7.78-.16-3.09,0-5.77.17-9.4.17-2.19,0-2.71-2.22-1.79-2.42,4.22-.91,7.63-1,11.33-3.23A2.47,2.47,0,0,1,261.17,281.12Z"></path><path class="cls-12" d="M289.78,99.42c5,1.15,10.18,14.8,10.18,14.8l-10.33,6.89a80.57,80.57,0,0,1-6.2-11.29C280.7,103.57,284.71,98.24,289.78,99.42Z"></path><path class="cls-26" d="M289.78,99.42c5,1.15,10.18,14.8,10.18,14.8l-10.33,6.89a80.57,80.57,0,0,1-6.2-11.29C280.7,103.57,284.71,98.24,289.78,99.42Z"></path><path class="cls-20" d="M285.86,108.12l4.26,12.66-.48.33s-1.95-2.89-4-6.79Z"></path><path class="cls-12" d="M256.45,123.28c0,6,.4,13.38,1.29,22.58h28.58c.36-4.38-1.57-25.78,3.46-46.44a72.23,72.23,0,0,0-9.52-1.21,104.54,104.54,0,0,0-12.14,0,53.85,53.85,0,0,0-8.27,1.48s-2.45,2.65-3.19,15.06C256.52,117.2,256.44,120,256.45,123.28Z"></path><path class="cls-26" d="M256.45,123.28c0,6,.4,13.38,1.29,22.58h28.58c.36-4.38-1.57-25.78,3.46-46.44a72.23,72.23,0,0,0-9.52-1.21,104.54,104.54,0,0,0-12.14,0,53.85,53.85,0,0,0-8.27,1.48s-2.45,2.65-3.19,15.06C256.52,117.2,256.44,120,256.45,123.28Z"></path><path class="cls-20" d="M256.45,123.28c1.73-3.16,4.87-9.49,4.43-13.1l-4.22,4.57C256.52,117.2,256.44,120,256.45,123.28Z"></path><path class="cls-12" d="M265.45,104.52c.45,5.07-11.09,17.34-11.09,17.34l-9.25-7.54a59.31,59.31,0,0,1,8.65-11.27C259.16,97.82,264.94,98.82,265.45,104.52Z"></path><path class="cls-26" d="M265.45,104.52c.45,5.07-11.09,17.34-11.09,17.34l-9.25-7.54a59.31,59.31,0,0,1,8.65-11.27C259.16,97.82,264.94,98.82,265.45,104.52Z"></path><polygon class="cls-20" points="261.06 269.37 261.09 275.75 266.43 275.75 266.4 269.37 261.06 269.37"></polygon><polygon class="cls-20" points="296.32 269.37 290.98 269.37 292.12 275.75 297.46 275.75 296.32 269.37"></polygon><path class="cls-21" d="M278,78.52c.78,5.26,1.5,8.29-.52,11.6a6.9,6.9,0,0,1-12.21-.65c-2.09-4.38-3-12.25,1.57-15.58A7,7,0,0,1,278,78.52Z"></path><path class="cls-24" d="M269,77.08C252.21,76.67,266,66.5,266,66.5c-2.76,4.85,5.16,4.4,7.15,2.22,2.44-2.66,6.83,1,6.48,4,2.55-.32,4.59,1.58,3.62,7.69s-2.95,7.82-4,9.32-1,.07-4.45.72c-2.4.45-6.42-4.73-6.86-7.75A8.17,8.17,0,0,1,269,77.08Z"></path><path class="cls-24" d="M277.66,73.57s4.39-1.82,1.43-6.38C283.16,69.29,282.55,73.13,277.66,73.57Z"></path><path class="cls-21" d="M271.35,81.77a6.35,6.35,0,0,1-1.29,3.7c-1.08,1.4-2.33.71-2.62-.84-.26-1.4,0-3.81,1.35-4.65S271.35,80.17,271.35,81.77Z"></path><path class="cls-10" d="M267.88,145.86s4.49,40.83,7.22,56.12c3,16.75,14.58,72.53,14.58,72.53h9.78s-6.95-54.43-8.39-71c-1.56-18-4.76-57.64-4.76-57.64Z"></path><path class="cls-11" d="M288.25,270.91s.87,3.75.87,3.75h11l-.08-3.35Z"></path><path class="cls-20" d="M271.15,160.41c7,1.37,5.2,27.51,3.84,41-1.65-9.51-3.91-27.79-5.43-40.77A2.37,2.37,0,0,1,271.15,160.41Z"></path><path class="cls-10" d="M257.74,145.86s-2.27,39.94-2.32,56.23c0,16.94,3.72,72.42,3.72,72.42h9.05s2.44-54.49,3.48-71.13c1.14-18.14,4.85-57.52,4.85-57.52Z"></path><path class="cls-21" d="M255.56,140.73l2.54.21a1.39,1.39,0,0,1,1.22,1.78l-1.05,3.53a1.86,1.86,0,0,1-2.94.93,9.5,9.5,0,0,1-2.71-4.52Z"></path><path class="cls-27" d="M261.28,268a.09.09,0,0,1-.09-.08c-1-15.36-3.33-52.51-3.29-65.84,0-13.63,1.66-44.14,2.16-53.16a.08.08,0,0,1,.09-.08.09.09,0,0,1,.09.09c-.49,9-2.11,39.52-2.15,53.15,0,13.33,2.28,50.47,3.28,65.83a.08.08,0,0,1-.08.09Z"></path><path class="cls-11" d="M257.54,270.91s.37,3.75.37,3.75h11l.42-3.35Z"></path></g></g></svg>