<svg xmlns="http://www.w3.org/2000/svg" id="Layer_1" data-name="Layer 1" viewBox="0 0 56.79 39.03"><defs><style>.cls-1{fill:#30509f;}</style></defs><g id="g20"><path id="path2" class="cls-1" d="M23.87,15.28l-4,4.35a5.41,5.41,0,0,1-.9-.79A6.61,6.61,0,0,0,16,17.23a5.67,5.67,0,0,0-7,4.13,7.37,7.37,0,0,0,.36,5.36A5.55,5.55,0,0,0,13.79,30a9.54,9.54,0,0,0,1.41.09h8.92a1.1,1.1,0,0,0,.51,0c0-.15-.07-.24-.15-.33a15.12,15.12,0,0,1-2.89-7.34,16.11,16.11,0,0,1-.11-2.31,1,1,0,0,1,.29-.69l3.69-3.94c.05-.07.11-.13.18-.23A17.65,17.65,0,0,0,23.47,13a5.36,5.36,0,0,1,.8-1.38A15.28,15.28,0,0,1,34.58,5.25a16.85,16.85,0,0,1,9.1.92,15.09,15.09,0,0,1,4.38,2.65,14.71,14.71,0,0,1,5,9.37,15.44,15.44,0,0,1-1.21,8.68,15.08,15.08,0,0,1-6,6.77,15.75,15.75,0,0,1-6.28,2.14,26.54,26.54,0,0,1-3.21.16c-7.35,0-14.7,0-22,0a12.25,12.25,0,0,1-7.83-2.7,11.58,11.58,0,0,1-4.23-7,12.34,12.34,0,0,1,2.67-10.8,11.73,11.73,0,0,1,8-4.16,13.9,13.9,0,0,1,6.9.87A10.94,10.94,0,0,1,23.74,15,.4.4,0,0,1,23.87,15.28ZM28.43,21A7.71,7.71,0,0,0,29,23.83a8.85,8.85,0,0,0,9.42,5.93,8.37,8.37,0,0,0,6.47-4,9.52,9.52,0,0,0,1.41-6.31,9.12,9.12,0,0,0-3.67-6.62,8.73,8.73,0,0,0-7-1.55,8.32,8.32,0,0,0-5.73,3.86A9.93,9.93,0,0,0,28.43,21Z"></path></g></svg>