<svg xmlns="http://www.w3.org/2000/svg" id="_&#xCE;&#xD3;&#xC8;_1" data-name="&#x2014;&#xCE;&#xD3;&#xC8;_1" viewBox="0 0 369.05 317.02"><defs><style>.cls-1,.cls-2{fill:#173d7a;}.cls-2{opacity:0.5;}.cls-3{fill:#396caa;}.cls-4{fill:#5793ce;}.cls-5,.cls-9{fill:#d4ecff;}.cls-6{fill:#fff;}.cls-7{fill:#fafdff;}.cls-8{fill:#30509f;}.cls-9{opacity:0.4;}</style></defs><path class="cls-1" d="M187.71,220.85l49-27.92c1.79-1,1.56-2.84-.5-4L208,172.63a7.78,7.78,0,0,0-7-.29l-49,27.92c-1.79,1-1.56,2.84.5,4l28.18,16.27A7.78,7.78,0,0,0,187.71,220.85Z"></path><path class="cls-2" d="M109.13,266.09l49-27.92c1.79-1,1.57-2.84-.5-4l-28.17-16.26a7.73,7.73,0,0,0-7-.29l-49,27.92c-1.79,1-1.57,2.84.5,4l28.17,16.27A7.8,7.8,0,0,0,109.13,266.09Z"></path><path class="cls-2" d="M248.57,255.85l49-27.92c1.8-1,1.57-2.83-.5-4l-28.17-16.26a7.73,7.73,0,0,0-7-.29l-49,27.92c-1.79,1-1.57,2.84.5,4l28.17,16.27A7.76,7.76,0,0,0,248.57,255.85Z"></path><path class="cls-2" d="M170,301.09l49-27.92c1.79-1,1.57-2.84-.5-4l-28.17-16.27a7.8,7.8,0,0,0-7-.29l-49,27.92c-1.79,1-1.57,2.84.5,4L163,300.8A7.73,7.73,0,0,0,170,301.09Z"></path><path class="cls-2" d="M28.74,210.74,5.59,197.38c-1.42-.82-1.24-2.26.4-3.2l22.35-12.91a6.18,6.18,0,0,1,5.54-.23L57,194.41c1.42.82,1.24,2.25-.4,3.2l-22.35,12.9A6.15,6.15,0,0,1,28.74,210.74Z"></path><path class="cls-3" d="M58,185.17h0v-8H40.07l-6.19-3.57a6.15,6.15,0,0,0-5.54.23l-5.78,3.33H4.64v8.22a1.6,1.6,0,0,0,1,1.48l23.15,13.37a6.18,6.18,0,0,0,5.54-.23l22.35-12.91A2.2,2.2,0,0,0,58,185.17Z"></path><path class="cls-3" d="M31.31,173.05a6.46,6.46,0,0,0-3,.78l-5.78,3.33H4.64v8.22a1.6,1.6,0,0,0,1,1.48l23.15,13.37a5,5,0,0,0,2.57.54Z"></path><path class="cls-4" d="M6.67,177.16h-2v8.22a1.6,1.6,0,0,0,1,1.48l1.08.62Z"></path><path class="cls-4" d="M29.09,200.39a6.27,6.27,0,0,0,4.43,0V191H29.09Z"></path><path class="cls-5" d="M28.74,192,5.59,178.67c-1.42-.82-1.24-2.25.4-3.2l22.35-12.9a6.15,6.15,0,0,1,5.54-.23L57,175.7c1.42.82,1.24,2.25-.4,3.2L34.28,191.8A6.15,6.15,0,0,1,28.74,192Z"></path><path class="cls-6" d="M56.63,177.33l-22.35,12.9a6.15,6.15,0,0,1-5.54.23L5.59,177.1a2.22,2.22,0,0,1-.71-.63,1.49,1.49,0,0,0,.71,2.2L28.74,192a6.15,6.15,0,0,0,5.54-.23l22.35-12.9c1.27-.74,1.66-1.76,1.1-2.57A3.1,3.1,0,0,1,56.63,177.33Z"></path><path class="cls-5" d="M49.46,187.28a2.07,2.07,0,0,1-.93,1.62c-.52.3-.94,0-.94-.54a2.06,2.06,0,0,1,.94-1.62C49.05,186.44,49.46,186.68,49.46,187.28Z"></path><path class="cls-5" d="M52.47,185.54a2.08,2.08,0,0,1-.93,1.62c-.52.3-.94.06-.94-.54a2.06,2.06,0,0,1,.94-1.62C52.05,184.7,52.47,184.94,52.47,185.54Z"></path><path class="cls-5" d="M55.48,183.8a2,2,0,0,1-.94,1.62c-.51.3-.93.06-.93-.54a2.09,2.09,0,0,1,.93-1.62C55.06,183,55.48,183.21,55.48,183.8Z"></path><path class="cls-4" d="M30.11,183.75l-10.84-6.26c-.66-.38-.58-1.05.19-1.49l10.46-6a2.9,2.9,0,0,1,2.59-.11l10.83,6.25c.67.39.58,1.06-.18,1.5l-10.46,6A2.9,2.9,0,0,1,30.11,183.75Z"></path><path class="cls-5" d="M31.14,178.51l-1.5-.86c-.09-.06-.08-.15,0-.21l1.45-.84a.41.41,0,0,1,.36,0l1.49.86c.1.06.08.15,0,.21l-1.45.84A.41.41,0,0,1,31.14,178.51Z"></path><path class="cls-3" d="M19.27,177.49l0,0,.15-.11,10.46-6a2.87,2.87,0,0,1,2.59-.11l10.8,6.23c.62-.43.65-1,0-1.39l-10.83-6.25a2.9,2.9,0,0,0-2.59.11l-10.46,6C18.69,176.44,18.61,177.11,19.27,177.49Z"></path><path class="cls-2" d="M335.16,210.74,312,197.38c-1.42-.82-1.24-2.26.4-3.2l22.35-12.91a6.18,6.18,0,0,1,5.54-.23l23.15,13.37c1.42.82,1.24,2.25-.4,3.2l-22.35,12.9A6.15,6.15,0,0,1,335.16,210.74Z"></path><path class="cls-3" d="M364.4,185.17h0v-8H346.49l-6.19-3.57a6.15,6.15,0,0,0-5.54.23L329,177.16H311.06v8.22a1.6,1.6,0,0,0,.95,1.48l23.15,13.37a6.18,6.18,0,0,0,5.54-.23l22.35-12.91A2.2,2.2,0,0,0,364.4,185.17Z"></path><path class="cls-3" d="M337.73,173.05a6.46,6.46,0,0,0-3,.78L329,177.16H311.06v8.22a1.6,1.6,0,0,0,.95,1.48l23.15,13.37a5,5,0,0,0,2.57.54Z"></path><path class="cls-4" d="M313.09,177.16h-2v8.22a1.6,1.6,0,0,0,.95,1.48l1.08.62Z"></path><path class="cls-4" d="M335.51,200.39a6.27,6.27,0,0,0,4.43,0V191h-4.43Z"></path><path class="cls-5" d="M335.16,192,312,178.67c-1.42-.82-1.24-2.25.4-3.2l22.35-12.9a6.15,6.15,0,0,1,5.54-.23l23.15,13.36c1.42.82,1.24,2.25-.4,3.2L340.7,191.8A6.15,6.15,0,0,1,335.16,192Z"></path><path class="cls-6" d="M363.05,177.33l-22.35,12.9a6.15,6.15,0,0,1-5.54.23L312,177.1a2.22,2.22,0,0,1-.71-.63,1.49,1.49,0,0,0,.71,2.2L335.16,192a6.15,6.15,0,0,0,5.54-.23l22.35-12.9c1.27-.74,1.66-1.76,1.1-2.57A3.1,3.1,0,0,1,363.05,177.33Z"></path><path class="cls-5" d="M355.88,187.28a2.07,2.07,0,0,1-.93,1.62c-.52.3-.94,0-.94-.54a2.06,2.06,0,0,1,.94-1.62C355.47,186.44,355.88,186.68,355.88,187.28Z"></path><path class="cls-5" d="M358.89,185.54a2.08,2.08,0,0,1-.93,1.62c-.52.3-.94.06-.94-.54A2.06,2.06,0,0,1,358,185C358.47,184.7,358.89,184.94,358.89,185.54Z"></path><path class="cls-5" d="M361.9,183.8a2.06,2.06,0,0,1-.93,1.62c-.52.3-.94.06-.94-.54a2.08,2.08,0,0,1,.94-1.62C361.48,183,361.9,183.21,361.9,183.8Z"></path><path class="cls-4" d="M336.53,183.75l-10.84-6.26c-.66-.38-.58-1.05.19-1.49l10.46-6a2.9,2.9,0,0,1,2.59-.11l10.83,6.25c.67.39.59,1.06-.18,1.5l-10.46,6A2.9,2.9,0,0,1,336.53,183.75Z"></path><path class="cls-5" d="M337.56,178.51l-1.5-.86c-.09-.06-.08-.15,0-.21l1.45-.84a.41.41,0,0,1,.36,0l1.49.86c.1.06.08.15,0,.21l-1.45.84A.41.41,0,0,1,337.56,178.51Z"></path><path class="cls-3" d="M325.69,177.49l0,0,.15-.11,10.46-6a2.87,2.87,0,0,1,2.59-.11l10.8,6.23c.62-.43.65-1,0-1.39l-10.83-6.25a2.9,2.9,0,0,0-2.59.11l-10.46,6C325.11,176.44,325,177.11,325.69,177.49Z"></path><path class="cls-3" d="M150.85,186.64h0V80.08L193.21,69,201,64.49a7.78,7.78,0,0,1,7,.29l7.28,4.2h22.6l-6.69,102.87a2,2,0,0,1-1.2,1.87l-42.28,31.9a7.78,7.78,0,0,1-7-.29l-28.18-16.27A2.78,2.78,0,0,1,150.85,186.64Z"></path><path class="cls-5" d="M204.26,63.8a8,8,0,0,1,3.74,1l7.28,4.2h22.6V175.81a2,2,0,0,1-1.2,1.88l-49,27.92a6.38,6.38,0,0,1-3.24.69L184,98.79Z"></path><path class="cls-4" d="M187.26,205.83a8,8,0,0,1-5.58-.07V97.52h5.58Z"></path><path class="cls-5" d="M187.71,98.8l49-27.92c1.79-1,1.56-2.84-.5-4L208,50.58a7.78,7.78,0,0,0-7-.29l-49,27.92c-1.79,1-1.56,2.84.5,4l28.18,16.26A7.74,7.74,0,0,0,187.71,98.8Z"></path><path class="cls-7" d="M152.55,80.26l28.18,16.27a7.78,7.78,0,0,0,7,.29l49-27.92a2.68,2.68,0,0,0,.89-.79,1.87,1.87,0,0,1-.89,2.77l-49,27.92a7.74,7.74,0,0,1-7-.29L152.55,82.25c-1.6-.93-2.09-2.23-1.39-3.25A3.84,3.84,0,0,0,152.55,80.26Z"></path><path class="cls-1" d="M186.33,87.49l32.6-18.9c.83-.49.73-1.33-.24-1.89l-13.18-7.61a3.64,3.64,0,0,0-3.27-.14l-32.6,18.9c-.84.48-.73,1.33.23,1.89l13.19,7.61A3.64,3.64,0,0,0,186.33,87.49Z"></path><path class="cls-5" d="M203.93,69.44l1.89-1.09c.11-.07.1-.19,0-.26L204,67a.55.55,0,0,0-.45,0l-1.89,1.09c-.12.07-.1.19,0,.27l1.82,1A.53.53,0,0,0,203.93,69.44Z"></path><path class="cls-5" d="M197.62,73.07,199.5,72c.12-.07.11-.19,0-.27l-1.82-1a.51.51,0,0,0-.45,0l-1.89,1.09c-.12.07-.1.19,0,.26l1.82,1.06A.57.57,0,0,0,197.62,73.07Z"></path><path class="cls-5" d="M191.3,76.69l1.89-1.09c.12-.06.11-.18,0-.26l-1.82-1a.48.48,0,0,0-.45,0L189,75.36c-.12.07-.11.19,0,.26l1.82,1.06A.51.51,0,0,0,191.3,76.69Z"></path><path class="cls-5" d="M185,80.32l1.89-1.09c.12-.06.1-.18,0-.26l-1.82-1a.5.5,0,0,0-.46,0L182.69,79c-.12.07-.11.18,0,.26l1.82,1A.48.48,0,0,0,185,80.32Z"></path><path class="cls-4" d="M218.93,68.59l0,0c-.07,0-.12-.09-.2-.13l-13.18-7.62a3.67,3.67,0,0,0-3.27-.13L169.68,79.6c-.77-.55-.81-1.3,0-1.75L202.24,59a3.64,3.64,0,0,1,3.27.14l13.18,7.61C219.66,67.26,219.76,68.1,218.93,68.59Z"></path><path class="cls-8" d="M175.23,119.91,156.69,109.3a4.53,4.53,0,0,1-1.89-3.61V99.06c0-1.39.85-2,1.89-1.42l18.54,10.61a4.52,4.52,0,0,1,1.88,3.61v6.62C177.11,119.88,176.27,120.51,175.23,119.91Z"></path><path class="cls-6" d="M155.77,97.44a1.83,1.83,0,0,0-.47,1.37v6.63a4.51,4.51,0,0,0,1.89,3.61l18.53,10.61a1.32,1.32,0,0,0,.92.2,1.11,1.11,0,0,1-1.41,0L156.69,109.3a4.53,4.53,0,0,1-1.89-3.61V99.06C154.8,98.12,155.2,97.53,155.77,97.44Z"></path><path class="cls-3" d="M169.65,112.71l-1.7-1a1,1,0,0,1-.41-.79v-1.81c0-.31.18-.44.41-.31l1.7,1a1,1,0,0,1,.41.78v1.82C170.06,112.7,169.88,112.84,169.65,112.71Z"></path><path class="cls-6" d="M164,109.43l-1.7-1a1,1,0,0,1-.42-.79v-1.81c0-.31.19-.45.42-.32l1.7,1a1,1,0,0,1,.41.78v1.82C164.38,109.42,164.19,109.56,164,109.43Z"></path><path class="cls-1" d="M175.23,167.81,156.69,157.2a4.55,4.55,0,0,1-1.89-3.61V147c0-1.39.85-2,1.89-1.43l18.54,10.61a4.54,4.54,0,0,1,1.88,3.61v6.63C177.11,167.77,176.27,168.41,175.23,167.81Z"></path><path class="cls-6" d="M155.77,145.33a1.88,1.88,0,0,0-.47,1.38v6.63a4.51,4.51,0,0,0,1.89,3.61l18.53,10.61a1.37,1.37,0,0,0,.92.2,1.11,1.11,0,0,1-1.41.05L156.69,157.2a4.55,4.55,0,0,1-1.89-3.61V147C154.8,146,155.2,145.43,155.77,145.33Z"></path><path class="cls-3" d="M169.65,160.61l-1.7-1a1,1,0,0,1-.41-.79V157c0-.3.18-.44.41-.31l1.7,1a1,1,0,0,1,.41.78v1.82C170.06,160.6,169.88,160.74,169.65,160.61Z"></path><path class="cls-6" d="M164,157.33l-1.7-1a1,1,0,0,1-.42-.78v-1.82c0-.3.19-.44.42-.31l1.7,1a1,1,0,0,1,.41.79V157C164.38,157.32,164.19,157.46,164,157.33Z"></path><path class="cls-1" d="M175.23,191.76l-18.54-10.61a4.55,4.55,0,0,1-1.89-3.61v-6.63c0-1.39.85-2,1.89-1.43l18.54,10.61a4.54,4.54,0,0,1,1.88,3.61v6.63C177.11,191.72,176.27,192.36,175.23,191.76Z"></path><path class="cls-6" d="M155.77,169.28a1.86,1.86,0,0,0-.47,1.38v6.63a4.52,4.52,0,0,0,1.89,3.61l18.53,10.61a1.37,1.37,0,0,0,.92.2,1.13,1.13,0,0,1-1.41,0l-18.54-10.61a4.55,4.55,0,0,1-1.89-3.61v-6.63C154.8,170,155.2,169.38,155.77,169.28Z"></path><path class="cls-3" d="M169.65,184.56l-1.7-1a1,1,0,0,1-.41-.79V181c0-.3.18-.44.41-.31l1.7,1a1,1,0,0,1,.41.79v1.82C170.06,184.55,169.88,184.69,169.65,184.56Z"></path><path class="cls-6" d="M164,181.28l-1.7-1a1,1,0,0,1-.42-.78v-1.82c0-.3.19-.44.42-.31l1.7,1a1,1,0,0,1,.41.79V181C164.38,181.27,164.19,181.41,164,181.28Z"></path><path class="cls-8" d="M175.23,143.86l-18.54-10.61a4.53,4.53,0,0,1-1.89-3.61V123c0-1.39.85-2,1.89-1.43l18.54,10.62a4.51,4.51,0,0,1,1.88,3.6v6.63C177.11,143.82,176.27,144.46,175.23,143.86Z"></path><path class="cls-6" d="M155.77,121.38a1.88,1.88,0,0,0-.47,1.38v6.63a4.51,4.51,0,0,0,1.89,3.61l18.53,10.61a1.32,1.32,0,0,0,.92.2,1.11,1.11,0,0,1-1.41.05l-18.54-10.61a4.53,4.53,0,0,1-1.89-3.61V123C154.8,122.07,155.2,121.48,155.77,121.38Z"></path><path class="cls-3" d="M169.65,136.66l-1.7-1a1,1,0,0,1-.41-.79v-1.81c0-.31.18-.45.41-.32l1.7,1a1,1,0,0,1,.41.78v1.82C170.06,136.65,169.88,136.79,169.65,136.66Z"></path><path class="cls-6" d="M164,133.38l-1.7-1a1,1,0,0,1-.42-.79v-1.82c0-.3.19-.44.42-.31l1.7,1a1,1,0,0,1,.41.79v1.82C164.38,133.37,164.19,133.51,164,133.38Z"></path><path class="cls-4" d="M191.28,113.13,234,88.44a4.14,4.14,0,0,0,1.73-3.31V77c0-1.27-.77-1.86-1.73-1.31l-42.76,24.69a4.14,4.14,0,0,0-1.73,3.31v8.16C189.55,113.09,190.32,113.68,191.28,113.13Z"></path><path class="cls-9" d="M192.51,110.27,232.81,87a2.1,2.1,0,0,0,.88-1.68V79.19c0-.65-.39-1-.88-.67l-40.3,23.27a2.1,2.1,0,0,0-.88,1.68v6.13C191.63,110.25,192,110.55,192.51,110.27Z"></path><path class="cls-5" d="M224.41,88.75l6-3.48a2,2,0,0,0,.85-1.63h0c0-.63-.38-.91-.85-.64l-6,3.47a2,2,0,0,0-.85,1.63h0C223.56,88.73,223.94,89,224.41,88.75Z"></path><path class="cls-8" d="M219.29,90.57c0,.63.44.88,1,.57a2.18,2.18,0,0,0,1-1.71c0-.63-.44-.88-1-.57A2.2,2.2,0,0,0,219.29,90.57Z"></path><path class="cls-8" d="M215.81,92.58c0,.63.44.88,1,.57a2.2,2.2,0,0,0,1-1.71c0-.63-.44-.89-1-.57A2.16,2.16,0,0,0,215.81,92.58Z"></path><path class="cls-5" d="M212.33,94.58c0,.63.44.89,1,.57a2.16,2.16,0,0,0,1-1.7c0-.63-.44-.89-1-.57A2.16,2.16,0,0,0,212.33,94.58Z"></path><path class="cls-8" d="M208.85,96.59c0,.63.44.89,1,.57a2.19,2.19,0,0,0,1-1.71c0-.62-.45-.88-1-.56A2.15,2.15,0,0,0,208.85,96.59Z"></path><path class="cls-8" d="M194.2,106.85l2-1.17a1.31,1.31,0,0,0,.55-1v-2.15c0-.4-.25-.59-.55-.41l-2,1.17a1.31,1.31,0,0,0-.55,1v2.14C193.65,106.84,193.9,107,194.2,106.85Z"></path><path class="cls-4" d="M191.28,127.51,234,102.82a4.16,4.16,0,0,0,1.73-3.31V91.35c0-1.27-.77-1.86-1.73-1.31l-42.76,24.69a4.14,4.14,0,0,0-1.73,3.31v8.16C189.55,127.47,190.32,128.06,191.28,127.51Z"></path><path class="cls-9" d="M192.51,124.65l40.3-23.27a2.1,2.1,0,0,0,.88-1.68V93.57c0-.65-.39-.95-.88-.67l-40.3,23.27a2.09,2.09,0,0,0-.88,1.68V124C191.63,124.63,192,124.93,192.51,124.65Z"></path><path class="cls-5" d="M224.41,103.13l6-3.48a2,2,0,0,0,.85-1.63h0c0-.63-.38-.92-.85-.64l-6,3.47a2,2,0,0,0-.85,1.63h0C223.56,103.11,223.94,103.4,224.41,103.13Z"></path><path class="cls-6" d="M219.29,105c0,.63.44.88,1,.57a2.18,2.18,0,0,0,1-1.71c0-.63-.44-.88-1-.57A2.18,2.18,0,0,0,219.29,105Z"></path><path class="cls-8" d="M215.81,107c0,.62.44.88,1,.56a2.16,2.16,0,0,0,1-1.7c0-.63-.44-.89-1-.57A2.16,2.16,0,0,0,215.81,107Z"></path><path class="cls-5" d="M212.33,109c0,.63.44.89,1,.57a2.18,2.18,0,0,0,1-1.7c0-.63-.44-.89-1-.57A2.15,2.15,0,0,0,212.33,109Z"></path><path class="cls-8" d="M208.85,111c0,.63.44.89,1,.57a2.19,2.19,0,0,0,1-1.71c0-.63-.45-.88-1-.57A2.18,2.18,0,0,0,208.85,111Z"></path><path class="cls-8" d="M194.2,121.23l2-1.17a1.31,1.31,0,0,0,.55-1v-2.15c0-.4-.25-.59-.55-.41l-2,1.17a1.31,1.31,0,0,0-.55,1.05v2.14C193.65,121.22,193.9,121.41,194.2,121.23Z"></path><path class="cls-4" d="M191.28,141.88,234,117.2a4.16,4.16,0,0,0,1.73-3.32v-8.15c0-1.28-.77-1.86-1.73-1.31l-42.76,24.69a4.13,4.13,0,0,0-1.73,3.31v8.15C189.55,141.85,190.32,142.44,191.28,141.88Z"></path><path class="cls-9" d="M192.51,139l40.3-23.28a2.09,2.09,0,0,0,.88-1.68v-6.13c0-.64-.39-.94-.88-.66l-40.3,23.27a2.09,2.09,0,0,0-.88,1.68v6.13C191.63,139,192,139.31,192.51,139Z"></path><path class="cls-5" d="M224.41,117.51l6-3.48a2,2,0,0,0,.85-1.63h0c0-.63-.38-.92-.85-.64l-6,3.47a2,2,0,0,0-.85,1.63h0C223.56,117.49,223.94,117.78,224.41,117.51Z"></path><path class="cls-6" d="M219.29,119.33c0,.62.44.88,1,.57a2.18,2.18,0,0,0,1-1.71c0-.63-.44-.89-1-.57A2.18,2.18,0,0,0,219.29,119.33Z"></path><path class="cls-1" d="M215.81,121.33c0,.63.44.89,1,.57a2.18,2.18,0,0,0,1-1.7c0-.63-.44-.89-1-.57A2.16,2.16,0,0,0,215.81,121.33Z"></path><path class="cls-5" d="M212.33,123.34c0,.63.44.89,1,.57a2.18,2.18,0,0,0,1-1.71c0-.62-.44-.88-1-.57A2.18,2.18,0,0,0,212.33,123.34Z"></path><path class="cls-8" d="M208.85,125.35c0,.63.44.88,1,.57a2.19,2.19,0,0,0,1-1.71c0-.63-.45-.88-1-.57A2.18,2.18,0,0,0,208.85,125.35Z"></path><path class="cls-8" d="M194.2,135.61l2-1.17a1.31,1.31,0,0,0,.55-1v-2.15c0-.4-.25-.59-.55-.41l-2,1.17a1.31,1.31,0,0,0-.55,1v2.15C193.65,135.6,193.9,135.79,194.2,135.61Z"></path><path class="cls-4" d="M191.28,156.26,234,131.57a4.13,4.13,0,0,0,1.73-3.31v-8.15c0-1.28-.77-1.86-1.73-1.31l-42.76,24.69a4.13,4.13,0,0,0-1.73,3.31V155C189.55,156.23,190.32,156.82,191.28,156.26Z"></path><path class="cls-9" d="M192.51,153.4l40.3-23.27a2.09,2.09,0,0,0,.88-1.68v-6.13c0-.64-.39-.94-.88-.66l-40.3,23.27a2.09,2.09,0,0,0-.88,1.68v6.13C191.63,153.39,192,153.68,192.51,153.4Z"></path><path class="cls-5" d="M224.41,131.88l6-3.47a2,2,0,0,0,.85-1.63h0c0-.63-.38-.92-.85-.65l-6,3.48a2,2,0,0,0-.85,1.63h0C223.56,131.87,223.94,132.16,224.41,131.88Z"></path><path class="cls-1" d="M219.29,133.7c0,.63.44.89,1,.57a2.15,2.15,0,0,0,1-1.7c0-.63-.44-.89-1-.57A2.18,2.18,0,0,0,219.29,133.7Z"></path><path class="cls-1" d="M215.81,135.71c0,.63.44.89,1,.57a2.18,2.18,0,0,0,1-1.71c0-.62-.44-.88-1-.56A2.15,2.15,0,0,0,215.81,135.71Z"></path><path class="cls-5" d="M212.33,137.72c0,.63.44.88,1,.57a2.18,2.18,0,0,0,1-1.71c0-.63-.44-.88-1-.57A2.18,2.18,0,0,0,212.33,137.72Z"></path><path class="cls-8" d="M208.85,139.73c0,.63.44.88,1,.57a2.21,2.21,0,0,0,1-1.71c0-.63-.45-.88-1-.57A2.18,2.18,0,0,0,208.85,139.73Z"></path><path class="cls-5" d="M194.2,150l2-1.17a1.31,1.31,0,0,0,.55-1v-2.14c0-.4-.25-.59-.55-.41l-2,1.17a1.31,1.31,0,0,0-.55,1v2.15C193.65,150,193.9,150.17,194.2,150Z"></path><path class="cls-4" d="M191.28,170.64,234,146a4.13,4.13,0,0,0,1.73-3.31v-8.15c0-1.28-.77-1.86-1.73-1.31l-42.76,24.69a4.13,4.13,0,0,0-1.73,3.31v8.15C189.55,170.61,190.32,171.19,191.28,170.64Z"></path><path class="cls-9" d="M192.51,167.78l40.3-23.27a2.09,2.09,0,0,0,.88-1.68V136.7c0-.65-.39-.94-.88-.66l-40.3,23.27a2.09,2.09,0,0,0-.88,1.68v6.13C191.63,167.77,192,168.06,192.51,167.78Z"></path><path class="cls-5" d="M224.41,146.26l6-3.47a2,2,0,0,0,.85-1.63h0c0-.63-.38-.92-.85-.65l-6,3.48a2,2,0,0,0-.85,1.63h0C223.56,146.25,223.94,146.53,224.41,146.26Z"></path><path class="cls-1" d="M219.29,148.08c0,.63.44.89,1,.57a2.16,2.16,0,0,0,1-1.7c0-.63-.44-.89-1-.57A2.16,2.16,0,0,0,219.29,148.08Z"></path><path class="cls-6" d="M215.81,150.09c0,.63.44.89,1,.57a2.18,2.18,0,0,0,1-1.71c0-.63-.44-.88-1-.57A2.18,2.18,0,0,0,215.81,150.09Z"></path><path class="cls-5" d="M212.33,152.1c0,.63.44.88,1,.57a2.2,2.2,0,0,0,1-1.71c0-.63-.44-.88-1-.57A2.18,2.18,0,0,0,212.33,152.1Z"></path><path class="cls-6" d="M208.85,154.11c0,.63.44.88,1,.57a2.21,2.21,0,0,0,1-1.71c0-.63-.45-.88-1-.57A2.16,2.16,0,0,0,208.85,154.11Z"></path><path class="cls-5" d="M194.2,164.37l2-1.17a1.33,1.33,0,0,0,.55-1V160c0-.4-.25-.59-.55-.42l-2,1.17a1.34,1.34,0,0,0-.55,1.05V164C193.65,164.36,193.9,164.54,194.2,164.37Z"></path><path class="cls-4" d="M191.28,185,234,160.33a4.13,4.13,0,0,0,1.73-3.31v-8.15c0-1.28-.77-1.87-1.73-1.31l-42.76,24.69a4.13,4.13,0,0,0-1.73,3.31v8.15C189.55,185,190.32,185.57,191.28,185Z"></path><path class="cls-9" d="M192.51,182.16l40.3-23.27a2.09,2.09,0,0,0,.88-1.68v-6.13c0-.65-.39-.94-.88-.66l-40.3,23.27a2.09,2.09,0,0,0-.88,1.68v6.13C191.63,182.14,192,182.44,192.51,182.16Z"></path><path class="cls-5" d="M224.41,160.64l6-3.47a2,2,0,0,0,.85-1.63h0c0-.63-.38-.92-.85-.65l-6,3.47a2.07,2.07,0,0,0-.85,1.64h0C223.56,160.62,223.94,160.91,224.41,160.64Z"></path><path class="cls-1" d="M219.29,162.46c0,.63.44.89,1,.57a2.16,2.16,0,0,0,1-1.71c0-.62-.44-.88-1-.57A2.2,2.2,0,0,0,219.29,162.46Z"></path><path class="cls-1" d="M215.81,164.47c0,.63.44.88,1,.57a2.18,2.18,0,0,0,1-1.71c0-.63-.44-.88-1-.57A2.18,2.18,0,0,0,215.81,164.47Z"></path><path class="cls-5" d="M212.33,166.48c0,.63.44.88,1,.57a2.2,2.2,0,0,0,1-1.71c0-.63-.44-.88-1-.57A2.18,2.18,0,0,0,212.33,166.48Z"></path><path class="cls-1" d="M208.85,168.49c0,.63.44.88,1,.57a2.21,2.21,0,0,0,1-1.71c0-.63-.45-.89-1-.57A2.16,2.16,0,0,0,208.85,168.49Z"></path><path class="cls-1" d="M194.2,178.75l2-1.17a1.34,1.34,0,0,0,.55-1.05v-2.14c0-.41-.25-.59-.55-.42l-2,1.17a1.34,1.34,0,0,0-.55,1.05v2.14C193.65,178.74,193.9,178.92,194.2,178.75Z"></path><path class="cls-4" d="M191.28,199.4,234,174.71a4.13,4.13,0,0,0,1.73-3.31v-8.15c0-1.28-.77-1.87-1.73-1.31l-42.76,24.68a4.16,4.16,0,0,0-1.73,3.32v8.15C189.55,199.37,190.32,200,191.28,199.4Z"></path><path class="cls-9" d="M192.51,196.54l40.3-23.27a2.09,2.09,0,0,0,.88-1.68v-6.13c0-.65-.39-1-.88-.67l-40.3,23.28a2.09,2.09,0,0,0-.88,1.68v6.13C191.63,196.52,192,196.82,192.51,196.54Z"></path><path class="cls-5" d="M224.41,175l6-3.47a2.07,2.07,0,0,0,.85-1.63h0c0-.63-.38-.92-.85-.65l-6,3.47a2.07,2.07,0,0,0-.85,1.63h0C223.56,175,223.94,175.29,224.41,175Z"></path><path class="cls-6" d="M218.19,177.62c0,1.19.83,1.67,1.86,1.07a4.09,4.09,0,0,0,1.86-3.22c0-1.19-.83-1.67-1.86-1.08A4.12,4.12,0,0,0,218.19,177.62Z"></path><path class="cls-1" d="M211,181.83c0,.63.45.89,1,.57a2.19,2.19,0,0,0,1-1.7c0-.63-.45-.89-1-.57A2.19,2.19,0,0,0,211,181.83Z"></path><path class="cls-5" d="M207.51,183.84c0,.63.44.89,1,.57a2.16,2.16,0,0,0,1-1.71c0-.62-.44-.88-1-.56A2.16,2.16,0,0,0,207.51,183.84Z"></path><path class="cls-1" d="M204,185.85c0,.63.44.88,1,.57a2.16,2.16,0,0,0,1-1.71c0-.63-.44-.88-1-.57A2.2,2.2,0,0,0,204,185.85Z"></path><path class="cls-5" d="M194.2,193.13l2-1.17a1.34,1.34,0,0,0,.55-1.05v-2.14c0-.41-.25-.59-.55-.42l-2,1.17a1.34,1.34,0,0,0-.55,1v2.14C193.65,193.12,193.9,193.3,194.2,193.13Z"></path><path class="cls-3" d="M72.27,231.88h0V125.32l42.36-11.08,7.8-4.51a7.8,7.8,0,0,1,7,.29l7.28,4.2h22.59L152.6,217.08a2,2,0,0,1-1.2,1.87l-42.27,31.89a7.76,7.76,0,0,1-7-.28L74,234.29C72.78,233.6,72.2,232.71,72.27,231.88Z"></path><path class="cls-5" d="M125.67,109a8,8,0,0,1,3.75,1l7.28,4.2h22.59V221.05a2,2,0,0,1-1.2,1.87l-49,27.92a6.28,6.28,0,0,1-3.24.7L105.38,144Z"></path><path class="cls-4" d="M108.68,251.06a7.89,7.89,0,0,1-5.58-.06V142.76h5.58Z"></path><path class="cls-5" d="M109.13,144l49-27.92c1.79-1,1.57-2.84-.5-4L129.42,95.82a7.8,7.8,0,0,0-7-.29l-49,27.92c-1.79,1-1.57,2.84.5,4l28.17,16.27A7.8,7.8,0,0,0,109.13,144Z"></path><path class="cls-7" d="M74,125.5l28.17,16.27a7.8,7.8,0,0,0,7,.29l49-27.92a2.72,2.72,0,0,0,.9-.79,1.88,1.88,0,0,1-.9,2.77l-49,27.92a7.8,7.8,0,0,1-7-.29L74,127.48c-1.61-.92-2.09-2.22-1.39-3.24A3.84,3.84,0,0,0,74,125.5Z"></path><path class="cls-1" d="M107.74,132.72l32.6-18.89c.84-.49.74-1.33-.23-1.89l-13.18-7.61a3.64,3.64,0,0,0-3.27-.14l-32.6,18.9c-.84.48-.74,1.33.23,1.89l13.19,7.61A3.59,3.59,0,0,0,107.74,132.72Z"></path><path class="cls-5" d="M125.34,114.68l1.89-1.09c.12-.07.1-.19,0-.27l-1.82-1a.53.53,0,0,0-.46,0L123,113.34c-.12.07-.11.19,0,.26l1.82,1.06A.55.55,0,0,0,125.34,114.68Z"></path><path class="cls-5" d="M119,118.3l1.89-1.09c.12-.06.1-.18,0-.26l-1.82-1a.5.5,0,0,0-.46,0L116.72,117c-.11.07-.1.19,0,.26l1.82,1.06A.51.51,0,0,0,119,118.3Z"></path><path class="cls-5" d="M112.72,121.93l1.89-1.09c.12-.06.1-.18,0-.26l-1.83-1a.48.48,0,0,0-.45,0l-1.89,1.09c-.11.07-.1.18,0,.26l1.82,1A.48.48,0,0,0,112.72,121.93Z"></path><path class="cls-5" d="M106.41,125.56l1.89-1.09c.12-.07.1-.18,0-.26l-1.83-1a.48.48,0,0,0-.45,0l-1.89,1.09c-.11.07-.1.18,0,.26l1.83,1.05A.48.48,0,0,0,106.41,125.56Z"></path><path class="cls-4" d="M140.34,113.83l0,0-.2-.14-13.18-7.61a3.61,3.61,0,0,0-3.27-.13L91.1,124.84c-.78-.55-.82-1.3,0-1.75l32.6-18.9a3.64,3.64,0,0,1,3.27.14l13.18,7.61C141.08,112.5,141.18,113.34,140.34,113.83Z"></path><path class="cls-8" d="M96.64,165.15,78.11,154.54a4.51,4.51,0,0,1-1.89-3.61V144.3c0-1.39.84-2,1.89-1.43l18.53,10.62a4.49,4.49,0,0,1,1.89,3.6v6.63C98.53,165.11,97.69,165.75,96.64,165.15Z"></path><path class="cls-6" d="M77.19,142.67a1.88,1.88,0,0,0-.47,1.38v6.63a4.52,4.52,0,0,0,1.88,3.61L97.14,164.9a1.3,1.3,0,0,0,.92.2,1.13,1.13,0,0,1-1.42.05L78.11,154.54a4.51,4.51,0,0,1-1.89-3.61V144.3C76.22,143.36,76.61,142.77,77.19,142.67Z"></path><path class="cls-3" d="M91.07,158l-1.7-1a1,1,0,0,1-.41-.79v-1.81c0-.31.18-.45.41-.32l1.7,1a1,1,0,0,1,.41.78v1.82C91.48,157.94,91.3,158.08,91.07,158Z"></path><path class="cls-6" d="M85.38,154.67l-1.7-1a1,1,0,0,1-.41-.79v-1.82c0-.3.19-.44.41-.31l1.7,1a1,1,0,0,1,.41.79v1.82C85.79,154.66,85.61,154.8,85.38,154.67Z"></path><path class="cls-8" d="M96.64,213.05,78.11,202.44a4.52,4.52,0,0,1-1.89-3.61V192.2c0-1.39.84-2,1.89-1.43l18.53,10.61A4.52,4.52,0,0,1,98.53,205v6.63C98.53,213,97.69,213.65,96.64,213.05Z"></path><path class="cls-6" d="M77.19,190.57a1.86,1.86,0,0,0-.47,1.38v6.63a4.54,4.54,0,0,0,1.88,3.61L97.14,212.8a1.35,1.35,0,0,0,.92.2,1.14,1.14,0,0,1-1.42.05L78.11,202.44a4.52,4.52,0,0,1-1.89-3.61V192.2C76.22,191.25,76.61,190.67,77.19,190.57Z"></path><path class="cls-3" d="M91.07,205.85l-1.7-1a1,1,0,0,1-.41-.79v-1.82c0-.3.18-.44.41-.31l1.7,1a1,1,0,0,1,.41.79v1.82C91.48,205.84,91.3,206,91.07,205.85Z"></path><path class="cls-6" d="M85.38,202.56l-1.7-1a1,1,0,0,1-.41-.78V199c0-.3.19-.44.41-.31l1.7,1a1,1,0,0,1,.41.79v1.81C85.79,202.56,85.61,202.7,85.38,202.56Z"></path><path class="cls-8" d="M96.64,237,78.11,226.38a4.49,4.49,0,0,1-1.89-3.6v-6.63c0-1.39.84-2,1.89-1.43l18.53,10.61a4.51,4.51,0,0,1,1.89,3.61v6.63C98.53,237,97.69,237.6,96.64,237Z"></path><path class="cls-6" d="M77.19,214.52a1.84,1.84,0,0,0-.47,1.38v6.63a4.54,4.54,0,0,0,1.88,3.61l18.54,10.61a1.41,1.41,0,0,0,.92.2,1.15,1.15,0,0,1-1.42.05L78.11,226.38a4.49,4.49,0,0,1-1.89-3.6v-6.63C76.22,215.2,76.61,214.62,77.19,214.52Z"></path><path class="cls-3" d="M91.07,229.8l-1.7-1A1,1,0,0,1,89,228v-1.82c0-.3.18-.44.41-.31l1.7,1a1,1,0,0,1,.41.79v1.81C91.48,229.79,91.3,229.93,91.07,229.8Z"></path><path class="cls-6" d="M85.38,226.51l-1.7-1a1,1,0,0,1-.41-.78v-1.82c0-.3.19-.44.41-.31l1.7,1a1,1,0,0,1,.41.79v1.81C85.79,226.51,85.61,226.64,85.38,226.51Z"></path><path class="cls-8" d="M96.64,189.1,78.11,178.49a4.52,4.52,0,0,1-1.89-3.61v-6.63c0-1.39.84-2,1.89-1.43l18.53,10.61A4.52,4.52,0,0,1,98.53,181v6.63C98.53,189.06,97.69,189.7,96.64,189.1Z"></path><path class="cls-6" d="M77.19,166.62a1.88,1.88,0,0,0-.47,1.38v6.63a4.52,4.52,0,0,0,1.88,3.61l18.54,10.61a1.35,1.35,0,0,0,.92.2,1.13,1.13,0,0,1-1.42,0L78.11,178.49a4.52,4.52,0,0,1-1.89-3.61v-6.63C76.22,167.31,76.61,166.72,77.19,166.62Z"></path><path class="cls-3" d="M91.07,181.9l-1.7-1a1,1,0,0,1-.41-.79v-1.82c0-.3.18-.44.41-.31l1.7,1a1,1,0,0,1,.41.79v1.82C91.48,181.89,91.3,182,91.07,181.9Z"></path><path class="cls-6" d="M85.38,178.62l-1.7-1a1,1,0,0,1-.41-.78V175c0-.3.19-.44.41-.31l1.7,1a1,1,0,0,1,.41.79v1.82C85.79,178.61,85.61,178.75,85.38,178.62Z"></path><path class="cls-4" d="M112.7,158.37l42.76-24.69a4.16,4.16,0,0,0,1.73-3.31v-8.16c0-1.27-.77-1.86-1.73-1.31L112.7,145.59A4.15,4.15,0,0,0,111,148.9v8.16C111,158.33,111.74,158.92,112.7,158.37Z"></path><path class="cls-9" d="M113.92,155.51l40.31-23.27a2.1,2.1,0,0,0,.88-1.68v-6.13c0-.65-.39-1-.88-.67L113.92,147a2.12,2.12,0,0,0-.88,1.68v6.13C113,155.49,113.44,155.79,113.92,155.51Z"></path><path class="cls-5" d="M145.83,134l6-3.48a2,2,0,0,0,.85-1.63h0c0-.63-.38-.92-.85-.64l-6,3.47a2,2,0,0,0-.85,1.63h0C145,134,145.36,134.26,145.83,134Z"></path><path class="cls-8" d="M140.7,135.81c0,.63.45.88,1,.57a2.18,2.18,0,0,0,1-1.71c0-.63-.44-.88-1-.57A2.19,2.19,0,0,0,140.7,135.81Z"></path><path class="cls-8" d="M137.23,137.82c0,.62.44.88,1,.56a2.15,2.15,0,0,0,1-1.7c0-.63-.44-.89-1-.57A2.18,2.18,0,0,0,137.23,137.82Z"></path><path class="cls-5" d="M133.75,139.82c0,.63.44.89,1,.57a2.16,2.16,0,0,0,1-1.71c0-.62-.44-.88-1-.56A2.16,2.16,0,0,0,133.75,139.82Z"></path><path class="cls-8" d="M130.27,141.83c0,.63.44.88,1,.57a2.18,2.18,0,0,0,1-1.71c0-.63-.44-.88-1-.57A2.18,2.18,0,0,0,130.27,141.83Z"></path><path class="cls-8" d="M115.62,152.09l2-1.17a1.3,1.3,0,0,0,.54-1v-2.15c0-.4-.24-.59-.54-.41l-2,1.17a1.31,1.31,0,0,0-.55,1v2.15C115.07,152.08,115.32,152.27,115.62,152.09Z"></path><path class="cls-4" d="M112.7,172.74l42.76-24.68a4.16,4.16,0,0,0,1.73-3.32v-8.15c0-1.28-.77-1.86-1.73-1.31L112.7,160a4.14,4.14,0,0,0-1.74,3.31v8.15C111,172.71,111.74,173.3,112.7,172.74Z"></path><path class="cls-9" d="M113.92,169.89l40.31-23.28a2.09,2.09,0,0,0,.88-1.68V138.8c0-.64-.39-.94-.88-.66l-40.31,23.27a2.12,2.12,0,0,0-.88,1.68v6.13C113,169.87,113.44,170.17,113.92,169.89Z"></path><path class="cls-5" d="M145.83,148.36l6-3.47a2,2,0,0,0,.85-1.63h0c0-.63-.38-.92-.85-.64l-6,3.47a2,2,0,0,0-.85,1.63h0C145,148.35,145.36,148.64,145.83,148.36Z"></path><path class="cls-6" d="M140.7,150.19c0,.62.45.88,1,.57a2.18,2.18,0,0,0,1-1.71c0-.63-.44-.89-1-.57A2.19,2.19,0,0,0,140.7,150.19Z"></path><path class="cls-8" d="M137.23,152.19c0,.63.44.89,1,.57a2.16,2.16,0,0,0,1-1.7c0-.63-.44-.89-1-.57A2.18,2.18,0,0,0,137.23,152.19Z"></path><path class="cls-5" d="M133.75,154.2c0,.63.44.89,1,.57a2.16,2.16,0,0,0,1-1.71c0-.62-.44-.88-1-.57A2.2,2.2,0,0,0,133.75,154.2Z"></path><path class="cls-8" d="M130.27,156.21c0,.63.44.88,1,.57a2.18,2.18,0,0,0,1-1.71c0-.63-.44-.88-1-.57A2.18,2.18,0,0,0,130.27,156.21Z"></path><path class="cls-8" d="M115.62,166.47l2-1.17a1.3,1.3,0,0,0,.54-1.05v-2.14c0-.4-.24-.59-.54-.41l-2,1.17a1.31,1.31,0,0,0-.55,1v2.15C115.07,166.46,115.32,166.65,115.62,166.47Z"></path><path class="cls-4" d="M112.7,187.12l42.76-24.69a4.13,4.13,0,0,0,1.73-3.31V151c0-1.28-.77-1.86-1.73-1.31L112.7,174.35a4.14,4.14,0,0,0-1.74,3.31v8.15C111,187.09,111.74,187.68,112.7,187.12Z"></path><path class="cls-9" d="M113.92,184.26,154.23,161a2.09,2.09,0,0,0,.88-1.68v-6.13c0-.64-.39-.94-.88-.66l-40.31,23.27a2.12,2.12,0,0,0-.88,1.68v6.13C113,184.25,113.44,184.54,113.92,184.26Z"></path><path class="cls-5" d="M145.83,162.74l6-3.47a2,2,0,0,0,.85-1.63h0c0-.63-.38-.92-.85-.65l-6,3.48a2,2,0,0,0-.85,1.63h0C145,162.73,145.36,163,145.83,162.74Z"></path><path class="cls-6" d="M140.7,164.56c0,.63.45.89,1,.57a2.16,2.16,0,0,0,1-1.7c0-.63-.44-.89-1-.57A2.19,2.19,0,0,0,140.7,164.56Z"></path><path class="cls-1" d="M137.23,166.57c0,.63.44.89,1,.57a2.16,2.16,0,0,0,1-1.71c0-.62-.44-.88-1-.56A2.16,2.16,0,0,0,137.23,166.57Z"></path><path class="cls-5" d="M133.75,168.58c0,.63.44.88,1,.57a2.16,2.16,0,0,0,1-1.71c0-.63-.44-.88-1-.57A2.2,2.2,0,0,0,133.75,168.58Z"></path><path class="cls-8" d="M130.27,170.59c0,.63.44.88,1,.57a2.2,2.2,0,0,0,1-1.71c0-.63-.44-.88-1-.57A2.18,2.18,0,0,0,130.27,170.59Z"></path><path class="cls-8" d="M115.62,180.85l2-1.17a1.3,1.3,0,0,0,.54-1.05v-2.14c0-.4-.24-.59-.54-.41l-2,1.17a1.31,1.31,0,0,0-.55,1v2.15C115.07,180.84,115.32,181,115.62,180.85Z"></path><path class="cls-4" d="M112.7,201.5l42.76-24.69a4.13,4.13,0,0,0,1.73-3.31v-8.15c0-1.28-.77-1.86-1.73-1.31L112.7,188.73A4.14,4.14,0,0,0,111,192v8.15C111,201.47,111.74,202.05,112.7,201.5Z"></path><path class="cls-9" d="M113.92,198.64l40.31-23.27a2.09,2.09,0,0,0,.88-1.68v-6.13c0-.65-.39-.94-.88-.66l-40.31,23.27a2.12,2.12,0,0,0-.88,1.68V198C113,198.63,113.44,198.92,113.92,198.64Z"></path><path class="cls-5" d="M145.83,177.12l6-3.47a2,2,0,0,0,.85-1.63h0c0-.63-.38-.92-.85-.65l-6,3.48a2,2,0,0,0-.85,1.63h0C145,177.11,145.36,177.39,145.83,177.12Z"></path><path class="cls-1" d="M140.7,178.94c0,.63.45.89,1,.57a2.16,2.16,0,0,0,1-1.7c0-.63-.44-.89-1-.57A2.17,2.17,0,0,0,140.7,178.94Z"></path><path class="cls-1" d="M137.23,181c0,.63.44.89,1,.57a2.16,2.16,0,0,0,1-1.71c0-.63-.44-.88-1-.57A2.2,2.2,0,0,0,137.23,181Z"></path><path class="cls-5" d="M133.75,183c0,.63.44.88,1,.57a2.18,2.18,0,0,0,1-1.71c0-.63-.44-.88-1-.57A2.2,2.2,0,0,0,133.75,183Z"></path><path class="cls-8" d="M130.27,185c0,.63.44.88,1,.57a2.2,2.2,0,0,0,1-1.71c0-.63-.44-.88-1-.57A2.16,2.16,0,0,0,130.27,185Z"></path><path class="cls-5" d="M115.62,195.23l2-1.17a1.32,1.32,0,0,0,.54-1.05v-2.14c0-.4-.24-.59-.54-.42l-2,1.17a1.34,1.34,0,0,0-.55,1v2.14C115.07,195.22,115.32,195.4,115.62,195.23Z"></path><path class="cls-4" d="M112.7,215.88l42.76-24.69a4.13,4.13,0,0,0,1.73-3.31v-8.15c0-1.28-.77-1.87-1.73-1.31L112.7,203.11a4.14,4.14,0,0,0-1.74,3.31v8.15C111,215.85,111.74,216.43,112.7,215.88Z"></path><path class="cls-9" d="M113.92,213l40.31-23.27a2.09,2.09,0,0,0,.88-1.68v-6.13c0-.65-.39-.94-.88-.66l-40.31,23.27a2.12,2.12,0,0,0-.88,1.68v6.13C113,213,113.44,213.3,113.92,213Z"></path><path class="cls-5" d="M145.83,191.5l6-3.47a2,2,0,0,0,.85-1.63h0c0-.63-.38-.92-.85-.65l-6,3.47a2.07,2.07,0,0,0-.85,1.64h0C145,191.48,145.36,191.77,145.83,191.5Z"></path><path class="cls-1" d="M140.7,193.32c0,.63.45.89,1,.57a2.16,2.16,0,0,0,1-1.71c0-.62-.44-.88-1-.57A2.21,2.21,0,0,0,140.7,193.32Z"></path><path class="cls-6" d="M137.23,195.33c0,.63.44.88,1,.57a2.16,2.16,0,0,0,1-1.71c0-.63-.44-.88-1-.57A2.2,2.2,0,0,0,137.23,195.33Z"></path><path class="cls-5" d="M133.75,197.34c0,.63.44.88,1,.57a2.18,2.18,0,0,0,1-1.71c0-.63-.44-.88-1-.57A2.2,2.2,0,0,0,133.75,197.34Z"></path><path class="cls-6" d="M130.27,199.35c0,.63.44.88,1,.57a2.2,2.2,0,0,0,1-1.71c0-.63-.44-.89-1-.57A2.16,2.16,0,0,0,130.27,199.35Z"></path><path class="cls-5" d="M115.62,209.61l2-1.17a1.33,1.33,0,0,0,.54-1.05v-2.14c0-.41-.24-.59-.54-.42l-2,1.17a1.34,1.34,0,0,0-.55,1.05v2.14C115.07,209.6,115.32,209.78,115.62,209.61Z"></path><path class="cls-4" d="M112.7,230.26l42.76-24.69a4.13,4.13,0,0,0,1.73-3.31v-8.15c0-1.28-.77-1.87-1.73-1.31L112.7,217.48A4.17,4.17,0,0,0,111,220.8V229C111,230.23,111.74,230.81,112.7,230.26Z"></path><path class="cls-9" d="M113.92,227.4l40.31-23.27a2.09,2.09,0,0,0,.88-1.68v-6.13c0-.65-.39-.95-.88-.67l-40.31,23.28a2.12,2.12,0,0,0-.88,1.68v6.13C113,227.38,113.44,227.68,113.92,227.4Z"></path><path class="cls-5" d="M145.83,205.88l6-3.47a2.07,2.07,0,0,0,.85-1.63h0c0-.63-.38-.92-.85-.65l-6,3.47a2.07,2.07,0,0,0-.85,1.63h0C145,205.86,145.36,206.15,145.83,205.88Z"></path><path class="cls-1" d="M140.7,207.7c0,.63.45.88,1,.57a2.16,2.16,0,0,0,1-1.71c0-.63-.44-.88-1-.57A2.21,2.21,0,0,0,140.7,207.7Z"></path><path class="cls-1" d="M137.23,209.71c0,.63.44.88,1,.57a2.18,2.18,0,0,0,1-1.71c0-.63-.44-.88-1-.57A2.2,2.2,0,0,0,137.23,209.71Z"></path><path class="cls-5" d="M133.75,211.72c0,.63.44.88,1,.57a2.18,2.18,0,0,0,1-1.71c0-.63-.44-.89-1-.57A2.18,2.18,0,0,0,133.75,211.72Z"></path><path class="cls-8" d="M130.27,213.72c0,.63.44.89,1,.57a2.16,2.16,0,0,0,1-1.7c0-.63-.44-.89-1-.57A2.16,2.16,0,0,0,130.27,213.72Z"></path><path class="cls-8" d="M115.62,224l2-1.17a1.33,1.33,0,0,0,.54-1v-2.14c0-.41-.24-.59-.54-.42l-2,1.17a1.33,1.33,0,0,0-.55,1.05v2.14C115.07,224,115.32,224.16,115.62,224Z"></path><path class="cls-4" d="M112.7,244.64,155.46,220a4.14,4.14,0,0,0,1.73-3.31v-8.16c0-1.27-.77-1.86-1.73-1.31L112.7,231.86a4.17,4.17,0,0,0-1.74,3.31v8.16C111,244.6,111.74,245.19,112.7,244.64Z"></path><path class="cls-9" d="M113.92,241.78l40.31-23.27a2.09,2.09,0,0,0,.88-1.68V210.7c0-.65-.39-.95-.88-.67L113.92,233.3A2.13,2.13,0,0,0,113,235v6.13C113,241.76,113.44,242.06,113.92,241.78Z"></path><path class="cls-5" d="M145.83,220.26l6-3.47a2.07,2.07,0,0,0,.85-1.64h0c0-.62-.38-.91-.85-.64l-6,3.47a2,2,0,0,0-.85,1.63h0C145,220.24,145.36,220.53,145.83,220.26Z"></path><path class="cls-6" d="M139.61,222.86c0,1.19.83,1.67,1.86,1.07a4.09,4.09,0,0,0,1.86-3.22c0-1.19-.83-1.67-1.86-1.08A4.12,4.12,0,0,0,139.61,222.86Z"></path><path class="cls-8" d="M132.4,227.07c0,.63.44.89,1,.57a2.18,2.18,0,0,0,1-1.71c0-.62-.44-.88-1-.56A2.15,2.15,0,0,0,132.4,227.07Z"></path><path class="cls-5" d="M128.92,229.08c0,.63.44.88,1,.57a2.19,2.19,0,0,0,1-1.71c0-.63-.45-.88-1-.57A2.18,2.18,0,0,0,128.92,229.08Z"></path><path class="cls-8" d="M125.45,231.09c0,.63.44.88,1,.57a2.18,2.18,0,0,0,1-1.71c0-.63-.44-.88-1-.57A2.2,2.2,0,0,0,125.45,231.09Z"></path><path class="cls-5" d="M115.62,238.37l2-1.17a1.33,1.33,0,0,0,.54-1V234c0-.4-.24-.58-.54-.41l-2,1.17a1.31,1.31,0,0,0-.55,1.05V238C115.07,238.35,115.32,238.54,115.62,238.37Z"></path><path class="cls-3" d="M211.71,221.65h0V115.09L254.07,104l7.8-4.5a7.73,7.73,0,0,1,7,.29l7.28,4.2h22.59L292,206.84a2,2,0,0,1-1.2,1.88l-42.27,31.89a7.73,7.73,0,0,1-7-.29l-28.17-16.26C212.22,223.37,211.64,222.48,211.71,221.65Z"></path><path class="cls-5" d="M265.12,98.81a8,8,0,0,1,3.74,1l7.28,4.2h22.59V210.82a2,2,0,0,1-1.2,1.87l-49,27.92a6.28,6.28,0,0,1-3.24.7l-.51-107.51Z"></path><path class="cls-4" d="M248.12,240.83a8,8,0,0,1-5.58-.06V132.52h5.58Z"></path><path class="cls-5" d="M248.57,133.81l49-27.92c1.8-1,1.57-2.84-.5-4L268.86,85.59a7.77,7.77,0,0,0-7-.29l-49,27.92c-1.79,1-1.57,2.84.5,4l28.17,16.27A7.8,7.8,0,0,0,248.57,133.81Z"></path><path class="cls-7" d="M213.41,115.27l28.17,16.27a7.8,7.8,0,0,0,7,.29l49-27.92a2.63,2.63,0,0,0,.9-.8,1.89,1.89,0,0,1-.9,2.78l-49,27.92a7.8,7.8,0,0,1-7-.29l-28.17-16.27c-1.61-.93-2.09-2.22-1.39-3.24A3.84,3.84,0,0,0,213.41,115.27Z"></path><path class="cls-1" d="M247.19,122.49l32.59-18.89c.84-.49.74-1.33-.23-1.89L266.37,94.1A3.64,3.64,0,0,0,263.1,94l-32.6,18.9c-.84.48-.73,1.33.23,1.89l13.19,7.61A3.61,3.61,0,0,0,247.19,122.49Z"></path><path class="cls-5" d="M264.78,104.44l1.89-1.09c.12-.06.11-.18,0-.26l-1.82-1a.5.5,0,0,0-.46,0l-1.88,1.09c-.12.07-.11.18,0,.26l1.82,1.06A.51.51,0,0,0,264.78,104.44Z"></path><path class="cls-5" d="M258.47,108.07l1.89-1.09c.12-.06.1-.18,0-.26l-1.82-1a.5.5,0,0,0-.46,0l-1.89,1.09c-.11.07-.1.18,0,.26l1.82,1A.48.48,0,0,0,258.47,108.07Z"></path><path class="cls-5" d="M252.16,111.7l1.89-1.09c.12-.07.1-.18,0-.26l-1.82-1a.5.5,0,0,0-.46,0l-1.89,1.09c-.11.07-.1.18,0,.26l1.82,1.05A.48.48,0,0,0,252.16,111.7Z"></path><path class="cls-5" d="M245.85,115.33l1.89-1.09c.12-.07.1-.18,0-.26l-1.83-1a.48.48,0,0,0-.45,0L243.54,114c-.11.06-.1.18,0,.26l1.82,1A.48.48,0,0,0,245.85,115.33Z"></path><path class="cls-4" d="M279.78,103.6l0,0-.2-.14-13.18-7.61a3.61,3.61,0,0,0-3.27-.13l-32.56,18.87c-.78-.55-.82-1.31,0-1.75L263.1,94a3.64,3.64,0,0,1,3.27.14l13.18,7.61C280.52,102.27,280.62,103.11,279.78,103.6Z"></path><path class="cls-8" d="M236.08,154.92l-18.53-10.61a4.55,4.55,0,0,1-1.89-3.61v-6.63c0-1.39.85-2,1.89-1.43l18.53,10.61a4.52,4.52,0,0,1,1.89,3.61v6.63C238,154.88,237.13,155.52,236.08,154.92Z"></path><path class="cls-6" d="M216.63,132.44a1.88,1.88,0,0,0-.47,1.38v6.63a4.51,4.51,0,0,0,1.89,3.61l18.53,10.61a1.37,1.37,0,0,0,.92.2,1.13,1.13,0,0,1-1.42,0l-18.53-10.61a4.55,4.55,0,0,1-1.89-3.61v-6.63C215.66,133.13,216.05,132.54,216.63,132.44Z"></path><path class="cls-3" d="M230.51,147.72l-1.7-1a1,1,0,0,1-.41-.79v-1.82c0-.3.18-.44.41-.31l1.7,1a1,1,0,0,1,.41.79v1.82C230.92,147.71,230.74,147.85,230.51,147.72Z"></path><path class="cls-6" d="M224.82,144.44l-1.7-1a1,1,0,0,1-.41-.78v-1.82c0-.3.19-.44.41-.31l1.7,1a1,1,0,0,1,.41.79v1.82C225.23,144.43,225.05,144.57,224.82,144.44Z"></path><path class="cls-8" d="M236.08,202.82,217.55,192.2a4.51,4.51,0,0,1-1.89-3.6V182c0-1.39.85-2,1.89-1.43l18.53,10.61a4.51,4.51,0,0,1,1.89,3.61v6.63C238,202.78,237.13,203.42,236.08,202.82Z"></path><path class="cls-6" d="M216.63,180.34a1.84,1.84,0,0,0-.47,1.38v6.63a4.52,4.52,0,0,0,1.89,3.61l18.53,10.61a1.44,1.44,0,0,0,.92.2,1.15,1.15,0,0,1-1.42,0L217.55,192.2a4.51,4.51,0,0,1-1.89-3.6V182C215.66,181,216.05,180.44,216.63,180.34Z"></path><path class="cls-3" d="M230.51,195.62l-1.7-1a1,1,0,0,1-.41-.78V192c0-.3.18-.44.41-.31l1.7,1a1,1,0,0,1,.41.79v1.81C230.92,195.61,230.74,195.75,230.51,195.62Z"></path><path class="cls-6" d="M224.82,192.33l-1.7-1a1,1,0,0,1-.41-.78v-1.82c0-.3.19-.44.41-.31l1.7,1a1,1,0,0,1,.41.79V192C225.23,192.33,225.05,192.46,224.82,192.33Z"></path><path class="cls-8" d="M236.08,226.76l-18.53-10.61a4.53,4.53,0,0,1-1.89-3.61v-6.62c0-1.4.85-2,1.89-1.43l18.53,10.61a4.51,4.51,0,0,1,1.89,3.61v6.63C238,226.73,237.13,227.37,236.08,226.76Z"></path><path class="cls-6" d="M216.63,204.29a1.84,1.84,0,0,0-.47,1.38v6.63a4.49,4.49,0,0,0,1.89,3.6l18.53,10.62a1.44,1.44,0,0,0,.92.2,1.14,1.14,0,0,1-1.42,0l-18.53-10.61a4.53,4.53,0,0,1-1.89-3.61v-6.62C215.66,205,216.05,204.39,216.63,204.29Z"></path><path class="cls-3" d="M230.51,219.56l-1.7-1a1,1,0,0,1-.41-.78V216c0-.3.18-.44.41-.31l1.7,1a1,1,0,0,1,.41.79v1.81C230.92,219.56,230.74,219.7,230.51,219.56Z"></path><path class="cls-6" d="M224.82,216.28l-1.7-1a1,1,0,0,1-.41-.79V212.7c0-.31.19-.44.41-.31l1.7,1a1,1,0,0,1,.41.78V216C225.23,216.27,225.05,216.41,224.82,216.28Z"></path><path class="cls-8" d="M236.08,178.87l-18.53-10.61a4.55,4.55,0,0,1-1.89-3.61V158c0-1.39.85-2,1.89-1.43l18.53,10.61a4.52,4.52,0,0,1,1.89,3.61v6.63C238,178.83,237.13,179.47,236.08,178.87Z"></path><path class="cls-6" d="M216.63,156.39a1.86,1.86,0,0,0-.47,1.38v6.63a4.52,4.52,0,0,0,1.89,3.61l18.53,10.61a1.37,1.37,0,0,0,.92.2,1.14,1.14,0,0,1-1.42.05l-18.53-10.61a4.55,4.55,0,0,1-1.89-3.61V158C215.66,157.07,216.05,156.49,216.63,156.39Z"></path><path class="cls-3" d="M230.51,171.67l-1.7-1a1,1,0,0,1-.41-.79v-1.82c0-.3.18-.44.41-.31l1.7,1a1,1,0,0,1,.41.79v1.82C230.92,171.66,230.74,171.8,230.51,171.67Z"></path><path class="cls-6" d="M224.82,168.38l-1.7-1a1,1,0,0,1-.41-.78V164.8c0-.3.19-.44.41-.31l1.7,1a1,1,0,0,1,.41.79v1.81C225.23,168.38,225.05,168.52,224.82,168.38Z"></path><path class="cls-4" d="M252.14,148.13l42.76-24.68a4.16,4.16,0,0,0,1.73-3.32V112c0-1.28-.77-1.86-1.73-1.31l-42.76,24.69a4.14,4.14,0,0,0-1.74,3.31v8.15C250.4,148.1,251.18,148.69,252.14,148.13Z"></path><path class="cls-9" d="M253.36,145.27,293.67,122a2.09,2.09,0,0,0,.88-1.68v-6.13c0-.64-.39-.94-.88-.66L253.36,136.8a2.11,2.11,0,0,0-.87,1.68v6.13C252.49,145.26,252.88,145.56,253.36,145.27Z"></path><path class="cls-5" d="M285.27,123.75l6-3.47a2,2,0,0,0,.85-1.63h0c0-.63-.38-.92-.85-.65l-6,3.48a2,2,0,0,0-.85,1.63h0C284.42,123.74,284.8,124,285.27,123.75Z"></path><path class="cls-8" d="M280.15,125.58c0,.62.44.88,1,.56a2.15,2.15,0,0,0,1-1.7c0-.63-.44-.89-1-.57A2.18,2.18,0,0,0,280.15,125.58Z"></path><path class="cls-8" d="M276.67,127.58c0,.63.44.89,1,.57a2.16,2.16,0,0,0,1-1.7c0-.63-.44-.89-1-.57A2.16,2.16,0,0,0,276.67,127.58Z"></path><path class="cls-5" d="M273.19,129.59c0,.63.44.89,1,.57a2.18,2.18,0,0,0,1-1.71c0-.63-.44-.88-1-.57A2.18,2.18,0,0,0,273.19,129.59Z"></path><path class="cls-8" d="M269.71,131.6c0,.63.44.88,1,.57a2.2,2.2,0,0,0,1-1.71c0-.63-.44-.88-1-.57A2.18,2.18,0,0,0,269.71,131.6Z"></path><path class="cls-8" d="M255.06,141.86l2-1.17a1.3,1.3,0,0,0,.54-1.05V137.5c0-.4-.24-.59-.54-.41l-2,1.17a1.31,1.31,0,0,0-.55,1v2.15C254.51,141.85,254.76,142,255.06,141.86Z"></path><path class="cls-4" d="M252.14,162.51l42.76-24.69a4.13,4.13,0,0,0,1.73-3.31v-8.15c0-1.28-.77-1.86-1.73-1.31l-42.76,24.69a4.14,4.14,0,0,0-1.74,3.31v8.15C250.4,162.48,251.18,163.07,252.14,162.51Z"></path><path class="cls-9" d="M253.36,159.65l40.31-23.27a2.09,2.09,0,0,0,.88-1.68v-6.13c0-.64-.39-.94-.88-.66l-40.31,23.27a2.11,2.11,0,0,0-.87,1.68V159C252.49,159.64,252.88,159.93,253.36,159.65Z"></path><path class="cls-5" d="M285.27,138.13l6-3.47a2,2,0,0,0,.85-1.63h0c0-.63-.38-.92-.85-.65l-6,3.48a2,2,0,0,0-.85,1.63h0C284.42,138.12,284.8,138.41,285.27,138.13Z"></path><path class="cls-6" d="M280.15,140c0,.63.44.89,1,.57a2.16,2.16,0,0,0,1-1.7c0-.63-.44-.89-1-.57A2.18,2.18,0,0,0,280.15,140Z"></path><path class="cls-8" d="M276.67,142c0,.63.44.89,1,.57a2.16,2.16,0,0,0,1-1.71c0-.62-.44-.88-1-.57A2.2,2.2,0,0,0,276.67,142Z"></path><path class="cls-5" d="M273.19,144c0,.63.44.88,1,.57a2.18,2.18,0,0,0,1-1.71c0-.63-.44-.88-1-.57A2.18,2.18,0,0,0,273.19,144Z"></path><path class="cls-8" d="M269.71,146c0,.63.44.88,1,.57a2.2,2.2,0,0,0,1-1.71c0-.63-.44-.88-1-.57A2.18,2.18,0,0,0,269.71,146Z"></path><path class="cls-8" d="M255.06,156.24l2-1.17a1.3,1.3,0,0,0,.54-1v-2.14c0-.4-.24-.59-.54-.41l-2,1.16a1.34,1.34,0,0,0-.55,1.05v2.15C254.51,156.23,254.76,156.41,255.06,156.24Z"></path><path class="cls-4" d="M252.14,176.89,294.9,152.2a4.13,4.13,0,0,0,1.73-3.31v-8.15c0-1.28-.77-1.87-1.73-1.31l-42.76,24.69a4.14,4.14,0,0,0-1.74,3.31v8.15C250.4,176.86,251.18,177.44,252.14,176.89Z"></path><path class="cls-9" d="M253.36,174l40.31-23.27a2.09,2.09,0,0,0,.88-1.68V143c0-.65-.39-.94-.88-.66l-40.31,23.27a2.11,2.11,0,0,0-.87,1.68v6.13C252.49,174,252.88,174.31,253.36,174Z"></path><path class="cls-5" d="M285.27,152.51l6-3.47a2,2,0,0,0,.85-1.63h0c0-.63-.38-.92-.85-.65l-6,3.48a2,2,0,0,0-.85,1.63h0C284.42,152.5,284.8,152.78,285.27,152.51Z"></path><path class="cls-6" d="M280.15,154.33c0,.63.44.89,1,.57a2.16,2.16,0,0,0,1-1.71c0-.62-.44-.88-1-.56A2.16,2.16,0,0,0,280.15,154.33Z"></path><path class="cls-8" d="M276.67,156.34c0,.63.44.88,1,.57a2.16,2.16,0,0,0,1-1.71c0-.63-.44-.88-1-.57A2.2,2.2,0,0,0,276.67,156.34Z"></path><path class="cls-5" d="M273.19,158.35c0,.63.44.88,1,.57a2.2,2.2,0,0,0,1-1.71c0-.63-.44-.88-1-.57A2.18,2.18,0,0,0,273.19,158.35Z"></path><path class="cls-8" d="M269.71,160.36c0,.63.44.88,1,.57a2.2,2.2,0,0,0,1-1.71c0-.63-.44-.88-1-.57A2.16,2.16,0,0,0,269.71,160.36Z"></path><path class="cls-8" d="M255.06,170.62l2-1.17a1.32,1.32,0,0,0,.54-1v-2.14c0-.41-.24-.59-.54-.42l-2,1.17a1.34,1.34,0,0,0-.55,1.05v2.14C254.51,170.61,254.76,170.79,255.06,170.62Z"></path><path class="cls-4" d="M252.14,191.27l42.76-24.69a4.13,4.13,0,0,0,1.73-3.31v-8.15c0-1.28-.77-1.87-1.73-1.31l-42.76,24.68a4.17,4.17,0,0,0-1.74,3.32V190C250.4,191.24,251.18,191.82,252.14,191.27Z"></path><path class="cls-9" d="M253.36,188.41l40.31-23.27a2.09,2.09,0,0,0,.88-1.68v-6.13c0-.65-.39-1-.88-.66l-40.31,23.27a2.11,2.11,0,0,0-.87,1.68v6.13C252.49,188.39,252.88,188.69,253.36,188.41Z"></path><path class="cls-5" d="M285.27,166.89l6-3.47a2,2,0,0,0,.85-1.63h0c0-.63-.38-.92-.85-.65l-6,3.47a2.07,2.07,0,0,0-.85,1.64h0C284.42,166.87,284.8,167.16,285.27,166.89Z"></path><path class="cls-8" d="M280.15,168.71c0,.63.44.89,1,.57a2.16,2.16,0,0,0,1-1.71c0-.63-.44-.88-1-.57A2.2,2.2,0,0,0,280.15,168.71Z"></path><path class="cls-8" d="M276.67,170.72c0,.63.44.88,1,.57a2.18,2.18,0,0,0,1-1.71c0-.63-.44-.88-1-.57A2.2,2.2,0,0,0,276.67,170.72Z"></path><path class="cls-5" d="M273.19,172.73c0,.63.44.88,1,.57a2.2,2.2,0,0,0,1-1.71c0-.63-.44-.88-1-.57A2.16,2.16,0,0,0,273.19,172.73Z"></path><path class="cls-8" d="M269.71,174.74c0,.62.44.88,1,.57a2.2,2.2,0,0,0,1-1.71c0-.63-.44-.89-1-.57A2.16,2.16,0,0,0,269.71,174.74Z"></path><path class="cls-5" d="M255.06,185l2-1.17a1.33,1.33,0,0,0,.54-1.05v-2.14c0-.41-.24-.59-.54-.42l-2,1.17a1.34,1.34,0,0,0-.55,1.05v2.14C254.51,185,254.76,185.17,255.06,185Z"></path><path class="cls-4" d="M252.14,205.65,294.9,181a4.13,4.13,0,0,0,1.73-3.31v-8.16c0-1.27-.77-1.86-1.73-1.31l-42.76,24.69a4.17,4.17,0,0,0-1.74,3.31v8.16C250.4,205.61,251.18,206.2,252.14,205.65Z"></path><path class="cls-9" d="M253.36,202.79l40.31-23.27a2.09,2.09,0,0,0,.88-1.68v-6.13c0-.65-.39-1-.88-.67l-40.31,23.27a2.14,2.14,0,0,0-.87,1.68v6.13C252.49,202.77,252.88,203.07,253.36,202.79Z"></path><path class="cls-5" d="M285.27,181.27l6-3.47a2.07,2.07,0,0,0,.85-1.63h0c0-.63-.38-.92-.85-.65l-6,3.47a2.05,2.05,0,0,0-.85,1.63h0C284.42,181.25,284.8,181.54,285.27,181.27Z"></path><path class="cls-8" d="M280.15,183.09c0,.63.44.88,1,.57a2.16,2.16,0,0,0,1-1.71c0-.63-.44-.88-1-.57A2.2,2.2,0,0,0,280.15,183.09Z"></path><path class="cls-6" d="M276.67,185.1c0,.63.44.88,1,.57a2.18,2.18,0,0,0,1-1.71c0-.63-.44-.88-1-.57A2.2,2.2,0,0,0,276.67,185.1Z"></path><path class="cls-5" d="M273.19,187.11c0,.63.44.88,1,.57a2.2,2.2,0,0,0,1-1.71c0-.63-.44-.89-1-.57A2.16,2.16,0,0,0,273.19,187.11Z"></path><path class="cls-6" d="M269.71,189.11c0,.63.44.89,1,.57a2.18,2.18,0,0,0,1-1.7c0-.63-.44-.89-1-.57A2.16,2.16,0,0,0,269.71,189.11Z"></path><path class="cls-5" d="M255.06,199.38l2-1.17a1.33,1.33,0,0,0,.54-1.05V195c0-.41-.24-.59-.54-.42l-2,1.17a1.33,1.33,0,0,0-.55,1V199C254.51,199.37,254.76,199.55,255.06,199.38Z"></path><path class="cls-4" d="M252.14,220l42.76-24.69a4.14,4.14,0,0,0,1.73-3.31v-8.16c0-1.27-.77-1.86-1.73-1.31l-42.76,24.69a4.15,4.15,0,0,0-1.74,3.31v8.16C250.4,220,251.18,220.58,252.14,220Z"></path><path class="cls-9" d="M253.36,217.17l40.31-23.27a2.1,2.1,0,0,0,.88-1.68v-6.13c0-.65-.39-1-.88-.67l-40.31,23.27a2.12,2.12,0,0,0-.87,1.68v6.13C252.49,217.15,252.88,217.45,253.36,217.17Z"></path><path class="cls-5" d="M285.27,195.65l6-3.47a2.07,2.07,0,0,0,.85-1.64h0c0-.63-.38-.91-.85-.64l-6,3.47a2,2,0,0,0-.85,1.63h0C284.42,195.63,284.8,195.92,285.27,195.65Z"></path><path class="cls-8" d="M280.15,197.47c0,.63.44.88,1,.57a2.18,2.18,0,0,0,1-1.71c0-.63-.44-.88-1-.57A2.2,2.2,0,0,0,280.15,197.47Z"></path><path class="cls-8" d="M276.67,199.48c0,.63.44.88,1,.57a2.18,2.18,0,0,0,1-1.71c0-.63-.44-.88-1-.57A2.18,2.18,0,0,0,276.67,199.48Z"></path><path class="cls-5" d="M273.19,201.49c0,.62.44.88,1,.56a2.16,2.16,0,0,0,1-1.7c0-.63-.44-.89-1-.57A2.16,2.16,0,0,0,273.19,201.49Z"></path><path class="cls-8" d="M269.71,203.49c0,.63.44.89,1,.57a2.18,2.18,0,0,0,1-1.71c0-.62-.44-.88-1-.56A2.15,2.15,0,0,0,269.71,203.49Z"></path><path class="cls-8" d="M255.06,213.75l2-1.17a1.3,1.3,0,0,0,.54-1v-2.15c0-.4-.24-.58-.54-.41l-2,1.17a1.31,1.31,0,0,0-.55,1v2.14C254.51,213.74,254.76,213.93,255.06,213.75Z"></path><path class="cls-4" d="M252.14,234.41l42.76-24.69a4.16,4.16,0,0,0,1.73-3.31v-8.16c0-1.27-.77-1.86-1.73-1.31l-42.76,24.69a4.15,4.15,0,0,0-1.74,3.31v8.16C250.4,234.37,251.18,235,252.14,234.41Z"></path><path class="cls-9" d="M253.36,231.55l40.31-23.27a2.1,2.1,0,0,0,.88-1.68v-6.13c0-.65-.39-.95-.88-.67l-40.31,23.27a2.11,2.11,0,0,0-.87,1.68v6.13C252.49,231.53,252.88,231.83,253.36,231.55Z"></path><path class="cls-5" d="M285.27,210l6-3.48a2,2,0,0,0,.85-1.63h0c0-.63-.38-.92-.85-.64l-6,3.47a2,2,0,0,0-.85,1.63h0C284.42,210,284.8,210.3,285.27,210Z"></path><path class="cls-6" d="M279.05,212.63c0,1.18.83,1.66,1.86,1.07a4.11,4.11,0,0,0,1.86-3.22c0-1.19-.83-1.67-1.86-1.08A4.11,4.11,0,0,0,279.05,212.63Z"></path><path class="cls-8" d="M271.84,216.84c0,.63.44.89,1,.57a2.18,2.18,0,0,0,1-1.71c0-.63-.44-.88-1-.57A2.18,2.18,0,0,0,271.84,216.84Z"></path><path class="cls-5" d="M268.36,218.85c0,.63.45.88,1,.57a2.21,2.21,0,0,0,1-1.71c0-.63-.45-.88-1-.57A2.21,2.21,0,0,0,268.36,218.85Z"></path><path class="cls-8" d="M264.89,220.86c0,.63.44.88,1,.57a2.18,2.18,0,0,0,1-1.71c0-.63-.44-.88-1-.57A2.18,2.18,0,0,0,264.89,220.86Z"></path><path class="cls-5" d="M255.06,228.13l2-1.17a1.3,1.3,0,0,0,.54-1v-2.15c0-.4-.24-.59-.54-.41l-2,1.17a1.31,1.31,0,0,0-.55,1.05v2.14C254.51,228.12,254.76,228.31,255.06,228.13Z"></path><path class="cls-3" d="M133.13,266.89h0V160.33l42.36-11.09,7.8-4.5a7.73,7.73,0,0,1,7,.29l7.28,4.2h22.59l-6.69,102.86a2,2,0,0,1-1.2,1.87L170,285.85a7.73,7.73,0,0,1-7-.29L134.83,269.3C133.64,268.61,133.06,267.72,133.13,266.89Z"></path><path class="cls-5" d="M186.53,144a8.21,8.21,0,0,1,3.75,1l7.28,4.2h22.59V256.06a2,2,0,0,1-1.2,1.87l-49,27.92a6.28,6.28,0,0,1-3.24.69L166.24,179Z"></path><path class="cls-4" d="M169.54,286.07A8,8,0,0,1,164,286V177.76h5.59Z"></path><path class="cls-5" d="M170,179.05l49-27.92c1.79-1,1.57-2.84-.5-4l-28.17-16.26a7.73,7.73,0,0,0-7-.29l-49,27.92c-1.79,1-1.57,2.84.5,4L163,178.76A7.8,7.8,0,0,0,170,179.05Z"></path><path class="cls-7" d="M134.83,160.51,163,176.78a7.76,7.76,0,0,0,7,.28l49-27.91a3,3,0,0,0,.9-.8,1.89,1.89,0,0,1-.9,2.78l-49,27.92a7.8,7.8,0,0,1-7-.29l-28.17-16.27c-1.61-.93-2.1-2.22-1.4-3.24A3.88,3.88,0,0,0,134.83,160.51Z"></path><path class="cls-8" d="M168.6,167.73l32.6-18.9c.84-.48.73-1.32-.23-1.88l-13.19-7.62a3.67,3.67,0,0,0-3.27-.13l-32.59,18.9c-.84.48-.74,1.33.23,1.88l13.18,7.62A3.67,3.67,0,0,0,168.6,167.73Z"></path><path class="cls-5" d="M186.2,149.68l1.89-1.09c.12-.06.1-.18,0-.26l-1.83-1.05a.48.48,0,0,0-.45,0l-1.89,1.09c-.11.07-.1.18,0,.26l1.82,1A.48.48,0,0,0,186.2,149.68Z"></path><path class="cls-5" d="M179.89,153.31l1.89-1.09c.12-.07.1-.18,0-.26l-1.83-1.05a.48.48,0,0,0-.45,0L177.58,152c-.11.07-.1.18,0,.26l1.83,1A.48.48,0,0,0,179.89,153.31Z"></path><path class="cls-5" d="M173.58,156.94l1.89-1.09c.11-.07.1-.18,0-.26l-1.83-1.05a.48.48,0,0,0-.45,0l-1.89,1.09c-.11.06-.1.18,0,.26l1.83,1A.48.48,0,0,0,173.58,156.94Z"></path><path class="cls-5" d="M167.27,160.57l1.89-1.09c.11-.07.1-.19,0-.26l-1.83-1.06a.51.51,0,0,0-.45,0L165,159.24c-.12.06-.1.18,0,.26l1.83,1.05A.48.48,0,0,0,167.27,160.57Z"></path><path class="cls-4" d="M201.2,148.83l0,0a1.33,1.33,0,0,0-.19-.14l-13.19-7.61a3.64,3.64,0,0,0-3.27-.14L152,159.85c-.77-.55-.81-1.31,0-1.75l32.59-18.9a3.67,3.67,0,0,1,3.27.13L201,147C201.93,147.51,202,148.35,201.2,148.83Z"></path><path class="cls-8" d="M157.5,200.16,139,189.55a4.52,4.52,0,0,1-1.89-3.61v-6.63c0-1.39.84-2,1.89-1.43l18.53,10.61a4.55,4.55,0,0,1,1.89,3.61v6.63C159.39,200.12,158.54,200.76,157.5,200.16Z"></path><path class="cls-6" d="M138.05,177.68a1.86,1.86,0,0,0-.48,1.38v6.63a4.55,4.55,0,0,0,1.89,3.61L158,199.91a1.34,1.34,0,0,0,.91.2,1.12,1.12,0,0,1-1.41,0L139,189.55a4.52,4.52,0,0,1-1.89-3.61v-6.63C137.08,178.36,137.47,177.78,138.05,177.68Z"></path><path class="cls-3" d="M151.93,193l-1.7-1a1,1,0,0,1-.42-.79v-1.82c0-.3.19-.44.42-.31l1.7,1a1,1,0,0,1,.41.79v1.82C152.34,193,152.15,193.09,151.93,193Z"></path><path class="cls-6" d="M146.24,189.67l-1.7-1a1,1,0,0,1-.41-.78v-1.82c0-.3.18-.44.41-.31l1.7,1a1,1,0,0,1,.41.79v1.81C146.65,189.67,146.47,189.81,146.24,189.67Z"></path><path class="cls-8" d="M157.5,248.05,139,237.44a4.51,4.51,0,0,1-1.89-3.61v-6.62c0-1.4.84-2,1.89-1.43l18.53,10.61a4.53,4.53,0,0,1,1.89,3.61v6.63C159.39,248,158.54,248.66,157.5,248.05Z"></path><path class="cls-6" d="M138.05,225.58a1.85,1.85,0,0,0-.48,1.38v6.63a4.51,4.51,0,0,0,1.89,3.6L158,247.81a1.4,1.4,0,0,0,.91.2,1.12,1.12,0,0,1-1.41,0L139,237.44a4.51,4.51,0,0,1-1.89-3.61v-6.62C137.08,226.26,137.47,225.68,138.05,225.58Z"></path><path class="cls-3" d="M151.93,240.85l-1.7-1a1,1,0,0,1-.42-.78v-1.82c0-.3.19-.44.42-.31l1.7,1a1,1,0,0,1,.41.79v1.81C152.34,240.85,152.15,241,151.93,240.85Z"></path><path class="cls-6" d="M146.24,237.57l-1.7-1a1,1,0,0,1-.41-.79V234c0-.31.18-.44.41-.31l1.7,1a1,1,0,0,1,.41.78v1.82C146.65,237.56,146.47,237.7,146.24,237.57Z"></path><path class="cls-8" d="M157.5,272,139,261.39a4.51,4.51,0,0,1-1.89-3.61v-6.63c0-1.39.84-2,1.89-1.42l18.53,10.61a4.53,4.53,0,0,1,1.89,3.61v6.63C159.39,272,158.54,272.61,157.5,272Z"></path><path class="cls-6" d="M138.05,249.53a1.85,1.85,0,0,0-.48,1.38v6.62a4.53,4.53,0,0,0,1.89,3.61L158,271.75a1.28,1.28,0,0,0,.91.2,1.11,1.11,0,0,1-1.41.05L139,261.39a4.51,4.51,0,0,1-1.89-3.61v-6.63C137.08,250.21,137.47,249.62,138.05,249.53Z"></path><path class="cls-3" d="M151.93,264.8l-1.7-1a1,1,0,0,1-.42-.79v-1.81c0-.3.19-.44.42-.31l1.7,1a1,1,0,0,1,.41.79v1.81C152.34,264.79,152.15,264.93,151.93,264.8Z"></path><path class="cls-6" d="M146.24,261.52l-1.7-1a1,1,0,0,1-.41-.79v-1.81c0-.31.18-.45.41-.32l1.7,1a1,1,0,0,1,.41.78v1.82C146.65,261.51,146.47,261.65,146.24,261.52Z"></path><path class="cls-8" d="M157.5,224.11,139,213.49a4.49,4.49,0,0,1-1.89-3.6v-6.63c0-1.39.84-2,1.89-1.43l18.53,10.61a4.53,4.53,0,0,1,1.89,3.61v6.63C159.39,224.07,158.54,224.71,157.5,224.11Z"></path><path class="cls-6" d="M138.05,201.63a1.85,1.85,0,0,0-.48,1.38v6.63a4.55,4.55,0,0,0,1.89,3.61L158,223.86a1.4,1.4,0,0,0,.91.2,1.14,1.14,0,0,1-1.41.05L139,213.49a4.49,4.49,0,0,1-1.89-3.6v-6.63C137.08,202.31,137.47,201.73,138.05,201.63Z"></path><path class="cls-3" d="M151.93,216.91l-1.7-1a1,1,0,0,1-.42-.78v-1.82c0-.3.19-.44.42-.31l1.7,1a1,1,0,0,1,.41.79v1.81C152.34,216.9,152.15,217,151.93,216.91Z"></path><path class="cls-6" d="M146.24,213.62l-1.7-1a1,1,0,0,1-.41-.78V210c0-.3.18-.44.41-.31l1.7,1a1,1,0,0,1,.41.79v1.81C146.65,213.62,146.47,213.75,146.24,213.62Z"></path><path class="cls-4" d="M173.55,193.37l42.77-24.69a4.16,4.16,0,0,0,1.73-3.31v-8.15c0-1.28-.78-1.86-1.73-1.31L173.55,180.6a4.16,4.16,0,0,0-1.73,3.31v8.15C171.82,193.34,172.6,193.92,173.55,193.37Z"></path><path class="cls-9" d="M174.78,190.51l40.31-23.27a2.12,2.12,0,0,0,.88-1.68v-6.13c0-.65-.4-.94-.88-.66L174.78,182a2.12,2.12,0,0,0-.88,1.68v6.13C173.9,190.5,174.3,190.79,174.78,190.51Z"></path><path class="cls-5" d="M206.69,169l6-3.47a2,2,0,0,0,.86-1.63h0c0-.63-.38-.92-.86-.65l-6,3.48a2,2,0,0,0-.86,1.63h0C205.83,169,206.22,169.27,206.69,169Z"></path><path class="cls-8" d="M201.56,170.81c0,.63.44.89,1,.57a2.18,2.18,0,0,0,1-1.7c0-.63-.44-.89-1-.57A2.16,2.16,0,0,0,201.56,170.81Z"></path><path class="cls-8" d="M198.08,172.82c0,.63.45.89,1,.57a2.19,2.19,0,0,0,1-1.71c0-.63-.45-.88-1-.57A2.21,2.21,0,0,0,198.08,172.82Z"></path><path class="cls-5" d="M194.61,174.83c0,.63.44.88,1,.57a2.18,2.18,0,0,0,1-1.71c0-.63-.44-.88-1-.57A2.2,2.2,0,0,0,194.61,174.83Z"></path><path class="cls-8" d="M191.13,176.84c0,.63.44.88,1,.57a2.18,2.18,0,0,0,1-1.71c0-.63-.44-.88-1-.57A2.2,2.2,0,0,0,191.13,176.84Z"></path><path class="cls-8" d="M176.48,187.1l2-1.17a1.28,1.28,0,0,0,.55-1.05v-2.14c0-.4-.24-.59-.55-.42l-2,1.17a1.31,1.31,0,0,0-.55,1v2.15C175.93,187.09,176.17,187.27,176.48,187.1Z"></path><path class="cls-4" d="M173.55,207.75l42.77-24.69a4.16,4.16,0,0,0,1.73-3.31V171.6c0-1.28-.78-1.87-1.73-1.31L173.55,195a4.16,4.16,0,0,0-1.73,3.31v8.15C171.82,207.72,172.6,208.3,173.55,207.75Z"></path><path class="cls-9" d="M174.78,204.89l40.31-23.27a2.12,2.12,0,0,0,.88-1.68v-6.13c0-.65-.4-.94-.88-.66l-40.31,23.27a2.12,2.12,0,0,0-.88,1.68v6.13C173.9,204.87,174.3,205.17,174.78,204.89Z"></path><path class="cls-5" d="M206.69,183.37l6-3.47a2,2,0,0,0,.86-1.63h0c0-.63-.38-.92-.86-.65l-6,3.47a2.08,2.08,0,0,0-.86,1.64h0C205.83,183.35,206.22,183.64,206.69,183.37Z"></path><path class="cls-6" d="M201.56,185.19c0,.63.44.89,1,.57a2.18,2.18,0,0,0,1-1.71c0-.62-.44-.88-1-.56A2.15,2.15,0,0,0,201.56,185.19Z"></path><path class="cls-8" d="M198.08,187.2c0,.63.45.88,1,.57a2.19,2.19,0,0,0,1-1.71c0-.63-.45-.88-1-.57A2.21,2.21,0,0,0,198.08,187.2Z"></path><path class="cls-5" d="M194.61,189.21c0,.63.44.88,1,.57a2.18,2.18,0,0,0,1-1.71c0-.63-.44-.88-1-.57A2.2,2.2,0,0,0,194.61,189.21Z"></path><path class="cls-8" d="M191.13,191.22c0,.63.44.88,1,.57a2.18,2.18,0,0,0,1-1.71c0-.63-.44-.89-1-.57A2.18,2.18,0,0,0,191.13,191.22Z"></path><path class="cls-8" d="M176.48,201.48l2-1.17a1.3,1.3,0,0,0,.55-1.05v-2.14c0-.41-.24-.59-.55-.42l-2,1.17a1.31,1.31,0,0,0-.55,1v2.14C175.93,201.47,176.17,201.65,176.48,201.48Z"></path><path class="cls-4" d="M173.55,222.13l42.77-24.69a4.16,4.16,0,0,0,1.73-3.31V186c0-1.28-.78-1.87-1.73-1.31l-42.77,24.68a4.19,4.19,0,0,0-1.73,3.32v8.15C171.82,222.1,172.6,222.68,173.55,222.13Z"></path><path class="cls-9" d="M174.78,219.27,215.09,196a2.12,2.12,0,0,0,.88-1.68v-6.13c0-.65-.4-.95-.88-.67L174.78,210.8a2.12,2.12,0,0,0-.88,1.68v6.13C173.9,219.25,174.3,219.55,174.78,219.27Z"></path><path class="cls-5" d="M206.69,197.75l6-3.47a2,2,0,0,0,.86-1.63h0c0-.63-.38-.92-.86-.65l-6,3.47a2.08,2.08,0,0,0-.86,1.63h0C205.83,197.73,206.22,198,206.69,197.75Z"></path><path class="cls-6" d="M201.56,199.57c0,.63.44.89,1,.57a2.18,2.18,0,0,0,1-1.71c0-.63-.44-.88-1-.57A2.18,2.18,0,0,0,201.56,199.57Z"></path><path class="cls-8" d="M198.08,201.58c0,.63.45.88,1,.57a2.21,2.21,0,0,0,1-1.71c0-.63-.45-.88-1-.57A2.21,2.21,0,0,0,198.08,201.58Z"></path><path class="cls-5" d="M194.61,203.59c0,.63.44.88,1,.57a2.18,2.18,0,0,0,1-1.71c0-.63-.44-.88-1-.57A2.18,2.18,0,0,0,194.61,203.59Z"></path><path class="cls-8" d="M191.13,205.6c0,.62.44.88,1,.56a2.15,2.15,0,0,0,1-1.7c0-.63-.44-.89-1-.57A2.18,2.18,0,0,0,191.13,205.6Z"></path><path class="cls-8" d="M176.48,215.86l2-1.17a1.31,1.31,0,0,0,.55-1.05V211.5c0-.41-.24-.59-.55-.42l-2,1.17a1.31,1.31,0,0,0-.55,1.05v2.14C175.93,215.85,176.17,216,176.48,215.86Z"></path><path class="cls-4" d="M173.55,236.51l42.77-24.69a4.17,4.17,0,0,0,1.73-3.31v-8.16c0-1.27-.78-1.86-1.73-1.31l-42.77,24.69a4.19,4.19,0,0,0-1.73,3.31v8.16C171.82,236.47,172.6,237.06,173.55,236.51Z"></path><path class="cls-9" d="M174.78,233.65l40.31-23.27a2.12,2.12,0,0,0,.88-1.68v-6.13c0-.65-.4-.95-.88-.67l-40.31,23.27a2.15,2.15,0,0,0-.88,1.68V233C173.9,233.63,174.3,233.93,174.78,233.65Z"></path><path class="cls-5" d="M206.69,212.13l6-3.47a2.05,2.05,0,0,0,.86-1.64h0c0-.62-.38-.91-.86-.64l-6,3.47a2,2,0,0,0-.86,1.63h0C205.83,212.11,206.22,212.4,206.69,212.13Z"></path><path class="cls-8" d="M201.56,214c0,.63.44.88,1,.57a2.2,2.2,0,0,0,1-1.71c0-.63-.44-.88-1-.57A2.18,2.18,0,0,0,201.56,214Z"></path><path class="cls-8" d="M198.08,216c0,.63.45.88,1,.57a2.21,2.21,0,0,0,1-1.71c0-.63-.45-.88-1-.57A2.21,2.21,0,0,0,198.08,216Z"></path><path class="cls-5" d="M194.61,218c0,.63.44.88,1,.57a2.18,2.18,0,0,0,1-1.71c0-.63-.44-.89-1-.57A2.18,2.18,0,0,0,194.61,218Z"></path><path class="cls-8" d="M191.13,220c0,.63.44.89,1,.57a2.16,2.16,0,0,0,1-1.7c0-.63-.44-.89-1-.57A2.18,2.18,0,0,0,191.13,220Z"></path><path class="cls-5" d="M176.48,230.24l2-1.17a1.31,1.31,0,0,0,.55-1v-2.14c0-.41-.24-.59-.55-.42l-2,1.17a1.3,1.3,0,0,0-.55,1.05v2.14C175.93,230.23,176.17,230.41,176.48,230.24Z"></path><path class="cls-4" d="M173.55,250.89l42.77-24.69a4.17,4.17,0,0,0,1.73-3.31v-8.16c0-1.27-.78-1.86-1.73-1.31l-42.77,24.69a4.17,4.17,0,0,0-1.73,3.31v8.16C171.82,250.85,172.6,251.44,173.55,250.89Z"></path><path class="cls-9" d="M174.78,248l40.31-23.27a2.13,2.13,0,0,0,.88-1.68V217c0-.65-.4-.95-.88-.67l-40.31,23.27a2.13,2.13,0,0,0-.88,1.68v6.13C173.9,248,174.3,248.31,174.78,248Z"></path><path class="cls-5" d="M206.69,226.51l6-3.48a2,2,0,0,0,.86-1.63h0c0-.63-.38-.91-.86-.64l-6,3.47a2,2,0,0,0-.86,1.63h0C205.83,226.49,206.22,226.78,206.69,226.51Z"></path><path class="cls-8" d="M201.56,228.33c0,.63.44.88,1,.57a2.2,2.2,0,0,0,1-1.71c0-.63-.44-.88-1-.57A2.18,2.18,0,0,0,201.56,228.33Z"></path><path class="cls-6" d="M198.08,230.34c0,.63.45.88,1,.57a2.21,2.21,0,0,0,1-1.71c0-.63-.45-.89-1-.57A2.19,2.19,0,0,0,198.08,230.34Z"></path><path class="cls-5" d="M194.61,232.34c0,.63.44.89,1,.57a2.15,2.15,0,0,0,1-1.7c0-.63-.44-.89-1-.57A2.18,2.18,0,0,0,194.61,232.34Z"></path><path class="cls-6" d="M191.13,234.35c0,.63.44.89,1,.57a2.16,2.16,0,0,0,1-1.71c0-.62-.44-.88-1-.56A2.16,2.16,0,0,0,191.13,234.35Z"></path><path class="cls-5" d="M176.48,244.61l2-1.17a1.28,1.28,0,0,0,.55-1v-2.15c0-.4-.24-.58-.55-.41l-2,1.17a1.28,1.28,0,0,0-.55,1.05v2.14C175.93,244.6,176.17,244.79,176.48,244.61Z"></path><path class="cls-4" d="M173.55,265.27l42.77-24.69a4.19,4.19,0,0,0,1.73-3.31v-8.16c0-1.27-.78-1.86-1.73-1.31l-42.77,24.69a4.17,4.17,0,0,0-1.73,3.31V264C171.82,265.23,172.6,265.82,173.55,265.27Z"></path><path class="cls-9" d="M174.78,262.41l40.31-23.27a2.13,2.13,0,0,0,.88-1.68v-6.13c0-.65-.4-1-.88-.67l-40.31,23.27a2.12,2.12,0,0,0-.88,1.68v6.13C173.9,262.39,174.3,262.69,174.78,262.41Z"></path><path class="cls-5" d="M206.69,240.89l6-3.48a2,2,0,0,0,.86-1.63h0c0-.63-.38-.92-.86-.64l-6,3.47a2,2,0,0,0-.86,1.63h0C205.83,240.87,206.22,241.16,206.69,240.89Z"></path><path class="cls-8" d="M201.56,242.71c0,.63.44.88,1,.57a2.2,2.2,0,0,0,1-1.71c0-.63-.44-.88-1-.57A2.16,2.16,0,0,0,201.56,242.71Z"></path><path class="cls-8" d="M198.08,244.72c0,.62.45.88,1,.56a2.17,2.17,0,0,0,1-1.7c0-.63-.45-.89-1-.57A2.19,2.19,0,0,0,198.08,244.72Z"></path><path class="cls-5" d="M194.61,246.72c0,.63.44.89,1,.57a2.16,2.16,0,0,0,1-1.7c0-.63-.44-.89-1-.57A2.18,2.18,0,0,0,194.61,246.72Z"></path><path class="cls-8" d="M191.13,248.73c0,.63.44.89,1,.57a2.16,2.16,0,0,0,1-1.71c0-.63-.44-.88-1-.57A2.2,2.2,0,0,0,191.13,248.73Z"></path><path class="cls-8" d="M176.48,259l2-1.17a1.28,1.28,0,0,0,.55-1v-2.15c0-.4-.24-.59-.55-.41l-2,1.17a1.28,1.28,0,0,0-.55,1.05v2.14C175.93,259,176.17,259.17,176.48,259Z"></path><path class="cls-4" d="M173.55,279.64,216.32,255a4.19,4.19,0,0,0,1.73-3.32v-8.15c0-1.28-.78-1.86-1.73-1.31l-42.77,24.69a4.16,4.16,0,0,0-1.73,3.31v8.15C171.82,279.61,172.6,280.2,173.55,279.64Z"></path><path class="cls-9" d="M174.78,276.79l40.31-23.28a2.12,2.12,0,0,0,.88-1.68V245.7c0-.64-.4-.94-.88-.66l-40.31,23.27a2.12,2.12,0,0,0-.88,1.68v6.13C173.9,276.77,174.3,277.07,174.78,276.79Z"></path><path class="cls-5" d="M206.69,255.27l6-3.48a2,2,0,0,0,.86-1.63h0c0-.63-.38-.92-.86-.64l-6,3.47a2,2,0,0,0-.86,1.63h0C205.83,255.25,206.22,255.54,206.69,255.27Z"></path><path class="cls-6" d="M200.46,257.86c0,1.19.84,1.67,1.87,1.08a4.14,4.14,0,0,0,1.86-3.23c0-1.18-.84-1.66-1.86-1.07A4.12,4.12,0,0,0,200.46,257.86Z"></path><path class="cls-8" d="M193.26,262.08c0,.63.44.88,1,.57a2.2,2.2,0,0,0,1-1.71c0-.63-.44-.88-1-.57A2.18,2.18,0,0,0,193.26,262.08Z"></path><path class="cls-5" d="M189.78,264.09c0,.63.44.88,1,.57a2.2,2.2,0,0,0,1-1.71c0-.63-.44-.88-1-.57A2.16,2.16,0,0,0,189.78,264.09Z"></path><path class="cls-8" d="M186.3,266.1c0,.62.44.88,1,.57a2.21,2.21,0,0,0,1-1.71c0-.63-.45-.89-1-.57A2.16,2.16,0,0,0,186.3,266.1Z"></path><path class="cls-5" d="M176.48,273.37l2-1.17a1.28,1.28,0,0,0,.55-1V269c0-.4-.24-.59-.55-.41l-2,1.17a1.28,1.28,0,0,0-.55,1V273C175.93,273.36,176.17,273.55,176.48,273.37Z"></path><path class="cls-5" d="M187.71,96.86l49-27.92c1.79-1,1.56-2.84-.5-4L208,48.64a7.78,7.78,0,0,0-7-.29l-49,27.92c-1.79,1-1.56,2.84.5,4l28.18,16.27A7.78,7.78,0,0,0,187.71,96.86Z"></path><path class="cls-5" d="M109.13,142.1l49-27.92c1.79-1,1.57-2.84-.5-4L129.42,93.88a7.73,7.73,0,0,0-7-.29l-49,27.92c-1.79,1-1.57,2.84.5,4l28.17,16.27A7.8,7.8,0,0,0,109.13,142.1Z"></path><path class="cls-5" d="M248.57,131.87l49-27.92c1.8-1,1.57-2.84-.5-4L268.86,83.65a7.73,7.73,0,0,0-7-.29l-49,27.92c-1.79,1-1.57,2.84.5,4l28.17,16.27A7.8,7.8,0,0,0,248.57,131.87Z"></path><path class="cls-2" d="M201,48.35l-32.1,18.3,29.41,17,35.14-20.29L208,48.64A7.78,7.78,0,0,0,201,48.35Z"></path><path class="cls-8" d="M235.44,44.8,230,41.67l20-11.54a1,1,0,0,0,0-2L229.59,16.37a3.75,3.75,0,0,0-3.42,0l-20,11.54-5.42-3.13,20-11.54a15.78,15.78,0,0,1,14.26,0L255.43,25c3.94,2.27,3.94,6,0,8.23Z"></path><path class="cls-5" d="M244.19,46.18c0-2.9-1.76-6.26-3.93-7.52L204,17.75a2.54,2.54,0,0,0-2.55-.22h0L158.25,42.66l41.81,31.51,42.6-24.73a1.79,1.79,0,0,0,.38-.22h0A3.68,3.68,0,0,0,244.19,46.18Z"></path><path class="cls-3" d="M200.06,74.17l42.6-24.73a1.79,1.79,0,0,0,.38-.22h0a3.68,3.68,0,0,0,1.15-3A9.63,9.63,0,0,0,243.13,42L194.57,70Z"></path><path class="cls-4" d="M197.34,74.06,161.13,53.15c-2.18-1.26-3.94-4.62-3.94-7.52h0c0-2.9,1.76-4.23,3.94-3l36.21,20.91c2.18,1.26,3.94,4.62,3.94,7.52h0C201.28,74,199.52,75.31,197.34,74.06Z"></path><path class="cls-6" d="M197.78,63.36,161.56,42.45a2.5,2.5,0,0,0-2.6-.18,2.75,2.75,0,0,1,2.17.38l36.21,20.91c2.18,1.26,3.94,4.62,3.94,7.52h0a3.5,3.5,0,0,1-1.34,3.16c1.07-.32,1.77-1.53,1.77-3.36h0C201.71,68,200,64.62,197.78,63.36Z"></path><path class="cls-6" d="M191.92,67l-4.36-2.51a1.88,1.88,0,0,1-.78-1.5h0c0-.57.35-.84.78-.59l4.36,2.51a1.88,1.88,0,0,1,.78,1.5h0C192.7,67,192.35,67.25,191.92,67Z"></path><path class="cls-4" d="M196.83,37.28c1.31-.78,1.3-2,0-2.77a5.32,5.32,0,0,0-4.79.05c-1.31.78-1.3,2,0,2.77A5.32,5.32,0,0,0,196.83,37.28Z"></path><path class="cls-6" d="M204.12,41.39c1.31-.78,1.3-2,0-2.77a5.3,5.3,0,0,0-4.78.05c-1.32.78-1.3,2,0,2.77A5.35,5.35,0,0,0,204.12,41.39Z"></path><path class="cls-6" d="M211.41,45.49c1.32-.77,1.3-2,0-2.76a5.26,5.26,0,0,0-4.78.05c-1.32.78-1.3,2,0,2.76A5.26,5.26,0,0,0,211.41,45.49Z"></path><polygon class="cls-2" points="70.48 301.52 57.49 294.01 70.48 286.51 83.48 294.01 70.48 301.52"></polygon><polygon class="cls-8" points="83.48 284.49 70.48 291.99 70.48 276.99 83.48 269.49 83.48 284.49"></polygon><polygon class="cls-5" points="70.48 276.99 57.49 269.49 70.48 261.98 83.48 269.49 70.48 276.99"></polygon><polygon class="cls-4" points="70.48 291.99 57.49 284.49 57.49 269.49 70.48 276.99 70.48 291.99"></polygon><polygon class="cls-6" points="65.8 283.88 62.17 281.79 62.17 277.59 65.8 279.69 65.8 283.88"></polygon><polygon class="cls-2" points="287.46 299.62 274.47 292.12 287.46 284.62 300.45 292.12 287.46 299.62"></polygon><polygon class="cls-8" points="300.45 282.59 287.46 290.09 287.46 275.09 300.45 267.59 300.45 282.59"></polygon><polygon class="cls-5" points="287.46 275.09 274.47 267.59 287.46 260.09 300.45 267.59 287.46 275.09"></polygon><polygon class="cls-4" points="287.46 290.09 274.47 282.59 274.47 267.59 287.46 275.09 287.46 290.09"></polygon><polygon class="cls-6" points="282.78 281.99 279.15 279.89 279.15 275.69 282.78 277.79 282.78 281.99"></polygon><path class="cls-8" d="M129.91,110.62a2.78,2.78,0,0,0-2.54,0l-24,13.88a.77.77,0,0,0,0,1.46,2.78,2.78,0,0,0,2.54,0l24-13.88A.77.77,0,0,0,129.91,110.62Z"></path></svg>