<svg xmlns="http://www.w3.org/2000/svg" xmlns:xlink="http://www.w3.org/1999/xlink" id="_&#xCE;&#xD3;&#xC8;_1" data-name="&#x2014;&#xCE;&#xD3;&#xC8;_1" viewBox="0 0 579.28 383.23"><defs><style>.cls-1{fill:#e7e7e7;}.cls-2{fill:#f0f0f0;}.cls-26,.cls-27,.cls-3,.cls-33{fill:#fff;}.cls-4{fill:#ececec;}.cls-5{fill:#e1e1e1;}.cls-6{fill:#f5f5f5;}.cls-7{fill:#7ba9e3;}.cls-8{fill:#1a2e35;}.cls-12,.cls-13,.cls-17,.cls-21,.cls-24,.cls-9{opacity:0.2;}.cls-10{fill:#197bdd;}.cls-11{fill:#fdc2bc;}.cls-12,.cls-17,.cls-24,.cls-27{isolation:isolate;}.cls-13,.cls-15,.cls-22,.cls-35{fill:none;stroke-linecap:round;stroke-linejoin:round;}.cls-13{stroke:#000;}.cls-13,.cls-15,.cls-22{stroke-width:0.5px;}.cls-14{fill:#ec837e;}.cls-15,.cls-35{stroke:#1a2e35;}.cls-16,.cls-17{fill:#f6597b;}.cls-18{fill:#007cff;}.cls-19,.cls-21{fill:#77b3fc;}.cls-20,.cls-23{opacity:0.3;}.cls-22{stroke:#007cff;}.cls-25{fill:#fc5652;}.cls-26,.cls-47{opacity:0.5;}.cls-27{opacity:0.8;}.cls-28,.cls-30,.cls-31,.cls-37,.cls-40,.cls-41{opacity:0.4;}.cls-29{fill:url(#_ÂÁ_Ï_ÌÌ_È_ËÂÌÚ_45);}.cls-30{fill:url(#_ÂÁ_Ï_ÌÌ_È_ËÂÌÚ_45-2);}.cls-32{fill:#fbb473;}.cls-33{opacity:0.7;}.cls-34{fill:#ed883e;}.cls-35{stroke-width:0.75px;}.cls-36{fill:url(#_ÂÁ_Ï_ÌÌ_È_ËÂÌÚ_45-3);}.cls-37{fill:url(#_ÂÁ_Ï_ÌÌ_È_ËÂÌÚ_45-4);}.cls-38{fill:url(#_ÂÁ_Ï_ÌÌ_È_ËÂÌÚ_45-5);}.cls-39{fill:url(#_ÂÁ_Ï_ÌÌ_È_ËÂÌÚ_45-6);}.cls-40{fill:url(#_ÂÁ_Ï_ÌÌ_È_ËÂÌÚ_45-7);}.cls-41{fill:url(#_ÂÁ_Ï_ÌÌ_È_ËÂÌÚ_45-8);}.cls-42{fill:#cd7a63;}.cls-43{fill:#14365b;}.cls-44{fill:#30509f;}.cls-45{fill:#b94d3c;}.cls-46,.cls-47{fill:#5793ce;}</style><linearGradient id="_&#xC2;&#xC1;_&#xCF;_&#xCC;&#xCC;_&#xC8;_&#xCB;&#xC2;&#xCC;&#xDA;_45" x1="390.18" y1="265.92" x2="449.1" y2="265.92" gradientUnits="userSpaceOnUse"><stop offset="0" stop-color="#d4ecff"></stop><stop offset="0.2" stop-color="#d0eafe"></stop><stop offset="0.39" stop-color="#c5e2f9"></stop><stop offset="0.57" stop-color="#b2d6f2"></stop><stop offset="0.74" stop-color="#98c4e7"></stop><stop offset="0.84" stop-color="#86b8e0"></stop></linearGradient><linearGradient id="_&#xC2;&#xC1;_&#xCF;_&#xCC;&#xCC;_&#xC8;_&#xCB;&#xC2;&#xCC;&#xDA;_45-2" x1="407.85" y1="277.95" x2="436.63" y2="277.95" xlink:href="#_&#xC2;&#xC1;_&#xCF;_&#xCC;&#xCC;_&#xC8;_&#xCB;&#xC2;&#xCC;&#xDA;_45"></linearGradient><linearGradient id="_&#xC2;&#xC1;_&#xCF;_&#xCC;&#xCC;_&#xC8;_&#xCB;&#xC2;&#xCC;&#xDA;_45-3" x1="440.94" y1="266.44" x2="510.09" y2="266.44" xlink:href="#_&#xC2;&#xC1;_&#xCF;_&#xCC;&#xCC;_&#xC8;_&#xCB;&#xC2;&#xCC;&#xDA;_45"></linearGradient><linearGradient id="_&#xC2;&#xC1;_&#xCF;_&#xCC;&#xCC;_&#xC8;_&#xCB;&#xC2;&#xCC;&#xDA;_45-4" x1="455.13" y1="266.14" x2="482.49" y2="266.14" xlink:href="#_&#xC2;&#xC1;_&#xCF;_&#xCC;&#xCC;_&#xC8;_&#xCB;&#xC2;&#xCC;&#xDA;_45"></linearGradient><linearGradient id="_&#xC2;&#xC1;_&#xCF;_&#xCC;&#xCC;_&#xC8;_&#xCB;&#xC2;&#xCC;&#xDA;_45-5" x1="405.71" y1="267.95" x2="484.83" y2="267.95" xlink:href="#_&#xC2;&#xC1;_&#xCF;_&#xCC;&#xCC;_&#xC8;_&#xCB;&#xC2;&#xCC;&#xDA;_45"></linearGradient><linearGradient id="_&#xC2;&#xC1;_&#xCF;_&#xCC;&#xCC;_&#xC8;_&#xCB;&#xC2;&#xCC;&#xDA;_45-6" x1="448.88" y1="235.02" x2="464.01" y2="235.02" xlink:href="#_&#xC2;&#xC1;_&#xCF;_&#xCC;&#xCC;_&#xC8;_&#xCB;&#xC2;&#xCC;&#xDA;_45"></linearGradient><linearGradient id="_&#xC2;&#xC1;_&#xCF;_&#xCC;&#xCC;_&#xC8;_&#xCB;&#xC2;&#xCC;&#xDA;_45-7" x1="440.45" y1="250.71" x2="464.63" y2="250.71" xlink:href="#_&#xC2;&#xC1;_&#xCF;_&#xCC;&#xCC;_&#xC8;_&#xCB;&#xC2;&#xCC;&#xDA;_45"></linearGradient><linearGradient id="_&#xC2;&#xC1;_&#xCF;_&#xCC;&#xCC;_&#xC8;_&#xCB;&#xC2;&#xCC;&#xDA;_45-8" x1="448.88" y1="234.39" x2="463.59" y2="234.39" xlink:href="#_&#xC2;&#xC1;_&#xCF;_&#xCC;&#xCC;_&#xC8;_&#xCB;&#xC2;&#xCC;&#xDA;_45"></linearGradient></defs><rect class="cls-1" x="427.31" y="27.7" width="46.45" height="91.26"></rect><rect class="cls-2" x="416.92" y="27.7" width="54.56" height="91.26"></rect><rect class="cls-3" x="425.22" y="35.8" width="37.95" height="75.05"></rect><rect class="cls-4" x="437.29" y="58.18" width="14.75" height="29.17"></rect><rect class="cls-1" x="63.88" y="27.7" width="46.45" height="91.26"></rect><rect class="cls-2" x="53.49" y="27.7" width="54.56" height="91.26"></rect><rect class="cls-3" x="61.78" y="35.8" width="37.95" height="75.05"></rect><rect class="cls-4" x="73.85" y="58.18" width="14.75" height="29.17"></rect><path class="cls-5" d="M514,247H366.08a4.91,4.91,0,0,1-4.8-5V17.46a4.9,4.9,0,0,1,4.8-5H514a4.91,4.91,0,0,1,4.8,5V242A4.92,4.92,0,0,1,514,247ZM366.08,12.67a4.7,4.7,0,0,0-4.6,4.79V242a4.69,4.69,0,0,0,4.6,4.78H514A4.69,4.69,0,0,0,518.6,242V17.46A4.7,4.7,0,0,0,514,12.67Z"></path><path class="cls-5" d="M343.42,247H195.49a4.91,4.91,0,0,1-4.8-5V17.46a4.9,4.9,0,0,1,4.8-5H343.42a4.9,4.9,0,0,1,4.8,5V242A4.91,4.91,0,0,1,343.42,247ZM195.49,12.67a4.7,4.7,0,0,0-4.59,4.79V242a4.69,4.69,0,0,0,4.59,4.78H343.42A4.69,4.69,0,0,0,348,242V17.46a4.7,4.7,0,0,0-4.59-4.79Z"></path><path class="cls-5" d="M172.94,247H25a4.92,4.92,0,0,1-4.8-5V17.46a4.91,4.91,0,0,1,4.8-5H172.94a4.9,4.9,0,0,1,4.8,5V242A4.91,4.91,0,0,1,172.94,247ZM25,12.67a4.7,4.7,0,0,0-4.59,4.79V242A4.69,4.69,0,0,0,25,246.81H172.94a4.69,4.69,0,0,0,4.6-4.78V17.46a4.7,4.7,0,0,0-4.6-4.79Z"></path><rect class="cls-5" x="2.85" y="299.12" width="573.58" height="0.1"></rect><rect class="cls-4" x="498.51" y="324.18" width="44.66" height="0.36"></rect><rect class="cls-4" x="371.43" y="328.07" width="11.72" height="0.36"></rect><rect class="cls-4" x="7.3" y="313.26" width="58.24" height="0.36"></rect><rect class="cls-4" x="77.54" y="313.26" width="8.54" height="0.36"></rect><rect class="cls-4" x="113.83" y="319.32" width="126.3" height="0.36"></rect><path class="cls-4" d="M157.77,67a31,31,0,0,0-4.16,10.52L148,78V89.41l5.64.56a31,31,0,0,0,4.16,10.52l-3.6,4.53,7.72,8,4.35-3.75a28.8,28.8,0,0,0,10.1,4.34l.53,5.87h10.92l.53-5.87a28.8,28.8,0,0,0,10.1-4.34l4.35,3.75,7.72-8-3.6-4.53A31,31,0,0,0,211.05,90l5.64-.56V78l-5.64-.55A30.86,30.86,0,0,0,206.88,67l3.61-4.53-7.73-8-4.34,3.75a28.62,28.62,0,0,0-10.1-4.34l-.53-5.88H176.87l-.53,5.88a28.62,28.62,0,0,0-10.1,4.34l-4.35-3.75-7.72,8Zm35,5.87a15.88,15.88,0,0,1,0,21.79,14.37,14.37,0,0,1-20.9,0,15.88,15.88,0,0,1,0-21.79A14.37,14.37,0,0,1,192.78,72.83Z"></path><path class="cls-4" d="M179.08,204.22a15.36,15.36,0,0,0-2.08,5.26l-2.82.28v5.68l2.82.28a15.36,15.36,0,0,0,2.08,5.26l-1.8,2.26,3.86,4,2.17-1.88a14.18,14.18,0,0,0,5.05,2.17l.26,2.94h5.46l.27-2.94a14.21,14.21,0,0,0,5-2.17l2.18,1.88,3.85-4-1.8-2.26a15.58,15.58,0,0,0,2.09-5.26l2.81-.28v-5.68l-2.81-.28a15.58,15.58,0,0,0-2.09-5.26l1.8-2.27-3.85-4-2.18,1.88a14.21,14.21,0,0,0-5-2.17l-.27-2.94h-5.46l-.26,2.94a14.18,14.18,0,0,0-5.05,2.17l-2.17-1.88-3.86,4Zm17.5,2.94a7.93,7.93,0,0,1,0,10.88,7.18,7.18,0,0,1-10.45,0,7.91,7.91,0,0,1,0-10.88A7.18,7.18,0,0,1,196.58,207.16Z"></path><path class="cls-4" d="M23.53,144.86a24.5,24.5,0,0,0-3.29,8.31l-4.45.43v9l4.45.44a24.58,24.58,0,0,0,3.29,8.31l-2.84,3.58,6.09,6.35,3.44-3a22.46,22.46,0,0,0,8,3.42l.42,4.64h8.61l.42-4.64a22.46,22.46,0,0,0,8-3.42l3.44,3,6.09-6.35-2.84-3.58A24.58,24.58,0,0,0,65.59,163l4.45-.44v-9l-4.45-.43a24.5,24.5,0,0,0-3.29-8.31l2.84-3.58-6.09-6.35-3.44,3a22.49,22.49,0,0,0-8-3.43l-.42-4.63H38.61l-.42,4.63a22.49,22.49,0,0,0-8,3.43l-3.44-3-6.09,6.35Zm27.64,4.64a12.53,12.53,0,0,1,0,17.19,11.33,11.33,0,0,1-16.5,0,12.51,12.51,0,0,1,0-17.19A11.33,11.33,0,0,1,51.17,149.5Z"></path><path class="cls-4" d="M492,126.51a11.39,11.39,0,0,0-1.54,3.88l-2.08.21v4.2l2.08.21a11.39,11.39,0,0,0,1.54,3.88l-1.33,1.68,2.85,3,1.61-1.39a10.45,10.45,0,0,0,3.73,1.61l.19,2.17h4l.19-2.17a10.45,10.45,0,0,0,3.73-1.61l1.61,1.39,2.85-3-1.33-1.68a11.39,11.39,0,0,0,1.54-3.88l2.08-.21v-4.2l-2.08-.21a11.39,11.39,0,0,0-1.54-3.88l1.33-1.68-2.85-3-1.61,1.38a10.42,10.42,0,0,0-3.73-1.6l-.19-2.17h-4l-.19,2.17a10.42,10.42,0,0,0-3.73,1.6l-1.61-1.38-2.85,3ZM505,128.67a5.87,5.87,0,0,1,0,8.05,5.29,5.29,0,0,1-7.72,0,5.87,5.87,0,0,1,0-8.05A5.31,5.31,0,0,1,505,128.67Z"></path><path class="cls-6" d="M338.21,73.92a11.52,11.52,0,0,0-1.54,3.89l-2.08.21v4.2l2.08.2a11.36,11.36,0,0,0,1.54,3.89L336.88,88l2.85,3,1.61-1.39a10.63,10.63,0,0,0,3.73,1.61l.2,2.17h4l.2-2.17a10.79,10.79,0,0,0,3.73-1.61l1.6,1.39,2.86-3-1.33-1.68a11.54,11.54,0,0,0,1.53-3.89l2.09-.2V78l-2.09-.21a11.52,11.52,0,0,0-1.54-3.89l1.34-1.67-2.86-3-1.6,1.38a10.58,10.58,0,0,0-3.73-1.6l-.2-2.17h-4l-.2,2.17a10.42,10.42,0,0,0-3.73,1.6l-1.61-1.38-2.85,3Zm12.93,2.17a5.85,5.85,0,0,1,0,8,5.31,5.31,0,0,1-7.72,0,5.87,5.87,0,0,1,0-8A5.31,5.31,0,0,1,351.14,76.09Z"></path><path class="cls-6" d="M68.23,194.59a11.77,11.77,0,0,0-1.54,3.89l-2.08.2v4.21l2.08.2A11.86,11.86,0,0,0,68.23,207l-1.33,1.67,2.86,3,1.6-1.39a10.5,10.5,0,0,0,3.73,1.6l.2,2.17h4l.2-2.17a10.5,10.5,0,0,0,3.73-1.6l1.61,1.39,2.85-3L86.38,207a11.44,11.44,0,0,0,1.54-3.89l2.08-.2v-4.21l-2.08-.2a11.44,11.44,0,0,0-1.54-3.89l1.33-1.67-2.85-3-1.61,1.39a10.71,10.71,0,0,0-3.73-1.61l-.2-2.17h-4l-.2,2.18a10.5,10.5,0,0,0-3.73,1.6l-1.6-1.39-2.86,3Zm12.94,2.17a5.87,5.87,0,0,1,0,8.05,5.32,5.32,0,0,1-7.73,0,5.87,5.87,0,0,1,0-8.05A5.32,5.32,0,0,1,81.17,196.76Z"></path><path class="cls-4" d="M433.2,143.46a19.72,19.72,0,0,0-2.65,6.68l-3.58.35v7.23l3.58.35a19.72,19.72,0,0,0,2.65,6.68l-2.29,2.88,4.9,5.11,2.76-2.38a18.22,18.22,0,0,0,6.41,2.75l.34,3.74h6.93l.34-3.73a18.07,18.07,0,0,0,6.41-2.75l2.76,2.38,4.91-5.11-2.29-2.88a19.7,19.7,0,0,0,2.64-6.68l3.58-.35v-7.23l-3.58-.35a19.7,19.7,0,0,0-2.64-6.68l2.29-2.88-4.91-5.11L459,137.86a18.09,18.09,0,0,0-6.41-2.76l-.34-3.73h-6.93L445,135.1a18.25,18.25,0,0,0-6.41,2.76l-2.76-2.39-4.9,5.11Zm22.22,3.73a10.06,10.06,0,0,1,0,13.83,9.12,9.12,0,0,1-13.27,0,10.08,10.08,0,0,1,0-13.83A9.12,9.12,0,0,1,455.42,147.19Z"></path><path class="cls-4" d="M295.41,184a19.86,19.86,0,0,0-2.67,6.74l-3.61.35v7.28l3.61.36a19.73,19.73,0,0,0,2.67,6.73l-2.31,2.9,4.94,5.15,2.79-2.4a18.19,18.19,0,0,0,6.46,2.78l.34,3.76h7l.34-3.76a18.19,18.19,0,0,0,6.46-2.78l2.79,2.4,4.94-5.15-2.31-2.9a19.73,19.73,0,0,0,2.67-6.73l3.61-.36v-7.28l-3.61-.35a19.86,19.86,0,0,0-2.67-6.74l2.31-2.9-4.94-5.15-2.79,2.41a18.19,18.19,0,0,0-6.46-2.78l-.34-3.76h-7l-.34,3.76a18.19,18.19,0,0,0-6.46,2.78L298,175.92l-4.94,5.15Zm22.4,3.76a10.16,10.16,0,0,1,0,13.94,9.19,9.19,0,0,1-13.38,0,10.16,10.16,0,0,1,0-13.94A9.19,9.19,0,0,1,317.81,187.73Z"></path><path class="cls-4" d="M315.88,252.61a33.53,33.53,0,0,0-4.47,11.3l-6.05.59v12.22l6.06.6a33.53,33.53,0,0,0,4.47,11.3L312,293.49l8.29,8.64,4.67-4a30.65,30.65,0,0,0,10.84,4.66l.57,6.31h11.73l.57-6.31a30.73,30.73,0,0,0,10.84-4.66l4.67,4,8.29-8.64-3.87-4.87a33.34,33.34,0,0,0,4.48-11.3l6-.6V264.5l-6-.59a33.34,33.34,0,0,0-4.48-11.3l3.87-4.87-8.29-8.64-4.67,4a30.73,30.73,0,0,0-10.84-4.66l-.57-6.31H336.39l-.57,6.31A30.47,30.47,0,0,0,325,243.13l-4.67-4L312,247.74Zm37.6,6.31a17,17,0,0,1,0,23.39,15.43,15.43,0,0,1-22.45,0,17,17,0,0,1,0-23.39A15.43,15.43,0,0,1,353.48,258.92Z"></path><path class="cls-6" d="M535.93,354.55c0,2.89-115.62,5.23-258.24,5.23s-258.23-2.34-258.23-5.23,115.62-5.23,258.23-5.23S535.93,351.66,535.93,354.55Z"></path><path class="cls-7" d="M58.41,205.93c-14.92,18.19-19.28,45.13-10.91,67.42,9.31-8.66,15.86-21.85,16.27-33.38S61.29,217.08,58.41,205.93Z"></path><path class="cls-7" d="M55.81,275.45A46.11,46.11,0,0,0,49,303c8.06-2.92,15.18-12.42,19.44-20.14s6.65-16.38,8.82-25A43.22,43.22,0,0,0,55.81,275.45Z"></path><path class="cls-8" d="M53.88,237.69a267.31,267.31,0,0,0-9,68.92q0,10,.76,20c0,.48.79.48.75,0a267.19,267.19,0,0,1,3.9-69.72q1.82-9.6,4.35-19a.38.38,0,0,0-.73-.2Z"></path><path class="cls-8" d="M45.91,310.64a215.32,215.32,0,0,1,23.48-42.73c.28-.4-.37-.77-.65-.38a216.22,216.22,0,0,0-23.55,42.91c-.18.45.54.64.72.2Z"></path><path class="cls-7" d="M37.16,288.05a38.55,38.55,0,0,1,5.66,23c-6.73-2.45-12.66-10.37-16.22-16.8s-5.54-13.66-7.35-20.84A36,36,0,0,1,37.16,288.05Z"></path><path class="cls-8" d="M45.73,316.34a176,176,0,0,0-19.3-34.92c-.28-.4-.93,0-.65.37A175.64,175.64,0,0,1,45,316.54c.17.44.9.25.72-.2Z"></path><path class="cls-8" d="M46,320.53c9.49-10.17,19.19-20.15,28.68-30.33.33-.35-.2-.88-.53-.53C64.61,299.85,54.91,309.83,45.42,320c-.33.36.2.89.53.53Z"></path><path class="cls-7" d="M74.94,285.48a192.84,192.84,0,0,0-22.39,27.06h1.51a22.27,22.27,0,0,0,16.29-8.62A24.26,24.26,0,0,0,74.94,285.48Z"></path><path class="cls-7" d="M36.21,265.58q5.31,9,10,18.45"></path><path class="cls-7" d="M27.42,235.3c-1.35,6.33-2.69,14.55-2.7,21.13s1.91,13,5.5,17.42S41.06,280.2,44,277.67Z"></path><rect class="cls-8" x="27.23" y="323.43" width="35.98" height="6.95"></rect><polygon class="cls-8" points="57.39 355.14 35.04 355.14 30.98 328.79 60.6 328.79 57.39 355.14"></polygon><polygon class="cls-9" points="31.25 330.51 60.39 330.51 60.02 333.5 31.71 333.5 31.25 330.51"></polygon><path class="cls-10" d="M482.45,173.24a18.55,18.55,0,0,1,25.87,7.34c5.2,9.48,2,21.55-7.05,27a18.33,18.33,0,0,1-21.41-1.87l-5.63.92,1.34-6.12c-.05-.09-.11-.18-.17-.27C470.2,190.73,473.36,178.65,482.45,173.24Z"></path><path class="cls-10" d="M485.82,168.86a19,19,0,0,0-13.66,11.78"></path><path class="cls-10" d="M471.21,183.42a7.44,7.44,0,0,0-.68,2.83"></path><polygon class="cls-3" points="489.64 197.86 481.64 190.25 484.19 187.34 489.55 192.44 498.47 183.37 501.11 186.18 489.64 197.86"></polygon><path class="cls-10" d="M287.17,47.06a19.57,19.57,0,0,1,27.34,7.55c5.55,10,2.31,22.71-7.24,28.49a19.34,19.34,0,0,1-22.6-1.81l-5.93,1,1.37-6.46a2.82,2.82,0,0,1-.18-.29C274.38,65.6,277.62,52.84,287.17,47.06Z"></path><path class="cls-10" d="M314.54,49.81a19.5,19.5,0,0,0-17-8.11"></path><path class="cls-10" d="M294.57,42a6.89,6.89,0,0,0-2.89.62"></path><rect class="cls-3" x="287.21" y="62.09" width="18.68" height="4.87"></rect><polygon class="cls-3" points="304.16 69.6 304.16 59.77 308.76 64.69 304.16 69.6"></polygon><path class="cls-11" d="M409.53,170.86s-.5,8.94-4.68,24.59a256.08,256.08,0,0,1-9.55,28.45c-2.09,5.24-4.48,10.8-7.23,16.65-1.24,2.66-2.57,5.36-4,8.14-1.6,47.38-27.12,95.55-27.12,95.55-1.41.76-6.35-.07-6.31-1.57,3.77-6.25,11.21-67,16-95.77.3-3.91.73-8.06,1.26-12.44,1.4-11.63,3.48-24.27,5.52-35.39,3.17-17.52,6.19-31.26,6.19-31.26l8.41.85Z"></path><path class="cls-8" d="M356.72,354.46h-1.44l-.41-1.89-4.86,2.3H337.7s-2-2.05,3.9-3.67a4.85,4.85,0,0,0,.82-.33c3.13-1.53,7.57-6.69,7.57-6.69h6.75a7.7,7.7,0,0,1,.55,1C358,346.72,359.3,350,356.72,354.46Z"></path><path class="cls-11" d="M357.29,345.18h0c-.88-1-4.93,3.51-7.91,5.07-2.65,1.37-5.63,2-7,.58,3.13-1.53,8.7-8.69,8.7-8.69l4.77.5S357,344.51,357.29,345.18Z"></path><path class="cls-11" d="M419.56,236.46h0q-1,7.65-2.62,16.36c9.11,31.69-9.63,93.55-9.63,93.55-3.17.65-6,.23-7.4-.89,3.53-18.64,1-67.09-1.76-96.05-.24-2.62-.55-5.51-.88-8.6-.57-5.22-1.24-11-2-16.93-1.21-10-2.57-20.43-3.8-29.72-1.5-11.23-2.8-20.73-3.48-25.5-.27-2.1-.44-3.29-.44-3.29l26.31,3s6.7,7.82,7.74,32.24A208.76,208.76,0,0,1,419.56,236.46Z"></path><path class="cls-8" d="M408,354.46h-1.47l-.41-1.89-4.85,2.3h-12.3s-2-2.05,3.91-3.67a5.31,5.31,0,0,0,.83-.33c3.11-1.53,7.56-6.69,7.56-6.69H408a10.11,10.11,0,0,1,.56,1C409.28,346.72,410.51,350,408,354.46Z"></path><path class="cls-11" d="M408.54,345.18h0c-.9-1-5,3.51-7.92,5.07-2.66,1.37-5.64,2-6.95.58,3.11-1.53,8-8.19,8-8.19h5.42S408.21,344.51,408.54,345.18Z"></path><path class="cls-8" d="M426.47,102c-1.35-1.22-3.54-.75-5.39-1a8.6,8.6,0,0,1-6.31-4.88,26.14,26.14,0,0,1-2-7.74,18.05,18.05,0,0,0-2.54-7.56c-1.55-2.24-5.28-5-8-3.32l-3.63,5.87a182,182,0,0,1,5.3,20.89c.61,3.15,1.21,6.48,3.4,8.93s5.55,3.58,8.89,3.8a11,11,0,0,0,5-.65,5.28,5.28,0,0,0,3.2-3.47,3.48,3.48,0,0,0-2.05-4,10.52,10.52,0,0,0,4.11-2.64C427.46,105.06,427.68,103.09,426.47,102Z"></path><path class="cls-8" d="M374.49,72.84a14,14,0,0,0-4,12.57c1.4,4.5,3.51,7.48,5.49,11.74l7-29.26C380.34,69,379,68.63,374.49,72.84Z"></path><path class="cls-8" d="M387,67.72c8.1.17,16.23,7.23,16.86,14.08S398,97.48,396.82,98L393,99.49s4.23-10.19,2.47-12.91-3-2.76-3-2.76Z"></path><path class="cls-8" d="M380.12,69.35c4.21-3.11,9.19-1.33,12.14,0a14,14,0,0,1,6.45,9.31c.65,3.68,1.43,8.14-.38,10.46a5.73,5.73,0,0,1-4.13,2.31L373.8,78A21.53,21.53,0,0,1,380.12,69.35Z"></path><path class="cls-11" d="M388.35,119.2c1.6,1.19,2.74.48,4.4-.63,10-6,5.87-10.79,5.87-10.79-2.45-2.09-3.06-5-3.11-9.68,0-.14,0-.27-.05-.4a3.07,3.07,0,0,0-.83-1.58,2.82,2.82,0,0,0-4.11,0h0L386,98.43h0v.22c.42,2.47.82,4.38,1.07,5.89a3.47,3.47,0,0,0,.08.55h0a2.7,2.7,0,0,0,.08.56c.24,2.08-2.58,5.75-3.82,6.73C382.66,113,382.94,115.2,388.35,119.2Z"></path><path class="cls-12" d="M386,98.36h0a.89.89,0,0,1,0,.23c.41,2.47.82,4.37,1.06,5.88,0,.19.07.37.09.55h0a5.83,5.83,0,0,1,0,.59h0a19,19,0,0,0,8.2-8h0a3.16,3.16,0,0,0-.78-1.57,2.85,2.85,0,0,0-4.12-.08Z"></path><path class="cls-11" d="M396.12,80.21c1.31,8.55,2,12.12-1,17.48-4.63,8-14.74,8-18.45.13-3.28-7.14-4.9-19.88,2.12-25.25S394.81,71.66,396.12,80.21Z"></path><path class="cls-11" d="M401,86.82a7,7,0,0,1-3.09,4.28c-2,1.16-4-2.1-3.88-4.54a4.55,4.55,0,0,1,4.08-4.26C400.28,82.15,401.59,84.54,401,86.82Z"></path><path class="cls-13" d="M396.38,87.64a3.33,3.33,0,0,1,.45-2.37,3.06,3.06,0,0,1,1.93-1.35"></path><path class="cls-8" d="M386.13,85.9c.19.9-.08,1.76-.61,1.92s-1.11-.44-1.3-1.34.08-1.76.6-1.92S385.93,85,386.13,85.9Z"></path><path class="cls-8" d="M378.16,88.12c.19.87-.09,1.71-.62,1.87s-1.1-.42-1.28-1.29.09-1.71.62-1.87S378,87.25,378.16,88.12Z"></path><path class="cls-8" d="M387,82.32a.37.37,0,0,1-.31,0,3,3,0,0,0-2.86,0,.37.37,0,0,1-.54-.14.5.5,0,0,1,.16-.61,3.64,3.64,0,0,1,3.62,0,.45.45,0,0,1,.16.58A.41.41,0,0,1,387,82.32Z"></path><path class="cls-8" d="M374.39,84.65a.29.29,0,0,1-.23-.13.46.46,0,0,1,.06-.59,3.34,3.34,0,0,1,3.21-1.15.39.39,0,0,1,.22.51.38.38,0,0,1-.45.31,2.71,2.71,0,0,0-2.54.94A.34.34,0,0,1,374.39,84.65Z"></path><path class="cls-14" d="M380.22,87.1A30.29,30.29,0,0,1,378.86,93a.68.68,0,0,0,.55.91,4,4,0,0,0,2.17-.58Z"></path><path class="cls-8" d="M385.14,84.51l-2,.07S384.55,85.73,385.14,84.51Z"></path><path class="cls-8" d="M377.07,86.79l-2,.07S376.49,88,377.07,86.79Z"></path><path class="cls-8" d="M393.66,82.82s-5.64-4.66-6.61-9.39c0,0-17.37-.69-13.2,14,0,0-5.88-12.3,7.38-17s19.33,13.31,14.28,21C395.47,91.35,397.15,85.76,393.66,82.82Z"></path><path class="cls-8" d="M375.36,73.49a12.83,12.83,0,0,0-2.26,7.34c.33,1.86,3,2.73,3,2.73L378.33,79l.62,3.54C383.69,81,386,77.83,387,73.66l-3.58-4.51S376.71,71.74,375.36,73.49Z"></path><path class="cls-15" d="M385,94.83a1.77,1.77,0,0,0,1.52-.5,2,2,0,0,0,.52-1.57"></path><path class="cls-12" d="M401.15,92.06s6.12-7.91,1.33-14.65a7.51,7.51,0,0,1,2.86,6.9C404.81,87.74,403.38,90.52,401.15,92.06Z"></path><path class="cls-12" d="M419.56,236.46h0a78.77,78.77,0,0,1-22.29,4.37c-.57-5.22-1.24-11-2-16.93q-3.12,7.86-7.23,16.65A53.55,53.55,0,0,1,368,234.47c1.4-11.63,3.48-24.27,5.53-35.39a32.26,32.26,0,0,1,8.94-3.77,38.51,38.51,0,0,1,9.13-1.15,67.23,67.23,0,0,1,13.34,1.28,81.64,81.64,0,0,1,16.67,5.16A207.76,207.76,0,0,1,419.56,236.46Z"></path><path class="cls-8" d="M379.14,165.39h34.94l.95,4.7s12.84,18.51,6.33,64.68c0,0-28.11,3.38-54.59-2.54,0,0,5.94-47.43,12.15-62.91Z"></path><path class="cls-16" d="M412.32,151.08l2.48,19.36-38.3-1.61c-.1-4.16,3.46-15.2,3.05-18.21-1.17-3.73-7.05-9.36-8.62-13.87-1.67-6.25,1.78-23.46,2.91-24,1.36-.66,3.06-.6,4.11-1.08,4.06-1,13.31-4.44,17.45-5,.81-.08,1.6-.23,2.4-.32,0,0,15.67-.79,16.36,5.85A152.24,152.24,0,0,0,412.32,151.08Z"></path><polygon class="cls-17" points="412.01 146.97 411.7 141.67 405.9 125.19 410.44 144.59 396.03 149.85 412.01 146.97"></polygon><path class="cls-17" d="M395.33,164.25c.51-.07,5.06-5.22,5.06-5.22l13,.52-.63-4.9c.39-.32-15.2.42-15.2.42l-2.24,5.06Z"></path><path class="cls-16" d="M408.24,107.91c.67.09,3.4-1.52,8.31,5.06S427,144.65,427.3,148.31c.39,4.65-2.58,6.94-5.55,7.45-8.89,1.53-25.31,1.84-25.31,1.84v-7.88l16.38-3.87s-9.29-23.32-7.83-29.33S408.24,107.91,408.24,107.91Z"></path><path class="cls-11" d="M400.88,106.34A17.09,17.09,0,0,1,388.55,120c-2.22.56-4.7-.72-6.45-2.24a10.14,10.14,0,0,1-3.34-6.09C386.47,108.5,393.45,105.78,400.88,106.34Z"></path><path class="cls-12" d="M412.82,145.85s2.66-.15,3.79,1.36c0,0-.68-2.9-4.15-2.29Z"></path><path class="cls-18" d="M391.15,196.43V108.54H306.94v35.12c1.53.6,6.51,1,8,.41,2.66-1,.92-4.22,3.49-5.48,3.78-1.86,8.5.76,10.49,4.6a11.74,11.74,0,0,1,1.68,7.11,11.77,11.77,0,0,1-1.68,7.11c-2,3.84-6.71,6.46-10.49,4.6-2.57-1.26-.48-4.37-3.14-5.4-1.51-.59-6.85-.27-8.38.33v39.49H344.6a6.6,6.6,0,0,1-.34,2.53c-1,2.77-3.82,4.42-5,7.09-1.78,3.95.73,8.86,4.42,10.93,2.86,1.6,4.35,1.91,6.82,1.76,2.47.15,4-.16,6.83-1.76,3.68-2.07,6.19-7,4.41-10.93-1.21-2.67-4-4.32-5-7.09a6.41,6.41,0,0,1-.34-2.53Z"></path><path class="cls-19" d="M395.33,196.43V108.54H311.12v35.12a6.45,6.45,0,0,0,4.71.16c2.66-1,4.24-4,6.81-5.23,3.79-1.86,8.5.76,10.49,4.6a11.67,11.67,0,0,1,1.68,7.11,11.69,11.69,0,0,1-1.68,7.11c-2,3.84-6.7,6.46-10.49,4.6-2.57-1.26-4.15-4.2-6.81-5.23a6.45,6.45,0,0,0-4.71.16v39.49h37.66a6.6,6.6,0,0,1-.34,2.53c-1,2.77-3.82,4.42-5,7.09-1.78,3.95.73,8.86,4.42,10.93,2.86,1.6,4.35,1.91,6.82,1.76,2.47.15,4-.16,6.83-1.76,3.68-2.07,6.19-7,4.41-10.93-1.21-2.67-4-4.32-5-7.09a6.41,6.41,0,0,1-.34-2.53Z"></path><g class="cls-20"><path class="cls-19" d="M395.33,196.43V108.54H311.12v35.12a6.45,6.45,0,0,0,4.71.16c2.66-1,4.24-4,6.81-5.23,3.79-1.86,8.5.76,10.49,4.6a11.67,11.67,0,0,1,1.68,7.11,11.69,11.69,0,0,1-1.68,7.11c-2,3.84-6.7,6.46-10.49,4.6-2.57-1.26-4.15-4.2-6.81-5.23a6.45,6.45,0,0,0-4.71.16v39.49h37.66a6.6,6.6,0,0,1-.34,2.53c-1,2.77-3.82,4.42-5,7.09-1.78,3.95.73,8.86,4.42,10.93,2.86,1.6,4.35,1.91,6.82,1.76,2.47.15,4-.16,6.83-1.76,3.68-2.07,6.19-7,4.41-10.93-1.21-2.67-4-4.32-5-7.09a6.41,6.41,0,0,1-.34-2.53Z"></path></g><path class="cls-19" d="M395.33,151.26s-5.65,1.47-6.27,2.86,1.47,1.28,1.47,1.28-2.29.26-2.32,1.29c0,1.24,2.17,1.12,2.17,1.12s-1.87.29-1.83,1.21,2.52,1,2.52,1-1.28.47-.9,1.09,5.63.83,7.18-.2,1.56-8.08,1.26-9.62-1.42-2.37-3.28-4.7v4.67Z"></path><path class="cls-21" d="M390.54,155.51h0l4-.66a.11.11,0,0,0,.08-.13c0-.06-.06-.11-.11-.1l-4,.66a.11.11,0,0,0-.08.13A.09.09,0,0,0,390.54,155.51Z"></path><path class="cls-21" d="M390.5,157.92h0l3.87-.32c.05,0,.09-.06.09-.12a.12.12,0,0,0-.11-.11l-3.87.32c-.05,0-.09.06-.09.12A.12.12,0,0,0,390.5,157.92Z"></path><path class="cls-21" d="M391.21,160.13l2.88-.15c.05,0,.09-.06.09-.12s-.05-.12-.1-.11l-2.88.15c-.06,0-.1,0-.1.12A.12.12,0,0,0,391.21,160.13Z"></path><path class="cls-11" d="M330.69,148.93s6.06,1.77,6.68,3.15-1.48,1.28-1.48,1.28,2.3.27,2.32,1.3c0,1.23-2.16,1.11-2.16,1.11s1.87.3,1.83,1.22-2.52,1-2.52,1,1.27.47.9,1.09-5.64.83-7.19-.2-1.56-8.07-1.25-9.61.42-1.29,2.28-3.62l.33,1.3a5.79,5.79,0,0,1,.19,1.09Z"></path><path class="cls-9" d="M335.89,153.48h0l-4-.66a.11.11,0,0,1-.08-.13c0-.07.06-.11.11-.1l4,.66a.11.11,0,0,1,.08.13A.11.11,0,0,1,335.89,153.48Z"></path><path class="cls-9" d="M335.93,155.88h0l-3.87-.31a.12.12,0,0,1-.09-.13.11.11,0,0,1,.1-.11l3.87.32a.11.11,0,0,1,.09.13A.09.09,0,0,1,335.93,155.88Z"></path><path class="cls-9" d="M335.22,158.09l-2.88-.15a.09.09,0,0,1-.09-.12.1.1,0,0,1,.1-.11l2.88.15a.11.11,0,0,1,.09.12C335.32,158.05,335.27,158.1,335.22,158.09Z"></path><polygon class="cls-11" points="206.64 344.63 215 345.48 221.17 323.43 208.46 321.98 206.64 344.63"></polygon><path class="cls-8" d="M216.21,341.63h-3a2.11,2.11,0,0,0-1.7.93c-1.72,2.45-3,1.52-4.88-.78-1.19-.15-1.51,1.28-1.61,1.66l-2.23,8.46a1.34,1.34,0,0,0,.87,1.64,1.24,1.24,0,0,0,.38,0h23.64c3.76,0,4.54-3.95,3-4.31-7-1.61-11.9-3.74-14.05-5.86C216.23,343.05,216.64,342.78,216.21,341.63Z"></path><path class="cls-18" d="M222.68,344a1.32,1.32,0,0,0,.51-1,.6.6,0,0,0-.25-.55c-.93-.69-4.66,1.13-5.08,1.34a.18.18,0,0,0-.1.11.17.17,0,0,0,.1.22,12.56,12.56,0,0,0,2.79.37A3.23,3.23,0,0,0,222.68,344Zm0-1.27a.23.23,0,0,1,.1.23,1,1,0,0,1-.37.74c-.85.66-2.9.38-4,.17C220,343.2,222.19,342.39,222.71,342.77Z"></path><path class="cls-18" d="M218,344.18c1.12-.49,3.46-2.41,3.34-3.42,0-.21-.17-.47-.68-.54-2-.24-2.92,3.58-2.92,3.75a.18.18,0,0,0,.05.18.24.24,0,0,0,.12,0Zm2.6-3.64c.38,0,.38.18.38.23.1.62-1.6,2.21-2.82,2.88.25-.89,1-3.12,2.3-3.12Z"></path><path class="cls-22" d="M218.28,344a3.65,3.65,0,0,0-2.54,1.7"></path><path class="cls-22" d="M220.13,345.49a3.56,3.56,0,0,0-2.53,1.7"></path><path class="cls-22" d="M222.44,346.71a3.65,3.65,0,0,0-2.54,1.7"></path><polygon class="cls-23" points="217.91 335.08 217.15 337.79 207.31 336.21 207.49 333.99 217.91 335.08"></polygon><polygon class="cls-11" points="255.29 344.63 263.65 345.48 269.82 323.43 257.11 321.98 255.29 344.63"></polygon><path class="cls-8" d="M264.86,341.63h-3a2.07,2.07,0,0,0-1.69.93c-1.73,2.45-3,1.52-4.89-.78-1.19-.15-1.51,1.28-1.61,1.66l-2.23,8.46a1.34,1.34,0,0,0,.88,1.64,1.14,1.14,0,0,0,.37,0h23.64c3.76,0,4.54-3.95,3-4.31-7-1.61-11.9-3.74-14.05-5.86C264.88,343.05,265.29,342.78,264.86,341.63Z"></path><path class="cls-18" d="M271.33,344a1.26,1.26,0,0,0,.51-1,.59.59,0,0,0-.24-.55c-.94-.69-4.67,1.13-5.09,1.34a.18.18,0,0,0-.1.11.18.18,0,0,0,.1.22,12.65,12.65,0,0,0,2.8.37A3.21,3.21,0,0,0,271.33,344Zm0-1.27a.21.21,0,0,1,.1.23,1,1,0,0,1-.37.74c-.85.66-2.89.38-4,.17C268.64,343.2,270.85,342.39,271.36,342.77Z"></path><path class="cls-18" d="M266.64,344.18c1.12-.49,3.47-2.41,3.34-3.42,0-.21-.17-.47-.67-.54-2.05-.24-2.93,3.58-2.93,3.75a.18.18,0,0,0,.05.18.24.24,0,0,0,.12,0Zm2.6-3.64c.38,0,.38.18.38.23.11.62-1.6,2.21-2.82,2.88.26-.89,1-3.12,2.3-3.12Z"></path><path class="cls-22" d="M266.93,344a3.62,3.62,0,0,0-2.53,1.7"></path><path class="cls-22" d="M268.78,345.49a3.58,3.58,0,0,0-2.53,1.7"></path><path class="cls-22" d="M271.09,346.71a3.62,3.62,0,0,0-2.53,1.7"></path><polygon class="cls-23" points="266.56 335.08 265.8 337.79 255.97 336.21 256.14 333.99 266.56 335.08"></polygon><path class="cls-18" d="M273.15,178.44s6.93,31.88,10.23,59.65c1,8.46,1.2,19.78-.58,28.11l-13.35,69.18-16.8-1.75C255.29,303.79,259,267,260,251.34c-3.69-18.35-11.57-40.56-19.31-62.64Z"></path><g class="cls-24"><path d="M273.15,178.44s6.93,31.88,10.23,59.65c1,8.46,1.2,19.78-.58,28.11l-13.35,69.18-16.8-1.75C255.29,303.79,259,267,260,251.34c-3.69-18.35-11.57-40.56-19.31-62.64Z"></path></g><path class="cls-18" d="M217.94,256.91c.38-1.73,1-5.23,1.74-9.85l-.07,0c.54-6.11,1.55-34.47,3.41-52.55,1.42-11.52,4.25-19.32,7.09-23.13l.41-.54c.47-.61.76-.95.76-.95.54.14,1.07.27,1.61.39l.6.14a82,82,0,0,0,37.75-1.13c1.85,4.76,3.23,14.91,4.58,25.43-2.1,2.4-11.32,5.52-21.89,7.58l-3,14.22c-1.59,8.81-3.62,17.46-5.36,25.24l-1.8,8.53c-.11.56-.22,1.11-.32,1.66-.92,4.9-22.76,83.87-22.76,83.87l-14.23-.87S212.8,280.27,217.94,256.91Z"></path><path class="cls-12" d="M217.94,256.91c.38-1.73,1-5.23,1.74-9.85l-.07,0c.54-6.11,1.55-34.47,3.41-52.55,1.42-11.52,4.25-19.32,7.09-23.13l.41-.54c.47-.61.76-.95.76-.95.54.14,1.07.27,1.61.39l.6.14a82,82,0,0,0,37.75-1.13c1.85,4.76,3.23,14.91,4.58,25.43-2.1,2.4-11.32,5.52-21.89,7.58l-3,14.22c-1.59,8.81-3.62,17.46-5.36,25.24l-1.8,8.53c-.11.56-.22,1.11-.32,1.66-.92,4.9-22.76,83.87-22.76,83.87l-14.23-.87S212.8,280.27,217.94,256.91Z"></path><path class="cls-12" d="M250.72,217.81c-.06.29,6.51-24.6,6.51-24.6s5.53,22.23-2.88,36.13Z"></path><path class="cls-11" d="M236.58,105.51s3.34,2.68,7.64,6.54a16.22,16.22,0,0,0,2.93,2.08c2.82,1.56,5.39,2.45,6.08,1a4.87,4.87,0,0,0,.37-1c.59-2.37.34-5.7-1.5-7.23-2.07-1.72-3.07-3.19-2.7-5.52a18.49,18.49,0,0,1,1.19-4l-1.63-2-8.54-9C240.64,92.43,241.07,102.25,236.58,105.51Z"></path><path class="cls-9" d="M249.33,101.92c-2.34-1.45-4.92-4-4.61-6.85a14.1,14.1,0,0,1,.67-3.1l4.76,6.58A17.48,17.48,0,0,0,249.33,101.92Z"></path><path class="cls-11" d="M238,76.8c.8,9.14,1,13,5.48,17.81,6.81,7.21,17.29,4.79,19.09-4.28,1.62-8.15,0-21.73-8.58-25.57S237.2,67.66,238,76.8Z"></path><path class="cls-8" d="M248.93,79.68c0,.86.55,1.56,1.13,1.57s1-.67,1-1.52-.55-1.56-1.12-1.58S248.89,78.83,248.93,79.68Z"></path><path class="cls-8" d="M258,79.55c.05.83.55,1.51,1.13,1.53s1-.65,1-1.48-.55-1.51-1.13-1.53S258,78.72,258,79.55Z"></path><path class="cls-8" d="M247.54,76.41a.41.41,0,0,0,.31-.11,3.09,3.09,0,0,1,2.89-.84.39.39,0,0,0,.51-.3.51.51,0,0,0-.32-.57,3.85,3.85,0,0,0-3.67,1,.47.47,0,0,0,0,.64A.5.5,0,0,0,247.54,76.41Z"></path><path class="cls-8" d="M260.83,76a.39.39,0,0,0,.31,0,.46.46,0,0,0,.11-.62A4.51,4.51,0,0,0,257.9,73a.4.4,0,0,0-.41.43.48.48,0,0,0,.43.48,3.58,3.58,0,0,1,2.63,1.85A.48.48,0,0,0,260.83,76Z"></path><path class="cls-8" d="M241.75,82.53s2.7-4.26,1.59-12.56a2.61,2.61,0,0,1,2-3c3.78-.77,8.84-5.74,15,4.14,0,0-2.95-11.84-20.18-7.07-15.34,4.24-4.84,17.79-3.26,19.19S241.75,82.53,241.75,82.53Z"></path><path class="cls-11" d="M235.35,84.25a7.1,7.1,0,0,0,4.27,3.45c2.32.61,3.52-3.28,2.73-5.7a4.64,4.64,0,0,0-5.26-3.15C234.87,79.31,234.17,82.11,235.35,84.25Z"></path><path class="cls-8" d="M255.81,88.48a27.07,27.07,0,0,0-1.57,3.37l-.62-.15c-2.79-.68-3.87-2-4.22-3.17a4.06,4.06,0,0,1-.06-1.82,4.12,4.12,0,0,1,.31-1c1.27,1.28,3.83,2.12,5.21,2.51C255.44,88.4,255.81,88.48,255.81,88.48Z"></path><path class="cls-3" d="M254.86,88.23l-.48,1c-2.63-.64-4.4-1.47-5-2.5a4.12,4.12,0,0,1,.31-1C250.92,87,253.48,87.84,254.86,88.23Z"></path><path class="cls-25" d="M253.62,91.7c-2.79-.68-3.87-2-4.22-3.17a9.17,9.17,0,0,1,3,1.4A3.64,3.64,0,0,1,253.62,91.7Z"></path><path class="cls-14" d="M255.67,79.3a31.53,31.53,0,0,0,2.92,5.56.72.72,0,0,1-.32,1.08,4.18,4.18,0,0,1-2.35,0Z"></path><path class="cls-8" d="M249.72,78.13l2-.49S250.63,79.2,249.72,78.13Z"></path><path class="cls-8" d="M258.78,78.09l2-.49S259.69,79.16,258.78,78.09Z"></path><path class="cls-8" d="M261.87,75s5.31-6.55,1.77-12c-1.33-2-3.78-2.33-5.94-3.33-5-2.28-9-2.74-15.37,3.75-6.61,6.75-7.81,9-.52,17.35,0,0-.78-1.09,1.91-3.56s5.68-4.68,4.23-7.08a4,4,0,0,1,2.4,3.12l4-1.12A7.94,7.94,0,0,0,253.08,69a7.16,7.16,0,0,1,2.71,3.09l3.41.67s-.5-3.26-1.46-4.43A20.91,20.91,0,0,1,261.87,75Z"></path><path class="cls-13" d="M240.57,84a3.76,3.76,0,0,0-1.06-2.29,3.46,3.46,0,0,0-2.25-1"></path><path class="cls-8" d="M282.27,159.84a13.25,13.25,0,0,1-1.4-1.31c-.37-.41-.63-.93-.54-.93a.87.87,0,0,0-.07-.17l-.16-.38-.38-1c-.26-.73-.51-1.53-.76-2.35-.52-1.61-1-3.29-1.48-5-1-3.4-1.87-6.84-2.8-10.29l-1.7-7.23c-.24-1.17-.62-2.88-1.13-4.83h0c-1.38-5.31-3.69-12.4-6.71-15.21-4.69-3.74-7.68.87-9.6,5.66-1.86,4.6,2.71,17.17,2.71,17.17l5.57-.42c.7,2.67,1.44,5.33,2.17,8.05.95,3.54,2.08,7,3.2,10.49.58,1.75,1.18,3.49,1.83,5.25.39.89.74,1.77,1.13,2.7.19.46.41.95.65,1.44l.41.81a10.43,10.43,0,0,0,.59,1,9.27,9.27,0,0,0,3,2.62,12,12,0,0,0,2.76,1.2,16,16,0,0,0,5.32.67l1-5.07C284.66,161.73,283.34,160.76,282.27,159.84Z"></path><path class="cls-26" d="M282.27,159.84a13.25,13.25,0,0,1-1.4-1.31c-.37-.41-.63-.93-.54-.93a.87.87,0,0,0-.07-.17l-.16-.38-.38-1c-.26-.73-.51-1.53-.76-2.35-.52-1.61-1-3.29-1.48-5-1-3.4-1.87-6.84-2.8-10.29l-1.7-7.23c-.24-1.17-.62-2.88-1.13-4.83h0c-1.38-5.31-3.69-12.4-6.71-15.21-4.69-3.74-7.68.87-9.6,5.66-1.86,4.6,2.71,17.17,2.71,17.17l5.57-.42c.7,2.67,1.44,5.33,2.17,8.05.95,3.54,2.08,7,3.2,10.49.58,1.75,1.18,3.49,1.83,5.25.39.89.74,1.77,1.13,2.7.19.46.41.95.65,1.44l.41.81a10.43,10.43,0,0,0,.59,1,9.27,9.27,0,0,0,3,2.62,12,12,0,0,0,2.76,1.2,16,16,0,0,0,5.32.67l1-5.07C284.66,161.73,283.34,160.76,282.27,159.84Z"></path><g class="cls-20"><path d="M266.17,119.28a19.29,19.29,0,0,1,1.85,4.55c.59,1.93,1.26,12.35-2.12,15.43V132C266,127.61,266.05,123.7,266.17,119.28Z"></path></g><path class="cls-8" d="M224.66,132.45l-5.22-18.57c3.3-5.14,19.66-9.09,19.66-9.09l8.38,3.07,2.39-2.45s4.15,1,7.69,2.16c4.73,1.61,7.29,2.91,8.42,5.64,0,0,2,6.07.79,18.57-.33,3.43,0,21.3,1,27.2l5.58,18.4c-19.69,16-47.24,1.06-47.24,1.06.88-2.83,3.83-11.49,4.23-14.25-.29-3.51.11-8.94-1.32-15.1C228.71,147.9,225.14,133.61,224.66,132.45Z"></path><path class="cls-26" d="M224.66,132.45l-5.22-18.57c3.3-5.14,19.66-9.09,19.66-9.09l8.38,3.07,2.39-2.45s4.15,1,7.69,2.16c4.73,1.61,7.29,2.91,8.42,5.64,0,0,2,6.07.79,18.57-.33,3.43,0,21.3,1,27.2l5.58,18.4c-19.69,16-47.24,1.06-47.24,1.06.88-2.83,3.83-11.49,4.23-14.25-.29-3.51.11-8.94-1.32-15.1C228.71,147.9,225.14,133.61,224.66,132.45Z"></path><path class="cls-18" d="M284.48,152.45a16.13,16.13,0,0,1,13.71-14.93l-1.52,2.62,2.89-1.78-13.22,17.28Z"></path><path class="cls-27" d="M284.48,152.45a16.13,16.13,0,0,1,13.71-14.93l-1.52,2.62,2.89-1.78-13.22,17.28Z"></path><path class="cls-18" d="M263.77,138.27l4.54-.15,21.76,7.69-19.83,31.57-19.52-5.08a2.19,2.19,0,0,1-1.45-2.68,2.08,2.08,0,0,1,.19-.49l7.89-14.86a1,1,0,0,0,0-.94l-1.07-2a1.35,1.35,0,0,1,0-1.32l5.28-10.32A2.68,2.68,0,0,1,263.77,138.27Z"></path><polygon class="cls-18" points="290.06 145.81 302.45 137.52 282.08 169.06 270.24 177.38 290.06 145.81"></polygon><polygon class="cls-12" points="290.06 145.81 302.45 137.52 282.08 169.06 270.24 177.38 290.06 145.81"></polygon><path class="cls-11" d="M287.63,160.48s-4.81-1.32-5.87-.46.39,1.68.39,1.68-1.66-.77-2.15.05c-.59,1,.93,1.85.93,1.85s-1.39-.57-1.79.19,1.22,1.91,1.22,1.91-1.07-.17-1.11.49,3.39,3.11,4.9,2.95,4.8-5.9,5.31-7.29a2.89,2.89,0,0,0-.51-3.42l-1.32,2Z"></path><path class="cls-9" d="M282.1,161.8h0l3,1.19a.11.11,0,0,0,.11-.08s0-.11,0-.12l-3-1.19a.1.1,0,0,0-.11.07C282.06,161.73,282.07,161.78,282.1,161.8Z"></path><path class="cls-9" d="M281,163.74h0l2.73,1.41s.09,0,.12-.06a.09.09,0,0,0,0-.13l-2.74-1.42s-.09,0-.11.06S280.92,163.72,281,163.74Z"></path><path class="cls-9" d="M280.41,165.84l2,1.13s.09,0,.12-.06a.09.09,0,0,0,0-.13l-2-1.13a.1.1,0,0,0-.12.06A.09.09,0,0,0,280.41,165.84Z"></path><polygon class="cls-8" points="252.96 106.19 249.33 102.53 247.48 107.86 239.41 101.15 235.32 105.83 245.45 113.19 247.48 108.52 252.96 112.81 252.96 106.19"></polygon><path class="cls-23" d="M253,106.19c.26.41,0,6.62,0,6.62l-5.48-4.29-2,4.67-9.74-7,10,9.06,1.8-5.5,6.12,5.5Z"></path><path class="cls-23" d="M258.15,135l-27.92,28v-5.54s25.13-24,25.44-24A14.76,14.76,0,0,1,258.15,135Z"></path><polygon class="cls-23" points="231.93 137.17 228.9 124.17 228.3 139.26 231.93 137.17"></polygon><path class="cls-18" d="M236.94,87.47a1.68,1.68,0,1,0,1.67-1.75A1.71,1.71,0,0,0,236.94,87.47Z"></path><path class="cls-8" d="M219.44,113.88s-3.78,3.83-5.05,16.9c-.91,9.38-3.22,29.61,3.78,32.21s37.5-27.8,37.5-27.8l-4.95-8.86L228.3,139.26s2.29-21.43-1.66-23.39A18.47,18.47,0,0,0,219.44,113.88Z"></path><path class="cls-26" d="M219.44,113.88s-3.78,3.83-5.05,16.9c-.91,9.38-3.22,29.61,3.78,32.21s37.5-27.8,37.5-27.8l-4.95-8.86L228.3,139.26s2.29-21.43-1.66-23.39A18.47,18.47,0,0,0,219.44,113.88Z"></path><path class="cls-11" d="M252.63,125.68s2.94-6.14,4.34-6.41a4.6,4.6,0,0,1,2.52.21s9.51-5.84,10.14-4.3c.35.83-1.77,2.66-6.3,5.36,0,0,2.61,1,1.56,2.59a2.05,2.05,0,0,1,.9,2.91s.88,1.76-.23,2.88-6.34,4.22-9.36,4.69-4.79-5.67-4.79-5.67Z"></path><path class="cls-18" d="M284.76,301.15c2.56,1.26,4.14,4.21,6.8,5.24a6.44,6.44,0,0,0,4.65-.14V266.73h-36.3a6.55,6.55,0,0,1,.34-2.52c1-2.77,3.82-4.42,5-7.1,1.78-3.94-.73-8.86-4.42-10.93-2.85-1.6-4.35-1.9-6.82-1.75-2.47-.15-4,.15-6.82,1.75-3.69,2.07-6.2,7-4.42,10.93,1.21,2.68,4,4.33,5,7.1a6.35,6.35,0,0,1,.33,2.52H211.87v87.89h84.34V319.48a6.44,6.44,0,0,0-4.65-.14c-2.66,1-4.25,4-6.8,5.24-3.41,1.71-8.49-.77-10.49-4.6a15.82,15.82,0,0,1,0-14.23C276.25,301.91,281,299.29,284.76,301.15Z"></path><path class="cls-28" d="M284.76,301.15c2.56,1.26,4.14,4.21,6.8,5.24a6.44,6.44,0,0,0,4.65-.14V266.73h-36.3a6.55,6.55,0,0,1,.34-2.52c1-2.77,3.82-4.42,5-7.1,1.78-3.94-.73-8.86-4.42-10.93-2.85-1.6-4.35-1.9-6.82-1.75-2.47-.15-4,.15-6.82,1.75-3.69,2.07-6.2,7-4.42,10.93,1.21,2.68,4,4.33,5,7.1a6.35,6.35,0,0,1,.33,2.52H211.87v87.89h84.34V319.48a6.44,6.44,0,0,0-4.65-.14c-2.66,1-4.25,4-6.8,5.24-3.41,1.71-8.49-.77-10.49-4.6a15.82,15.82,0,0,1,0-14.23C276.25,301.91,281,299.29,284.76,301.15Z"></path><path class="cls-10" d="M288.89,301.15c2.57,1.26,4.15,4.21,6.81,5.24a6.42,6.42,0,0,0,4.64-.14V266.73H264.05a6.36,6.36,0,0,1,.34-2.52c1-2.77,3.81-4.42,5-7.1,1.79-3.94-.73-8.86-4.41-10.93-2.86-1.6-4.36-1.9-6.83-1.75-2.46-.15-4,.15-6.82,1.75-3.68,2.07-6.2,7-4.41,10.93,1.2,2.68,4,4.33,5,7.1a6.55,6.55,0,0,1,.34,2.52H216v87.89h84.33V319.48a6.42,6.42,0,0,0-4.64-.14c-2.66,1-4.25,4-6.81,5.24-3.41,1.71-8.49-.77-10.49-4.6a15.91,15.91,0,0,1,0-14.23C280.39,301.91,285.1,299.29,288.89,301.15Z"></path><path class="cls-28" d="M286.34,325.19s2.92,5.45,7.93,5,6.07-2.73,6.07-2.73l-.07-7.5-11.19,4.47A3.43,3.43,0,0,1,286.34,325.19Z"></path><path class="cls-29" d="M390.18,278.79,419,267.25l16.64-16.81c.46-.56,5.29-9.23,5.29-9.23l8.16,18.23s-20.3,21.27-27.74,23.75c-6,2-27.29,7.43-27.29,7.43Z"></path><path class="cls-30" d="M407.85,287s3.48-14.2,11.25-17.16,17.81,1.68,17.52,1.88-8.7,8.36-9,8.46-10.9,4-16.44,5.91Z"></path><path class="cls-8" d="M355.52,267.19a6.55,6.55,0,0,0,.34,2.52c1,2.77,3.82,4.42,5,7.1,1.79,3.94-.73,8.86-4.41,10.93-2.86,1.6-4.35,1.9-6.82,1.76-2.47.14-4-.16-6.83-1.76-3.68-2.07-6.19-7-4.41-10.93,1.21-2.68,4-4.33,5-7.1a6.36,6.36,0,0,0,.34-2.52H306.18v39.48a6.4,6.4,0,0,1-4.71.17c-2.66-1-4.24-4-6.81-5.23-3.78-1.86-8.5.76-10.48,4.6a15.8,15.8,0,0,0,0,14.22c2,3.84,6.7,6.46,10.48,4.6,2.57-1.26,4.15-4.2,6.81-5.24a6.5,6.5,0,0,1,4.71.17v35.12l84,.39V267.58Z"></path><g class="cls-31"><path d="M355.52,267.19a6.55,6.55,0,0,0,.34,2.52c1,2.77,3.82,4.42,5,7.1,1.79,3.94-.73,8.86-4.41,10.93-2.86,1.6-4.35,1.9-6.82,1.76-2.47.14-4-.16-6.83-1.76-3.68-2.07-6.19-7-4.41-10.93,1.21-2.68,4-4.33,5-7.1a6.36,6.36,0,0,0,.34-2.52H306.18v39.48a6.4,6.4,0,0,1-4.71.17c-2.66-1-4.24-4-6.81-5.23-3.78-1.86-8.5.76-10.48,4.6a15.8,15.8,0,0,0,0,14.22c2,3.84,6.7,6.46,10.48,4.6,2.57-1.26,4.15-4.2,6.81-5.24a6.5,6.5,0,0,1,4.71.17v35.12l84,.39V267.58Z"></path></g><path class="cls-8" d="M359.24,267.19a6.55,6.55,0,0,0,.34,2.52c1,2.77,3.82,4.42,5,7.1,1.79,3.94-.73,8.86-4.41,10.93-2.86,1.6-4.35,1.9-6.82,1.76-2.47.14-4-.16-6.83-1.76-3.68-2.07-6.2-7-4.41-10.93,1.21-2.68,4-4.33,5-7.1a6.36,6.36,0,0,0,.34-2.52H309.9v39.48a6.4,6.4,0,0,1-4.71.17c-2.66-1-4.24-4-6.81-5.23-3.78-1.86-8.5.76-10.48,4.6a15.8,15.8,0,0,0,0,14.22c2,3.84,6.7,6.46,10.48,4.6,2.57-1.26,4.15-4.2,6.81-5.24a6.5,6.5,0,0,1,4.71.17v35.12l84,.39V267.58Z"></path><path class="cls-32" d="M418.44,326.43l13.21-.83c-2.11,12.14-4.28,20-3.36,26.24L423,355.55,418,350.5A144.46,144.46,0,0,1,418.44,326.43Z"></path><path class="cls-10" d="M417.24,342l4.8.06c2.32,4.19,3.93,3.2,6.39.25,1.4-.16,1.75,1.51,1.86,2l2.5,9.93a1.57,1.57,0,0,1-1,1.92,1.65,1.65,0,0,1-.44,0L419.78,356l-16.14-.2c-4.4-.05-5.26-4.69-3.45-5.09,8.18-1.78,14-4.21,16.53-6.65C417.19,343.64,416.71,343.31,417.24,342Z"></path><path class="cls-10" d="M414.78,344.76a4.2,4.2,0,0,1,2.94,2"></path><path class="cls-10" d="M412.59,346.44a4.18,4.18,0,0,1,2.94,2"></path><path class="cls-10" d="M409.87,347.83a4.27,4.27,0,0,1,2.95,2"></path><path class="cls-33" d="M431.75,356.1a1.65,1.65,0,0,1-.44,0L419.78,356l-16.14-.2a4.22,4.22,0,0,1-4.17-2.71c.67,0,32.76.66,33.18.52l.17.74A1.56,1.56,0,0,1,431.75,356.1Z"></path><path class="cls-8" d="M469.06,289.9s-36.1-19.43-43.13-20-13.75,3.42-15.09,18.59,1.34,54.18,1.34,54.18l19.47.34,2.42-45.19s30.16,23,31.05,22.73,12.67-.79,12.67-.79Z"></path><path class="cls-26" d="M469.06,289.9s-36.1-19.43-43.13-20-13.75,3.42-15.09,18.59,1.34,54.18,1.34,54.18l19.47.34,2.42-45.19s30.16,23,31.05,22.73,12.67-.79,12.67-.79Z"></path><path class="cls-28" d="M433,319s-15.91,5.8-16.08,19.48,13.86,11.07,13.86,11.07Z"></path><path class="cls-32" d="M482.88,354.59,479.3,341c12.51-1.41,20.86,1.8,26.68-1.06l5.24,4.54-3.46,6.77S498.54,354.54,482.88,354.59Z"></path><path class="cls-10" d="M499.67,354.69l-1.39-5.12c3.4-3.74,2-5.15-1.69-6.87-.57-1.44,1-2.32,1.37-2.57l9-5.65a1.54,1.54,0,0,1,2.18.54,1.34,1.34,0,0,1,.19.44c1.22,4.52,1.81,6.66,3.33,12.29L517.3,365c1.27,4.69-3,7-3.95,5.19-4.2-8.15-8.33-13.58-11.48-15.55C501.31,354.24,501.13,354.84,499.67,354.69Z"></path><path class="cls-10" d="M503.13,356.46a4.84,4.84,0,0,1,1.09-3.74"></path><path class="cls-10" d="M505.43,358.28a4.84,4.84,0,0,1,1.09-3.74"></path><path class="cls-10" d="M507.61,360.75a4.85,4.85,0,0,1,1.1-3.74"></path><path class="cls-33" d="M509.1,335a1.34,1.34,0,0,1,.19.44c1.22,4.52,1.81,6.66,3.33,12.29L517.3,365a4.76,4.76,0,0,1-1.4,5.24c-.19-.72-9.22-35-9.49-35.41l.67-.4A1.53,1.53,0,0,1,509.1,335Z"></path><path class="cls-8" d="M508.62,297.3l1.57,8.2s4,16.27-1.62,24.44a22.48,22.48,0,0,1-13.31,9.2l1.63,15.68-1.63,1.06s-10.39,0-31.65-1c-20.19-1-37.55-2-41.13-8.5s-4.41-9.71,1.45-17.5c5.3-7.05,45.61-17.42,47-17.84l-.56-3.58-.65-2.54Z"></path><path class="cls-26" d="M508.62,297.3l1.57,8.2s4,16.27-1.62,24.44a22.48,22.48,0,0,1-13.31,9.2l1.63,15.68-1.63,1.06s-10.39,0-31.65-1c-20.19-1-37.55-2-41.13-8.5s-4.41-9.71,1.45-17.5c5.3-7.05,45.61-17.42,47-17.84l-.56-3.58-.65-2.54Z"></path><path class="cls-28" d="M495.26,339.14c-1.24.33-45-1.14-45-1.14s12.95,2.32,22.52,3.16S495.26,339.14,495.26,339.14Z"></path><path class="cls-28" d="M470.94,311l25.22-4.59S478,306.14,470.94,311Z"></path><path class="cls-32" d="M406.66,292.42s-2.11-3.38-5.24-4-5.46-2-7.82-2.36-.22,2.18,1.18,3.26,3,2.34,2,3.3-12,3.88-13.18,5.37.75,1.6.75,1.6-2.67.79-2.66,2c0,.31.49,1,1.76.86,2.86-.36,8.81-1.43,8.81-1.43-.34.05-7.6,1.93-8.65,2.35-1.38.56-1.75,1.56-1.41,2.38.48,1.17,9.55-.83,10-.64,0,0-5.26,1-5.76,2.52s2.84,1.13,5.72.18c2.64-.88,8-1.88,10.65-3,3.2-1.43,5.05-3.15,5.12-6.56A12,12,0,0,0,406.66,292.42Z"></path><polygon class="cls-32" points="403.2 292.35 411.27 288.98 414.06 298.08 404.59 301.6 403.2 292.35"></polygon><path class="cls-32" d="M461.77,229.38S459.58,224.22,460,214l-.54-.12c.06-1.43.17-2.76.29-3.92v-.05L449.1,221.12c1,3,1.3,9.15,1.25,11.8,0,0-.55,4.91,5.26,3.67C459.85,235.68,461.77,229.38,461.77,229.38Z"></path><path class="cls-9" d="M449.87,225.47l6.83-3.5c-.12,2.51-1.47,5.77-6.44,7.25A24.7,24.7,0,0,0,449.87,225.47Z"></path><path class="cls-32" d="M458.43,203.54c1.06,8.5,1.82,13.27-1.47,18.36-4.95,7.65-15.37,5.85-18.85-2.17-3.14-7.22-4.34-19.9,3-24.75S457.37,195,458.43,203.54Z"></path><path class="cls-8" d="M455.29,191.59c-3.78-4.61-10.8-.58-13.48,2.41-.39.45,6.83,2.58,6.41,2.51l2.28,2c.29-.13.9,2.79,1.42,5.32A13.28,13.28,0,0,0,455,210a32.44,32.44,0,0,0,5,4.61c2.55-2,1.77-7.13,2.09-10.35C462.6,199.47,462.49,190.5,455.29,191.59Z"></path><path class="cls-32" d="M462.91,209.9a8.11,8.11,0,0,1-2.94,5.39c-2.17,1.73-3.58-.83-3.84-3.52-.23-2.42-.1-5.46,2.5-6.13S463.18,207.28,462.91,209.9Z"></path><path class="cls-8" d="M447.34,208.28c.16.86-.15,1.64-.69,1.74s-1.11-.51-1.27-1.37.16-1.64.7-1.74S447.18,207.42,447.34,208.28Z"></path><path class="cls-8" d="M439.29,210.07c.16.86-.15,1.64-.69,1.74s-1.11-.51-1.27-1.37.15-1.64.69-1.74S439.13,209.21,439.29,210.07Z"></path><path class="cls-34" d="M441.83,209.07s-1.82,4.79-2.34,6.7c1.35.85,3.24-.05,3.24-.05Z"></path><path class="cls-8" d="M448.61,203.82a.38.38,0,0,1-.4,0,3.09,3.09,0,0,0-2.85-.11.38.38,0,0,1-.54-.15A.42.42,0,0,1,445,203a3.81,3.81,0,0,1,3.6.08.41.41,0,0,1,.17.55A.28.28,0,0,1,448.61,203.82Z"></path><path class="cls-35" d="M445.93,217.92a4.94,4.94,0,0,0,3.1-2.41"></path><path class="cls-13" d="M460.64,208a1.44,1.44,0,0,0-1.65-.23,2.67,2.67,0,0,0-1.19,1.33,4.54,4.54,0,0,0-.38,2.15"></path><path class="cls-8" d="M435.05,207.16a.44.44,0,0,1-.22-.07.43.43,0,0,1-.1-.58,3.82,3.82,0,0,1,3.12-1.81.41.41,0,0,1,.38.42.39.39,0,0,1-.4.4,3,3,0,0,0-2.45,1.46A.39.39,0,0,1,435.05,207.16Z"></path><path class="cls-8" d="M455.29,191.59a13.61,13.61,0,0,0-13.7-4.33c-7,1.71-10.63,7-10.76,12.13a10.61,10.61,0,0,0,1,5,1,1,0,0,0,1.87-.19,8.11,8.11,0,0,1,.28-.78.56.56,0,0,0,.09.17,1,1,0,0,0,1.88-.47,5.24,5.24,0,0,1,.11-1v0a1,1,0,0,0,1.82-.36c.82-4,5.45-6.93,9.63-5.16l3,1.87C454,196.37,455.29,191.59,455.29,191.59Z"></path><polygon class="cls-28" points="468.32 305.15 467.84 308.48 453.76 312.9 457.01 315.06 470.94 311.03 471.52 304.56 468.32 305.15"></polygon><path class="cls-36" d="M478.84,230.43c-6.32-4.23-17.47-2.22-17.47-2.22l-20.43,13,14,34.24s5.83,14.56,9,24.25c.78,2.41,2.27,5.76,4.68,5.43l38.82-7.32a3.4,3.4,0,0,0,2.58-4.26C506.23,279.44,484.5,234.21,478.84,230.43Z"></path><path class="cls-37" d="M482.49,249.47a98.07,98.07,0,0,1-17.15,22.85,44.12,44.12,0,0,0-7.47,10.49l-2.74-7.29Z"></path><path class="cls-38" d="M463.24,240.07l-26.46,34.39-31.07,14.7,3.1,13.4s25.19-7.09,35.32-13.66,26.81-25,26.81-25,14.56-12.18,13.86-22S470.25,229.76,463.24,240.07Z"></path><path class="cls-39" d="M448.88,236.16s1-5.25,1.46-5,5.2,3.17,5.2,3.17l5.3-8.26,3.17,2.19L456.7,244Z"></path><polygon class="cls-40" points="446.56 258.2 440.45 249.47 445.38 263.14 447.78 260.48 464.63 238.28 446.56 258.2"></polygon><path class="cls-41" d="M448.88,236.16a38.07,38.07,0,0,1,4.41,3.23c-.24.05,1.84-3.68,1.84-3.68l4.65,1.84,3.81-9.62L459.84,239l-4.4-2.22-2.15,4.06Z"></path><path class="cls-8" d="M147.33,170.78a6.39,6.39,0,0,0-.34-2.53c-1-2.77-3.81-4.42-5-7.09-1.78-3.95.73-8.86,4.41-10.93,2.86-1.61,4.36-1.91,6.83-1.76,2.47-.15,4,.15,6.82,1.76,3.69,2.07,6.2,7,4.42,10.93-1.21,2.67-4,4.32-5,7.09a6.57,6.57,0,0,0-.34,2.53h37.59V131.29a6.48,6.48,0,0,1,4.72-.16c2.65,1,4.23,4,6.8,5.23,3.79,1.86,8.5-.76,10.49-4.6a11.78,11.78,0,0,0,1.69-7.11,11.75,11.75,0,0,0-1.69-7.11c-2-3.84-6.7-6.46-10.49-4.6-2.57,1.26-4.15,4.2-6.8,5.23a6.48,6.48,0,0,1-4.72-.16V82.89l-84-.39v87.89Z"></path><g class="cls-31"><path d="M147.33,170.78a6.39,6.39,0,0,0-.34-2.53c-1-2.77-3.81-4.42-5-7.09-1.78-3.95.73-8.86,4.41-10.93,2.86-1.61,4.36-1.91,6.83-1.76,2.47-.15,4,.15,6.82,1.76,3.69,2.07,6.2,7,4.42,10.93-1.21,2.67-4,4.32-5,7.09a6.57,6.57,0,0,0-.34,2.53h37.59V131.29a6.48,6.48,0,0,1,4.72-.16c2.65,1,4.23,4,6.8,5.23,3.79,1.86,8.5-.76,10.49-4.6a11.78,11.78,0,0,0,1.69-7.11,11.75,11.75,0,0,0-1.69-7.11c-2-3.84-6.7-6.46-10.49-4.6-2.57,1.26-4.15,4.2-6.8,5.23a6.48,6.48,0,0,1-4.72-.16V82.89l-84-.39v87.89Z"></path></g><path class="cls-8" d="M149.88,170.78a6.39,6.39,0,0,0-.34-2.53c-1-2.77-3.81-4.42-5-7.09-1.78-3.95.73-8.86,4.41-10.93,2.86-1.61,4.36-1.91,6.83-1.76,2.47-.15,4,.15,6.82,1.76,3.68,2.07,6.2,7,4.41,10.93-1.2,2.67-4,4.32-5,7.09a6.57,6.57,0,0,0-.34,2.53h37.59V131.29a6.45,6.45,0,0,1,4.71-.16c2.66,1,4.24,4,6.81,5.23,3.78,1.86,8.5-.76,10.49-4.6a11.77,11.77,0,0,0,1.68-7.11,11.74,11.74,0,0,0-1.68-7.11c-2-3.84-6.71-6.46-10.49-4.6-2.57,1.26-4.15,4.2-6.81,5.23a6.45,6.45,0,0,1-4.71-.16V82.89l-84-.39v87.89Z"></path><path class="cls-42" d="M94,123.74s-6.14,22.65-2.22,26.6,17.67,1.31,17,1,3.51-27.54,3.79-26.55S94,123.74,94,123.74Z"></path><path class="cls-42" d="M101.64,328.33l0,19.65,8.76.71,3.08-18.46C109.45,327.21,105.51,326.49,101.64,328.33Z"></path><path class="cls-43" d="M101.54,345.93c-.86,2.6-.92,13.21-.92,13.21l18.57,0c1.1-3.83-.61-6.46-2.77-6.8a6,6,0,0,1-2.82-2.17c0-.12-1.14-6-1.85-6.3,0,0-.48-.61-.89,0a10.77,10.77,0,0,0-.77,2.6C107.19,342.43,104.35,343,101.54,345.93Z"></path><path class="cls-3" d="M101.32,349a6,6,0,0,1,6.17.91c.32.26.63-.34.31-.59a6.51,6.51,0,0,0-6.64-1c-.37.15-.21.82.16.66Z"></path><path class="cls-3" d="M119.13,357.61h0l-18.29,0a.32.32,0,0,1-.3-.34.33.33,0,0,1,.3-.35h0l18.29,0a.34.34,0,0,1,0,.68Z"></path><path class="cls-42" d="M139.42,325.76l0,22.19,8.43.72L152,327.91C148.59,325.07,144.66,323.68,139.42,325.76Z"></path><path class="cls-43" d="M139,346c-.86,2.59-.92,13.21-.92,13.21l21.33,0c1.1-3.84-1.2-6.11-3.37-6.46-.93-.15-4.19-1.57-5-2.52,0-.12-1.14-6-1.84-6.3,0,0-.48-.61-.9,0a10.8,10.8,0,0,0-.76,2.61C144.67,342.48,141.83,343,139,346Z"></path><path class="cls-3" d="M138.79,349.06A6,6,0,0,1,145,350c.32.25.62-.34.31-.59a6.5,6.5,0,0,0-6.65-1c-.36.15-.2.81.16.66Z"></path><path class="cls-3" d="M159.43,357.66h0l-21.11,0a.34.34,0,0,1,0-.68h0l21.11,0a.34.34,0,0,1,0,.68Z"></path><path class="cls-44" d="M98,338l18.66,1c4.19-14.14,8.33-64.85,8.75-80.07.51-18.19,6.76-63.84,1.24-73.34s-30.52-1.94-30.52-1.94S99.25,239.29,98,257C96.93,272.38,95.26,317.55,98,338Z"></path><polygon class="cls-18" points="118.69 333.93 117.47 340.42 97.25 339.74 96.51 333.5 118.69 333.93"></polygon><path class="cls-44" d="M135.28,338l18.5,1c2.25-15.66,11.3-72.67,10.56-83.59-.91-13.34-11.62-71.08-15.61-75.53S115.57,187,115.57,187s12,49.66,21.45,71.13C139,262.6,133.76,319,135.28,338Z"></path><polygon class="cls-18" points="155.9 334.41 154.95 340.42 134.39 339.05 133.98 332.76 155.9 334.41"></polygon><polygon class="cls-23" points="127.25 230.79 121.81 211.87 112.17 208.59 119.71 214.68 125.77 249.17 127.25 230.79"></polygon><path class="cls-8" d="M137.64,63.18c0,.82.34,1.43.84,1.52s1-.6,1-1.43-.33-1.44-.83-1.52S137.74,62.39,137.64,63.18Z"></path><path class="cls-45" d="M138,63.07a29.57,29.57,0,0,0,1.85,7.66,4.33,4.33,0,0,1-3.76-.32Z"></path><path class="cls-8" d="M136.23,60.56a.47.47,0,0,1-.29-.07.49.49,0,0,1,0-.67h0a4.4,4.4,0,0,1,3.79-1.74.45.45,0,0,1,.4.49h0a.48.48,0,0,1-.51.41h0a3.51,3.51,0,0,0-3,1.44A.43.43,0,0,1,136.23,60.56Z"></path><path class="cls-42" d="M138,74a11.25,11.25,0,0,1-.38,1.29,12.67,12.67,0,0,1-4.39,6,11.63,11.63,0,0,1-1.6,1,10.9,10.9,0,0,1-13.27-2.16c-4.45-4.59-4.33-9.9-4.84-18.89a12.83,12.83,0,0,1,.9-5.65A11.91,11.91,0,0,1,130.09,49h0C138.66,52.56,139.84,65.92,138,74Z"></path><path class="cls-12" d="M133.17,81.3a11.63,11.63,0,0,1-1.6,1,10.92,10.92,0,0,1-9.62.44,13.79,13.79,0,0,1,1.58-3A16.92,16.92,0,0,1,133.17,81.3Z"></path><path class="cls-42" d="M115.52,93c4.32,4,14.91,2.54,14.91,2.54s6.6-1.86,5.21-4c-3.88-.66-5.77-2.52-6.55-4.91a11.85,11.85,0,0,1-.39-4.55,23.82,23.82,0,0,1,.32-2.54L115.94,69.6C117.65,76.15,119.75,88.21,115.52,93Z"></path><path class="cls-8" d="M133.17,65.85l1.89.72-.94-3.95s2.76-4.33,0-8.08c0,0,7.64-2.38,3.32-6.49-1.6-1.53-3.59,0-8.87-2.34-2.86-1.29-11.81-1.39-12.25,2.34,0,0-6.45,0-7.14,11.25A22.82,22.82,0,0,0,116,77.07s7.79,1.88,11.61-1.32S133.17,65.85,133.17,65.85Z"></path><path class="cls-42" d="M128.19,66.49a5.78,5.78,0,0,0,2.91,4c1.79.77,3-1.8,2.7-4.5-.24-2.4-1.45-5.77-3.36-5.32S127.57,64.06,128.19,66.49Z"></path><path class="cls-18" d="M102.21,90.79s-3,1-4.55,1.54c-3.15,1.21-5.23,4.86-6.37,8.46C88.5,109.56,84,130.33,84,130.33l16.34,3.58,8.72-19.57Z"></path><path class="cls-46" d="M102.21,90.79s-4.37.85-6.67,2.83c-1.76,1.51-3.15,3.7-4.25,7.17C88.5,109.56,84,130.33,84,130.33l16.34,3.58,8.72-19.57Z"></path><path class="cls-18" d="M141.8,91.8c-4.82-.54-19.65-4-39.59-1l-4.66,76.83a210.38,210.38,0,0,1-2.37,21.84c20.27,9.07,44.23,6.48,57.79-1.15-.16.33-.6-8.06-1.3-20.34-1.22-21.64-3.23-55.38-5.81-74.92C145.79,92.57,142.29,91.85,141.8,91.8Z"></path><path class="cls-46" d="M141.8,91.8c-4.82-.54-19.65-4-39.59-1l-4.66,76.83a210.38,210.38,0,0,1-2.37,21.84c20.27,9.07,44.23,6.48,57.79-1.15-.16.33-.6-8.06-1.3-20.34-1.22-21.64-3.23-55.38-5.81-74.92C145.79,92.57,142.29,91.85,141.8,91.8Z"></path><path class="cls-46" d="M115.3,90a7.1,7.1,0,0,1,2.41-3.77l11.1.9,5.2,3.57Z"></path><path class="cls-47" d="M115.3,90a7.16,7.16,0,0,1,2.4-3.77l11.11.9,5.2,3.57Z"></path><path class="cls-12" d="M141.29,115.71c1.78,8.66,4.33,25.62,9.16,31.53l-1.15-17.17Z"></path><polygon class="cls-12" points="99.3 133.68 99.73 111.49 95.26 132.62 99.3 133.68"></polygon><path class="cls-42" d="M149.8,122.56c-.62.25,11.4,28.44,16.3,28.69S194,140.6,194,140.6l-5.15-6.41-17.37,1-8.86-19.66Z"></path><path class="cls-46" d="M143.75,92.77c-6.23,4.29-9.32,14,7.39,44l18.06-11.49c-3.65-7-7.52-12.12-11.82-22.29C148.71,90,143.75,92.77,143.75,92.77Z"></path><path class="cls-47" d="M143.75,92.77c-6.23,4.29-9.32,14,7.39,44l18.06-11.49c-3.65-7-7.52-12.12-11.82-22.29C148.71,90,143.75,92.77,143.75,92.77Z"></path><path class="cls-42" d="M202.07,134c0-1.65-.49-3.44-1.34-3.49s-5.39,0-5.39,0h0c0-1.32,2.39-2.78,1.61-3.68-1-1.19-6.89,3.87-7.27,4.9a11.77,11.77,0,0,1-1.09,2.53l3.11,7.44s5.76,3.95,7.09,2.56a4,4,0,0,0,1.22-2.88s1.33-1.93,1.21-3.2S202.07,135.64,202.07,134Z"></path></svg>