<svg xmlns="http://www.w3.org/2000/svg" id="_ÎÓÈ_1" data-name="—ÎÓÈ_1" viewBox="0 0 369.05 317.02"><defs><style>.cls-1{fill:#e1e1e1;}.cls-2{fill:#e7e7e7;}.cls-3{fill:#f0f0f0;}.cls-21,.cls-24,.cls-4{fill:#fff;}.cls-5{fill:#ececec;}.cls-6{fill:#f5f5f5;}.cls-7{fill:#5793ce;}.cls-8{fill:#007cff;}.cls-9{fill:#30509f;}.cls-10{fill:#77b3fc;}.cls-11{fill:#1a2e35;}.cls-12{opacity:0.2;}.cls-13{fill:#0f264c;}.cls-14{fill:#ffc2b0;}.cls-15{fill:#ea9c92;}.cls-16{fill:#fe5652;}.cls-17{fill:#b94d3c;}.cls-18{fill:#cd7a63;}.cls-19{fill:#396caa;}.cls-20{opacity:0.3;}.cls-21{font-size:6px;font-family:Arial-Black, Arial Black;font-weight:800;}.cls-22{letter-spacing:-0.02em;}.cls-23{letter-spacing:-0.03em;}.cls-24{stroke:#fff;stroke-miterlimit:10;stroke-width:0.5px;}</style></defs><path class="cls-1" d="M322,207.77H193.28a4.18,4.18,0,0,1-4.17-4.18V16.06a4.17,4.17,0,0,1,4.17-4.17H322a4.18,4.18,0,0,1,4.18,4.17V203.59A4.18,4.18,0,0,1,322,207.77ZM193.28,12.07a4,4,0,0,0-4,4V203.59a4,4,0,0,0,4,4H322a4,4,0,0,0,4-4V16.06a4,4,0,0,0-4-4Zm-19.72,195.7H44.82a4.18,4.18,0,0,1-4.17-4.18V16.06a4.17,4.17,0,0,1,4.17-4.17H173.56a4.18,4.18,0,0,1,4.18,4.17V203.59A4.18,4.18,0,0,1,173.56,207.77ZM44.82,12.07a4,4,0,0,0-4,4V203.59a4,4,0,0,0,4,4H173.56a4,4,0,0,0,4-4V16.06a4,4,0,0,0-4-4ZM362,251.26H5.83v.18H362ZM42.63,261.6H54.07v-.18H42.63Zm84.54-1.93h38.12v-.18H127.17Zm-72.39,8.55H80.6V268H54.78Zm220.54-8.64h30.76v-.18H275.32Zm37.11,0h4.51v-.18h-4.51ZM231.06,264h38.38v-.18H231.06Z"></path><rect class="cls-2" x="59.89" y="46.91" width="34.6" height="44.4"></rect><rect class="cls-3" x="52.15" y="46.91" width="40.65" height="44.4"></rect><rect class="cls-4" x="55.9" y="50.85" width="32.98" height="36.51"></rect><rect class="cls-3" x="66.73" y="62.52" width="11.9" height="13.18"></rect><path class="cls-5" d="M162.24,261.35a12.32,12.32,0,0,0,0-3.39c-.09-.67-.16-1.32-.23-2-1.83.42-3.44.07-4-1-.8-1.5.63-3.83,3.19-5.19l.37-.19c-.35-10.4,1.52-15.39,1.52-15.39-4.49.14-10.19,2.32-15.34,5.55a6,6,0,0,1,.41,1.59c.23,2.06-.55,3.85-1.76,4s-2.13-1.12-2.5-2.86c-4.38,3.42-7.9,7.53-9.18,11.55a25.26,25.26,0,0,0-5.42-1.23c.4,1.18.23,2.29-.46,2.61s-1.88-.42-2.48-1.73a3.94,3.94,0,0,1-.33-1.1c-4.23-.06-8.41.7-11.13,2.23,0,0,2.91,2.3,6.45,8.61l.29,0c2-.12,3.71.75,3.77,1.93,0,.86-.78,1.65-2,2.06.19.41.38.82.57,1.25,3.5,7.84,11,1.51,10.6-4,0,0,3.59-.94,5.35-2.83a22.89,22.89,0,0,0,6.35-.85,10.08,10.08,0,0,0,3.34,3.69A8.28,8.28,0,0,0,148.1,266c-3.87,4.77,4.8,6.43,4.8,6.43-.06,4.82,6.88,9.92,9.48,2.87.14-.38.29-.76.43-1.12-1.1-.29-1.88-.93-1.88-1.69,0-1,1.41-1.89,3.18-1.9h.25c2.73-5.71,5.15-7.89,5.15-7.89A18,18,0,0,0,162.24,261.35Z"></path><path class="cls-1" d="M161.71,266.34c-5.32,3.42-16.08,11.19-17.56,12.26a42.54,42.54,0,0,0,.56,4.5l-.52.1c-.27-1.5-.45-3-.57-4.52a.22.22,0,0,1-.05-.08c-1.65-4.84-7.23-15.26-16.51-20.08a.27.27,0,1,1,.25-.47c8.59,4.46,14.05,13.63,16.22,18.94a47.52,47.52,0,0,1,10-31.13l.41.33A47.1,47.1,0,0,0,144.1,278c2.21-1.59,12.23-8.81,17.33-12.08a.28.28,0,0,1,.37.09A.26.26,0,0,1,161.71,266.34Z"></path><path class="cls-1" d="M156.77,287.28,153,304.64H136.12L132,287.28H129.4V281.9h29.37l0,5.38Zm-22.94-6.49a.18.18,0,0,0-.18-.18H131a.18.18,0,0,0,0,.36h2.61A.18.18,0,0,0,133.83,280.79Zm8.36,0a.18.18,0,0,0-.18-.18h-7.16a.18.18,0,0,0,0,.36H142A.18.18,0,0,0,142.19,280.79Z"></path><rect class="cls-1" x="97.68" y="167.5" width="23.15" height="9.61"></rect><rect class="cls-2" x="110.54" y="157.96" width="23.15" height="9.61"></rect><rect class="cls-6" x="111.31" y="176.94" width="23.15" height="9.61"></rect><rect class="cls-2" x="194.37" y="231.84" width="23.15" height="9.61"></rect><rect class="cls-6" x="205.94" y="241.45" width="23.15" height="9.61"></rect><rect class="cls-2" x="312.15" y="143.64" width="23.15" height="9.61"></rect><rect class="cls-6" x="323.72" y="153.26" width="23.15" height="9.61"></rect><rect class="cls-2" x="194.37" y="6.68" width="23.15" height="9.61"></rect><rect class="cls-6" x="205.94" y="16.29" width="23.15" height="9.61"></rect><path class="cls-6" d="M331.68,303.21c0,2.41-66.61,4.37-148.78,4.37s-148.78-2-148.78-4.37,66.61-4.37,148.78-4.37S331.68,300.8,331.68,303.21Z"></path><path class="cls-7" d="M199.71,223.76H126.15a9,9,0,0,1-9-9V141.19a9,9,0,0,1,9-9h73.56a9,9,0,0,1,9,9v73.56A9,9,0,0,1,199.71,223.76ZM133,227.3H168.9a.54.54,0,0,0,0-1.07H133a.54.54,0,0,0,0,1.07Zm38.32,0h2.75a.54.54,0,0,0,.54-.53.55.55,0,0,0-.54-.54h-2.75a.54.54,0,0,0,0,1.07Z"></path><rect class="cls-8" x="216.63" y="131.45" width="91.57" height="91.57" rx="7.06"></rect><rect class="cls-9" x="216.63" y="131.45" width="91.57" height="91.57" rx="7.06"></rect><path class="cls-4" d="M283.41,192.77l-2.71-2.29a.71.71,0,0,0-1,.08.72.72,0,0,0,.09,1l1.22,1H237.19a.71.71,0,0,0,0,1.42h44.05l-1.34,1.35a.71.71,0,0,0,0,1,.71.71,0,0,0,1,0l2.55-2.56a.69.69,0,0,0,.2-.53A.7.7,0,0,0,283.41,192.77Z"></path><path class="cls-7" d="M299.7,124.5H225.12a8.49,8.49,0,0,1-8.49-8.49V41.43a8.5,8.5,0,0,1,8.49-8.5H299.7a8.5,8.5,0,0,1,8.49,8.5V116A8.49,8.49,0,0,1,299.7,124.5Zm12.17-53.68v35.7a.54.54,0,0,0,1.07,0V70.82a.54.54,0,0,0-1.07,0Zm.89,39.57V114a.54.54,0,1,0,1.07,0v-3.57a.54.54,0,0,0-.54-.53.53.53,0,0,0-.53.53Z"></path><rect class="cls-8" x="117.38" y="32.93" width="91.57" height="91.57" rx="7.49"></rect><rect class="cls-9" x="117.38" y="32.93" width="91.57" height="91.57" rx="7.49"></rect><path class="cls-10" d="M313.48,183.85a53.87,53.87,0,0,0-9,53.51c7.7-6.87,13.11-17.33,13.46-26.49S315.85,192.7,313.48,183.85Z"></path><path class="cls-10" d="M311.32,239a35.47,35.47,0,0,0-5.61,21.88c6.67-2.32,12.56-9.86,16.09-16s5.5-13,7.29-19.83A35.42,35.42,0,0,0,311.32,239Z"></path><path class="cls-10" d="M295.89,249a29.47,29.47,0,0,1,4.68,18.24c-5.56-1.93-10.47-8.22-13.41-13.32s-4.59-10.85-6.08-16.55A29.59,29.59,0,0,1,295.89,249Z"></path><path class="cls-9" d="M326.86,250.72c-7.85,8.07-15.87,16-23.71,24.06.08,1.63.18,3.25.31,4.88,0,.34-.51.34-.53,0q-.31-4-.47-8s0,0,0,0a137.44,137.44,0,0,0-15.91-27.59c-.2-.28.26-.54.46-.27a139.48,139.48,0,0,1,15.44,26.52c-.07-2.13-.12-4.26-.12-6.39a204.09,204.09,0,0,1,7.47-54.84.27.27,0,0,1,.52.14q-2.1,7.51-3.61,15.17a202.9,202.9,0,0,0-3.82,41.79,170.07,170.07,0,0,1,19.2-33.41c.2-.28.66,0,.46.27A168.8,168.8,0,0,0,303.09,267a.29.29,0,0,1-.22.17q.06,3.47.24,6.94c7.74-8,15.63-15.76,23.37-23.72C326.72,250.09,327.1,250.47,326.86,250.72Z"></path><path class="cls-10" d="M327.14,247a154.56,154.56,0,0,0-18.51,21.48h1.24A18.39,18.39,0,0,0,327.14,247Z"></path><path class="cls-9" d="M294.88,231.33q4.39,7.17,8.26,14.65c.16.3.62,0,.47-.27q-3.89-7.47-8.27-14.65c-.18-.29-.64,0-.46.27Z"></path><path class="cls-10" d="M287.84,207.17a84.8,84.8,0,0,0-2.24,16.77c0,5.22,1.59,10.32,4.56,13.82s9,5,11.38,3Z"></path><polygon class="cls-11" points="317.45 277.12 287.68 277.12 287.68 282.63 290.99 282.63 294.14 302.28 312.63 302.28 315.12 282.63 317.45 282.63 317.45 277.12"></polygon><polygon class="cls-12" points="291.01 282.73 315.11 282.73 314.81 285.1 291.39 285.1 291.01 282.73"></polygon><path class="cls-7" d="M70.09,31.59a.18.18,0,0,1-.09.24h-.08a.17.17,0,0,1-.16-.1,6.63,6.63,0,0,1-.59-2.62.18.18,0,0,1,.18-.18.17.17,0,0,1,.18.17A6.07,6.07,0,0,0,70.09,31.59Zm5.67-20.14a.18.18,0,1,0-.22-.28,17.81,17.81,0,0,0-6.7,15.34.18.18,0,0,0,.18.16h0a.19.19,0,0,0,.16-.2A17.44,17.44,0,0,1,75.76,11.45Zm28.41,24.32a17.72,17.72,0,0,1-18.62,7.51l-4.32,3.11-1.36-5.46c-.08,0-.17-.09-.25-.15a17.71,17.71,0,1,1,24.55-5ZM98.48,23,96,20.46l-8.34,8.13-5-4.57-2.38,2.61,7.48,6.82Z"></path><path class="cls-13" d="M82.93,84.66a5,5,0,0,0,.31-.49,9.15,9.15,0,0,0,.5-7.13V77c.88-2.57,2.18-3.91,1.08-8a27.78,27.78,0,0,0-6.54-11.51,14.58,14.58,0,0,0-6-4.29,6.7,6.7,0,0,0-6.76,1.23,15.72,15.72,0,0,0-3,4.69c-2.79,6.25-.44,14.32,1.6,18.84a8.86,8.86,0,0,0-2,.24,8.74,8.74,0,0,0-2,.8,5.2,5.2,0,0,0-.72.42A8.16,8.16,0,0,0,56.93,82c-1.71,2.77-2.49,6.32-.94,9.17,4.29-3,3.27.92,6.85.93,6.22,0,12.18.68,12.18.68a1.07,1.07,0,0,0,0-.4,10.25,10.25,0,0,0,4.17,0,9.57,9.57,0,0,0,2.59-.94C82.86,90.9,86.4,87.36,82.93,84.66Z"></path><path class="cls-14" d="M73,57.67c-7.25-3.53-14.78,1.87-14.61,9.57.17,7.45.09,10.74,3.42,14.73a1.81,1.81,0,0,0,0,.4c0,.12,0,.24,0,.36.7,4.08.62,6.75-1.29,9,0,0-3,4.85,7.07,8.46,1.69.69,2.84,1.12,4.11-.18,4.29-4.4,4.2-6.34,3.42-6.79-1.28-.65-4.44-3.39-4.54-5.25a2.9,2.9,0,0,0,0-.51,2.68,2.68,0,0,0,0-.49v-.77A9,9,0,0,0,78.9,79.4C80.75,72.61,80.2,61.2,73,57.67Z"></path><path class="cls-13" d="M73.66,58.7c-.62-2.2-3-4.07-7.36-5l-.21-.05c-4.16-.87-8.62-2.21-10.39,2.38-4.65,12-11.48,10.32-10,14a2.71,2.71,0,0,0,2.51,1.51,2.07,2.07,0,0,0,.77-.15c-.31.28-.67.57-1,.87a14.4,14.4,0,0,0-4.22,6.1A3.45,3.45,0,0,0,47,83c-.16.17-2,2.06-2.27,2.54-3.19,5.32-.8,12.33,6.61,9.25,2-.84,7.54-2.94,7.54-2.94S61,93.93,61,90l.15.07a.15.15,0,0,1,0-.07,18.74,18.74,0,0,1-1.49-9.66,5.54,5.54,0,0,1,.07-.57c.08-.58.23-1.23.33-1.72a12.63,12.63,0,0,1,.36-1.35,20.08,20.08,0,0,1,1-2.47c.23-.46.47-.91.72-1.34l.19-.32A12.53,12.53,0,0,1,67,67.91C72.16,65.27,74.59,61.67,73.66,58.7Z"></path><path class="cls-14" d="M54.94,73.82a6.23,6.23,0,0,0,3.5,3.24c2,.68,3.33-2.51,2.81-4.62a4.13,4.13,0,0,0-4.4-3C54.86,69.62,54.05,71.93,54.94,73.82Z"></path><path class="cls-15" d="M70.46,86.19V87a4.17,4.17,0,0,0,0,.5,3,3,0,0,0,.07.51,17.28,17.28,0,0,1-8.74-5.6c0-.1,0-.2,0-.31l.25.3A10.63,10.63,0,0,0,70.46,86.19Zm-11-12.41a3.08,3.08,0,0,0-.84-2.13,3,3,0,0,0-2.09-.91h0a.18.18,0,0,0-.18.17.18.18,0,0,0,.18.18,2.65,2.65,0,0,1,2.58,2.69.19.19,0,0,0,.17.18h0A.19.19,0,0,0,59.47,73.78Z"></path><path class="cls-13" d="M61.86,56.56C61,59.08,58.79,59,57.37,61.2s-2.23,5.31-.66,7.44a19,19,0,0,1,1.45,1.77c1,1.83-.14,4.11-.18,6.22s-.15,4.29,1.43,5.34a4.84,4.84,0,0,1,2.16,3.93c0,.5-1.53,3.87-1.61,4.36-.1.71,1.9-1.51,2.61-1.4a1.31,1.31,0,0,0,1.31-.63A1.63,1.63,0,0,0,64,88a9,9,0,0,0,.28-7.67c-.61-1.4-1.29-2.76-1.89-4.15a7.74,7.74,0,0,1-.76-4.44c.67-3.43,8.81-11.15,2.32-17.42a.48.48,0,0,0-.32-.13,1.63,1.63,0,0,0-1.34.85A7.29,7.29,0,0,0,61.86,56.56Z"></path><path class="cls-15" d="M73.93,70.62a26.27,26.27,0,0,0,2.17,4.91.59.59,0,0,1-.35.88,3.84,3.84,0,0,1-2.07-.14Z"></path><path class="cls-11" d="M73.18,78.38a18.58,18.58,0,0,0-1.5,2.16l-.43-.17c-2-.78-2.59-1.79-2.71-2.66a2.68,2.68,0,0,1,.15-1.27,2.78,2.78,0,0,1,.33-.66,9.77,9.77,0,0,0,3.5,2.32C72.92,78.29,73.18,78.38,73.18,78.38Z"></path><path class="cls-4" d="M72.52,78.1l-.46.63c-1.83-.74-3-1.51-3.37-2.29a2.78,2.78,0,0,1,.33-.66A9.77,9.77,0,0,0,72.52,78.1Z"></path><path class="cls-16" d="M71.25,80.37c-2-.78-2.59-1.79-2.71-2.66a6.67,6.67,0,0,1,2,1.29A2.5,2.5,0,0,1,71.25,80.37Z"></path><path class="cls-11" d="M67.27,67.5a.32.32,0,0,1-.28.07.38.38,0,0,1-.24-.16.38.38,0,0,1,0-.53,3.49,3.49,0,0,1,3.3-.59.42.42,0,0,1,.24.5.35.35,0,0,1-.47.22A2.77,2.77,0,0,0,67.27,67.5Zm11.63-.65a3.2,3.2,0,0,0-3.11-.47.36.36,0,0,0-.13.48.37.37,0,0,0,.47.2,2.54,2.54,0,0,1,2.46.4.33.33,0,0,0,.27.05.29.29,0,0,0,.19-.15A.41.41,0,0,0,78.9,66.85Z"></path><path class="cls-11" d="M69.07,69.2a1.45,1.45,0,0,0-.71,1.35c0,.82.35,1.53.86,1.58s.94-.57,1-1.39a2,2,0,0,0-.32-1.22,2.07,2.07,0,0,0,1-.62l-1.8.27Zm7.69.64c-.43.08-.76.63-.79,1.33s.36,1.48.86,1.53.94-.54,1-1.34a1.89,1.89,0,0,0-.31-1.16,2,2,0,0,0,1.07-.64l-1.81.27Z"></path><path class="cls-8" d="M47.34,287.55l.8,1.11,1.58-.68,1,4.87,6.67,9.31s2.54.41.54-4.88a4.44,4.44,0,0,1-.21-.8c-.6-3.17.71-9.24.71-9.24l-3.66-5.1a6.86,6.86,0,0,0-1,.11C52.21,282.5,49.18,283.24,47.34,287.55Z"></path><path class="cls-12" d="M47.34,287.55l.8,1.11,1.58-.68,1,4.87,6.67,9.31s2.54.41.54-4.88a4.44,4.44,0,0,1-.21-.8c-.6-3.17.71-9.24.71-9.24l-3.66-5.1a6.86,6.86,0,0,0-1,.11C52.21,282.5,49.18,283.24,47.34,287.55Z"></path><path class="cls-17" d="M53.72,282.25h0c1.23.13.15,5.59.64,8.65.45,2.73,1.62,5.3,3.35,5.57-.6-3.17,1.54-10.38,1.54-10.38L56.3,282S54.37,282.14,53.72,282.25Z"></path><path class="cls-8" d="M57.55,301.82h1.36l.37-1.69,4.5,2H75.17s1.81-1.83-3.61-3.3a3.65,3.65,0,0,1-.77-.29c-2.9-1.37-7-6-7-6H57.53a8,8,0,0,0-.51.91C56.33,294.89,55.15,297.79,57.55,301.82Z"></path><path class="cls-18" d="M57,293.5v0c.82-.93,4.58,3.14,7.33,4.53,2.45,1.23,5.21,1.78,6.44.53-2.9-1.37-7.49-7.65-7.49-7.65l-5,.15S57.31,292.91,57,293.5Z"></path><path class="cls-9" d="M98.07,209.76v-.08l-4.68-28.42c-1.64-12.78-7.25-35-7.25-35l-2.39-8.95-22.45,0v.16l-7.67-.16s-10.37,7-9,32.57c.57,10.63,4.22,37.29,3.87,41.37-4,31.36,3.92,80.23,3.92,80.23l11.77-.58c-.06-1-.09-2.09-.1-3.37a1.65,1.65,0,0,0,.38,0c1.68-4.63,4.38-11.29,7.68-18.91,3.14-7.24,6.82-15.32,10.72-23.39,3-6.11,8.35-12.84,11.41-18.51A32.1,32.1,0,0,0,98.07,209.76ZM67.9,238.45c-.64,1.77-1.25,3.55-1.83,5.32,1.18-17.88,2.47-33.62,2.47-33.62.3-4,1.28-12.1,2.5-21.51,2.23,7.75,5,16.42,8.32,26.06C74.8,221.5,71,229.9,67.9,238.45Z"></path><path class="cls-12" d="M66.07,243.77c.58-1.77,1.19-3.55,1.83-5.32,1.58,8.86,3.35,20.05,4.27,30.16-3.3,7.62-6,14.28-7.68,18.91a1.65,1.65,0,0,1-.38,0C64,277.88,65,260,66.07,243.77Zm7.77-75.93c-1,7.24-2,14.86-2.92,21.73,1.06,2.69,2.18,5.65,3.25,9.22,3.91-19.17.7-32.06.7-32.06C74.56,167.05,74.21,167.42,73.84,167.84ZM44.52,163v3l16.78,2,1.87-29.34Z"></path><path class="cls-4" d="M85.64,107.13c-.37-5.63-7.18-13.6-7.18-13.6-.38,0-2.9-.08-3.28-.12l-1.2-.1-3.23-4.44-1.68,2.88L64,88l-2.73,1.29,1.34,3.93c-1.73.11-3.53.25-5.45.41q-1.07.09-2.1.21c-.62.07-6.82.23-6.82.23s-2.51,5.26-1,9.92c4.55,14.33,7.2,28,7.85,35.41l28.07-.51c.33-7.18,4-14.62,4.07-19.73C87.36,111.63,85.84,110.28,85.64,107.13Z"></path><path class="cls-7" d="M64.1,125.71c.18-3.28.28-6.33.28-9,1-19.46-3-27.28-3-27.28l-.11-.18c-.78.63-2.09,1.54-3.22,2.3l-7.93,1h0c-4.51.77-14.18,21-18,30.94-1.17,3,1.39,6.9,3.64,7.52s9.24,1.31,15.83,1.82l-11,30.7,19.74,2.06s2-16.53,3.23-31.94l2.44.15,1-7.52Zm-18.6-3.9L49,116.53c.42,1.64.86,3.3,1.28,4.91.14.53.28,1,.41,1.46Z"></path><path class="cls-14" d="M104.83,111a5.35,5.35,0,0,1-.73-3.57c.42-1.73.29-3.23.69-4.5s1.11.38,1.31,1.33.44,2,1.13,1.77,4.72-5.22,5.72-5.48.6.74.6.74,1-1.17,1.58-.9c.15.07.38.48,0,1.09-.85,1.37-2.77,4.15-2.77,4.15.11-.17,2.73-3.43,3.18-3.87.6-.57,1.17-.53,1.49-.18.46.51-2.65,4.67-2.66,4.93,0,0,1.71-2.45,2.58-2.35s-.11,1.69-1.26,2.94-2.8,3.66-4,4.72c-1.45,1.3-2.72,1.85-4.4,1.12A6.29,6.29,0,0,1,104.83,111Z"></path><path class="cls-15" d="M111.17,104.61a.17.17,0,0,1-.1,0,.16.16,0,0,1,0-.24c.7-1,1.45-2,2.23-3a.18.18,0,0,1,.27.23c-.77.94-1.51,2-2.21,3A.16.16,0,0,1,111.17,104.61Z"></path><path class="cls-15" d="M113.75,107.69a.19.19,0,0,1-.15-.08,8,8,0,0,0-3.68-2.83.19.19,0,0,1-.1-.23.18.18,0,0,1,.23-.1,8.42,8.42,0,0,1,3.84,3,.18.18,0,0,1,0,.25A.14.14,0,0,1,113.75,107.69Z"></path><path class="cls-15" d="M107.6,110.62a.15.15,0,0,1-.11,0,.18.18,0,0,1,0-.25,2.7,2.7,0,0,0,.53-1.72,2.74,2.74,0,0,0-.69-1.67.18.18,0,0,1,0-.25.17.17,0,0,1,.25,0,3,3,0,0,1,.18,3.84A.19.19,0,0,1,107.6,110.62Z"></path><path class="cls-7" d="M86.27,135.1c1.36,1.66,3,2.71,4.93,2.19s19.07-23,19.07-23L103,108.43,91.46,119.1s-1.34-10.72-3.67-17.72A15.4,15.4,0,0,0,80,92.46l-.41-.2L76.31,92l-.3-.2c-1.57-1.06-4.64-2.66-5.05-2.54,0,0,.3.37.79,1l-.11,0S72.17,90.9,73,92c3.69,5,11.06,15.56,11.11,20.64.06,6.53.13,8,.13,8h0c-.51,6.57-1.66,14-1.43,16.7.61,7.15,3.77,15.89,7.86,28.7l2.71-.39-7.46-28.35S86.07,136.45,86.27,135.1Z"></path><path class="cls-19" d="M84.12,112.63C84.05,105.85,71,89.29,71,89.29c.41-.12,3.48,1.48,5.05,2.54,2.3,1.56,4.77,3.08,4.77,3.08l-.67,4.61,5.12,3.79s.07,3.37.37,7.89a28.16,28.16,0,0,1-1.35,9.41S84.18,119.16,84.12,112.63ZM88,136.92v-18.5l-1.76,16.69A12.32,12.32,0,0,0,88,136.92Z"></path><path class="cls-19" d="M52.37,111.45h0a17.19,17.19,0,0,1-.64,8.18,3.6,3.6,0,0,1-1.44,1.81c-.42-1.61-.86-3.27-1.28-4.91Zm8.89-22.16c-1.6,1.3-5.42,3.75-5.42,3.75l3.57,7.13-2.69,4.36,7.43,16c1.69-22.19-2.78-31-2.78-31ZM45.5,121.81s-3.18-.49-5.2,1.19c0,0,2.18-3.48,6.09-2.52Zm18.08,11.87-12-.82-.71,2,12.51,1.59Z"></path><polygon class="cls-20" points="74.43 93.93 72.99 97.49 69.41 93.93 66.97 98.11 63.33 96.33 67.21 99.4 69.45 94.82 73.56 98.69 74.43 93.93"></polygon><path class="cls-14" d="M77.69,127.26l-2.29-1.8a2,2,0,0,0-1.83-.35L66.88,127,66,133.83l-.38,0c1.18,3.13,7.36.43,7.36.43l1.53,1c1.24.79,4.19-.08,4.44-1.53l.18-3.73C79.28,129.19,78.29,127.73,77.69,127.26Z"></path><text class="cls-21" transform="translate(145.78 113.28)">C<tspan class="cls-22" x="4.67" y="0">L</tspan><tspan x="8.57" y="0">OUD OPS</tspan></text><text class="cls-21" transform="translate(249.09 114.88)">DE<tspan class="cls-23" x="9" y="0">V</tspan><tspan x="13.46" y="0">OPS</tspan></text><text class="cls-21" transform="translate(151.73 212.28)">SECOPS</text><text class="cls-21" transform="translate(250.15 212.76)">FINOPS</text><path class="cls-4" d="M266.46,145.07a8,8,0,0,0-5.53,2,10.8,10.8,0,0,0-1.48,1.74c-.5.68-.8,1-1.76.66a5.53,5.53,0,0,0-5.34.7,5.15,5.15,0,0,0-2.22,3.37,1.24,1.24,0,0,1-1.11,1.06,6.85,6.85,0,0,0-3.94,2.2,7.17,7.17,0,0,0-1.48,7.16,8.18,8.18,0,0,0,3,4.37,9.94,9.94,0,0,0,1.3.78,1.17,1.17,0,0,1,.69,1.08.94.94,0,0,1-.8.78,2.19,2.19,0,0,1-1-.3,10.14,10.14,0,0,1-4.79-5.42,10,10,0,0,1-.51-5.43,8.86,8.86,0,0,1,3.72-5.69,8.2,8.2,0,0,1,2.9-1.31c.15,0,.26-.29.35-.46a14.59,14.59,0,0,1,.82-1.74,7.5,7.5,0,0,1,4-3,7.07,7.07,0,0,1,4.34-.14.45.45,0,0,0,.54-.16,10.87,10.87,0,0,1,2.5-2.38,11.16,11.16,0,0,1,3.55-1.51,10.52,10.52,0,0,1,4.57,0,9.46,9.46,0,0,1,4.51,2.33,11.09,11.09,0,0,1,2,2.38,10.36,10.36,0,0,1,1.44,4.38.48.48,0,0,0,.41.48,8.87,8.87,0,0,1,3.71,2.21,8.77,8.77,0,0,1,2,3,7.93,7.93,0,0,1,.62,2.78,10.09,10.09,0,0,1-.71,4.42,12.79,12.79,0,0,1-1.37,2.34,8.55,8.55,0,0,1-1.66,1.79,14.35,14.35,0,0,1-2.32,1.41.91.91,0,0,1-1.14-.49,1,1,0,0,1,.37-1.17c.63-.41,1.3-.78,1.9-1.24a7.81,7.81,0,0,0,2.08-2.55,8.15,8.15,0,0,0,.92-4.84,6.75,6.75,0,0,0-2-4.1,7.35,7.35,0,0,0-3.81-2c-.59-.11-.86-.46-.85-1.15a8.56,8.56,0,0,0-1.63-5,7.58,7.58,0,0,0-2.9-2.48A8.06,8.06,0,0,0,266.46,145.07Z"></path><path class="cls-4" d="M250.7,170.88a11.7,11.7,0,1,1,11.61,11.74A11.65,11.65,0,0,1,250.7,170.88Zm21.46.1a9.77,9.77,0,1,0-9.81,9.73A9.8,9.8,0,0,0,272.16,171Z"></path><path class="cls-4" d="M263.56,173.32a1.5,1.5,0,0,0-1.39-1.48,3.36,3.36,0,0,1-2.79-4,3.07,3.07,0,0,1,1.74-2.3.48.48,0,0,0,.31-.51,3.8,3.8,0,0,1,.06-.75.93.93,0,0,1,.89-.77,1,1,0,0,1,.93.74.06.06,0,0,1,0,0c-.12.84.38,1.25,1,1.68a2.81,2.81,0,0,1,1.14,2.25,1,1,0,0,1-.8,1,.88.88,0,0,1-1.05-.66,5.91,5.91,0,0,0-.43-1,.91.91,0,0,0-1.16-.29,1,1,0,0,0-.76.92,1.42,1.42,0,0,0,1,1.73c.34.11.7.16,1,.28a3.31,3.31,0,0,1,2.15,3.73,2.84,2.84,0,0,1-1.35,2.17,1.16,1.16,0,0,0-.72,1.26,1,1,0,0,1-1.33.92c-.46-.16-.55-.54-.61-.95a1.48,1.48,0,0,1,0-.42.53.53,0,0,0-.37-.59,3.06,3.06,0,0,1-1.73-2.64,1.14,1.14,0,0,1,.68-1.05,1,1,0,0,1,1.1.48,2.36,2.36,0,0,1,.17.59,1.12,1.12,0,0,0,1.25,1,1.13,1.13,0,0,0,1-1.26A.56.56,0,0,1,263.56,173.32Z"></path><path class="cls-4" d="M147.23,157.72l4.38-1.58c1.13-.39,2.25-.81,3.4-1.14a26.59,26.59,0,0,1,6.84-1.29c1.44,0,2.87,0,4.31,0a12.15,12.15,0,0,1,1.7.21.5.5,0,0,0,.59-.21,8.93,8.93,0,0,1,2.57-2.48,8.79,8.79,0,0,1,6.31-1.18.7.7,0,0,0,.46-.06.53.53,0,0,1,.78,0,4.44,4.44,0,0,1,.6.69.43.43,0,0,1-.18.66,3.16,3.16,0,0,1-1,.23c-.16,0-.45-.07-.48-.17-.15-.46-.55-.48-.88-.51a7.85,7.85,0,0,0-3.43.37,7.66,7.66,0,0,0-5,5.14,11.47,11.47,0,0,0-.25,1.3c0,.17,0,.39-.12.48s-.42.26-.55.2a.65.65,0,0,1-.29-.53,15.47,15.47,0,0,1,.38-2c.08-.32.07-.43-.28-.49a23.59,23.59,0,0,0-8.21.24,58,58,0,0,0-7.76,2.27l-1.74.64a.79.79,0,0,0-.61.84c0,1.89,0,3.77.12,5.65a53.57,53.57,0,0,0,.89,7.78c.07.35.18.46.55.36a7.86,7.86,0,0,1,3.31-.05.63.63,0,0,0,.43,0,.62.62,0,0,1,.92.15c.13.15.26.29.4.43a.47.47,0,0,1-.18.83,2.89,2.89,0,0,1-.88.24c-.19,0-.39-.2-.58-.32s-.34-.34-.53-.37a7.64,7.64,0,0,0-3.82.38,7.52,7.52,0,0,0-4.76,4.94,12.12,12.12,0,0,0-.37,1.69c-.05.33-.24.54-.49.48s-.48-.38-.46-.55a10.43,10.43,0,0,1,.44-2.14,8.39,8.39,0,0,1,2.68-3.87,19,19,0,0,1,1.6-1,.65.65,0,0,0,.27-.48c-.22-1.85-.55-3.69-.69-5.54-.21-2.78-.29-5.57-.42-8.36C147.21,159,147.23,158.38,147.23,157.72Z"></path><path class="cls-4" d="M158.51,187.5a1.57,1.57,0,0,1,0,.47,1.09,1.09,0,0,1-.37.51,2.39,2.39,0,0,1-.88.23c-.42,0-.66-.2-.56-.6a4.87,4.87,0,0,1,.41-1c0-.09.19-.2.27-.18.57.13.75-.33,1-.65a7.58,7.58,0,0,0,1.29-6.12,7.82,7.82,0,0,0-2.06-3.83,8.54,8.54,0,0,1-2.09-3.85,8.91,8.91,0,0,1,0-4.53,9,9,0,0,1,1.61-3.14c0-.06.11-.1.17-.16s.42-.31.67-.08a.49.49,0,0,1,0,.74,7.72,7.72,0,0,0-1.76,4.1,7.91,7.91,0,0,0,.56,3.84,9.1,9.1,0,0,0,1.53,2.42,17.76,17.76,0,0,1,1.25,1.61,8.28,8.28,0,0,1,1.17,3.57,8.65,8.65,0,0,1-.94,4.95,5.23,5.23,0,0,1-.28.47c.26.19.51.38.77.55l2.68,1.85c.76.54.85.54,1.62,0,1.3-.9,2.62-1.76,3.9-2.69a26.43,26.43,0,0,0,6.49-6,15.52,15.52,0,0,0,1.81-3.62,31.19,31.19,0,0,0,1.38-6c.16-1,.19-1.94.31-2.91a.68.68,0,0,1,.31-.42c.39-.2.8-.35,1.25-.54-.05.7-.07,1.41-.15,2.11-.13,1.08-.28,2.15-.44,3.21a28.58,28.58,0,0,1-1.51,5.67,15.5,15.5,0,0,1-2.66,4.55,23.7,23.7,0,0,1-4.58,4.19c-1.54,1.09-3.07,2.21-4.61,3.3-.65.47-1.34.91-2,1.38a.47.47,0,0,1-.65,0L159,187.73A3,3,0,0,0,158.51,187.5Z"></path><path class="cls-4" d="M146.64,181.73a5.37,5.37,0,1,1,5.36,5.38A5.31,5.31,0,0,1,146.64,181.73Zm2.2,0c.45-.35.85-.63,1.22-.94s.41-.64.2-.91a.66.66,0,0,0-.95-.06c-.56.42-1.08.87-1.65,1.29s-.59.85-.12,1.22,1.2.91,1.82,1.35a.58.58,0,0,0,.88-.12.64.64,0,0,0-.22-.89C149.64,182.39,149.27,182.08,148.84,181.74Zm6.33,0-1.26,1a.6.6,0,0,0-.21.83.56.56,0,0,0,.86.21c.67-.49,1.33-1,2-1.49a.59.59,0,0,0,0-1c-.6-.49-1.2-1-1.81-1.43-.37-.28-.77-.27-1,0s-.14.65.27,1S154.75,181.42,155.17,181.76Zm-4.81,1.77a2.47,2.47,0,0,0,.5.47c.33.18.56,0,.71-.31.64-1.09,1.27-2.19,1.89-3.29a.6.6,0,0,0-.23-.9.58.58,0,0,0-.83.31c-.61,1.08-1.24,2.16-1.85,3.24A3.38,3.38,0,0,0,150.36,183.53Z"></path><path class="cls-4" d="M169.11,170a5.36,5.36,0,1,1-5.59-5.23A5.3,5.3,0,0,1,169.11,170Zm-4,2h0c0-.22,0-.43,0-.65a1.42,1.42,0,0,1,.43-1.22,2.42,2.42,0,0,0-.06-3.35,2.73,2.73,0,0,0-2.67-.57,2.46,2.46,0,0,0-.76,4.08.88.88,0,0,1,.31.7c0,.75,0,1.5,0,2.25a.93.93,0,0,0,1,1h.59a1,1,0,0,0,1.08-1C165.17,172.84,165.16,172.44,165.16,172Z"></path><path class="cls-4" d="M179.88,155.59l.4.79a3.14,3.14,0,0,1-.57.4c-.47.18-.38.56-.38.92,0,.64,0,1.28,0,1.91a.64.64,0,0,0,.3.73l.71.42-.47.76-.29-.18c-.85-.42-.83-.4-1.6.21a3.47,3.47,0,0,1-1.08.6c-.69.24-.79.32-.8,1.07v.47c-.18,0-.34,0-.5,0-.33,0-.46-.12-.41-.43.11-.66-.22-.95-.8-1.17a4.46,4.46,0,0,1-1.22-.69c-.58-.45-.64-.52-1.24-.16-.39.23-.57.19-.76-.22s.07-.52.37-.63a.69.69,0,0,0,.45-.85,3.76,3.76,0,0,1,0-2,.66.66,0,0,0-.4-.86,6.54,6.54,0,0,1-.57-.36l.47-.77a4,4,0,0,1,.65.35c.3.25.53.09.78-.06.6-.34,1.2-.68,1.81-1,.29-.17.53-.36.51-.74,0-.22,0-.43,0-.69H176s.05.06.05.08c-.14.9.25,1.36,1.13,1.57a2.8,2.8,0,0,1,1,.66c.46.39.65.43,1.17.12Zm-4.21,5.52a2.56,2.56,0,1,0,0-5.12,2.53,2.53,0,0,0-2.58,2.61A2.56,2.56,0,0,0,175.67,161.11Z"></path><path class="cls-4" d="M175.83,167.5a9.65,9.65,0,0,1-5.63-2c-.59-.45-1.12-1-1.7-1.45a6.88,6.88,0,0,0-3.3-1.44,7.92,7.92,0,0,0-4.12.44c-.36.13-.76.23-.77.73a.37.37,0,0,1-.07.12c-.21.27-1.45.39-1.62.11a1.16,1.16,0,0,1,0-.76c0-.2.23-.36.32-.55.17-.35.43-.37.77-.3a.89.89,0,0,0,.51,0,8.45,8.45,0,0,1,8.13.4,23.28,23.28,0,0,1,2.44,1.91,8,8,0,0,0,3.8,1.67,8.44,8.44,0,0,0,3.09-.15c.33-.07.58,0,.67.3a.46.46,0,0,1-.41.63Z"></path><path class="cls-4" d="M164,179.09c-.6-.09-1.13-.14-1.65-.26a.55.55,0,0,1-.32-.4.86.86,0,0,1,.35-.46c.07-.06.23,0,.35,0a7.93,7.93,0,0,0,4.55-.7,7.6,7.6,0,0,0,4.07-4.78,5.48,5.48,0,0,0,.25-1.12c0-.31.2-.7-.25-.92a.37.37,0,0,1-.1-.33,8.5,8.5,0,0,1,.62-1.2c.13-.2.39-.17.54.05s.38.57.56.87a.47.47,0,0,1-.13.68.64.64,0,0,0-.22.43,8.32,8.32,0,0,1-1.88,4.77,8.43,8.43,0,0,1-4.48,3C165.5,178.89,164.72,179,164,179.09Z"></path><path class="cls-4" d="M152.23,190.48a8.72,8.72,0,0,1-6-2.25,7.73,7.73,0,0,1-2.07-2.8,2.28,2.28,0,0,0-.85-1.29c-.47-.27,0-.83.09-1.25,0-.19.31-.34.5-.47,0,0,.21.05.28.12a5.21,5.21,0,0,1,.68.73.62.62,0,0,1,.05.54c-.21.27-.14.46,0,.74a7.23,7.23,0,0,0,2.28,3.19A7.86,7.86,0,0,0,155,188.9c.41-.17.79-.07.85.22s-.17.6-.5.72A9.35,9.35,0,0,1,152.23,190.48Z"></path><path class="cls-4" d="M184.47,158.56a9.11,9.11,0,0,1-1.83,5.38c-.15.22-.35.55-.69.35a1,1,0,0,1-.35-.51c0-.08.06-.24.13-.32a6.85,6.85,0,0,0,1.6-3.67,7.58,7.58,0,0,0-1.28-5.6,6.05,6.05,0,0,0-.72-.87c-.3-.31-.38-.64-.13-.87s.59-.09.8.14a8.47,8.47,0,0,1,2.21,4.21C184.32,157.38,184.39,158,184.47,158.56Z"></path><path class="cls-4" d="M163.61,171.52c0-.25,0-.49,0-.74a1.13,1.13,0,0,0-.59-1.25,1.2,1.2,0,0,1-.39-1.46,1.31,1.31,0,0,1,1.22-.71,1.2,1.2,0,0,1,.56,2.22.9.9,0,0,0-.49.89c0,.77,0,1.54,0,2.31a.94.94,0,0,1-.14.33,1.13,1.13,0,0,1-.17-.35C163.59,172.35,163.61,171.93,163.61,171.52Z"></path><path class="cls-4" d="M175.65,157.21a1.33,1.33,0,0,1,1.37,1.36,1.44,1.44,0,0,1-1.34,1.36,1.42,1.42,0,0,1-1.37-1.38A1.38,1.38,0,0,1,175.65,157.21Z"></path><path class="cls-4" d="M285.22,65.75a1.21,1.21,0,0,0-.1.36,10.51,10.51,0,0,1-.81,3.83,21.88,21.88,0,0,1-1.44,3,10.2,10.2,0,0,1-2.49,2.79c-.73.56-1.49,1.1-2.26,1.6a11.79,11.79,0,0,1-4.29,1.56,14.46,14.46,0,0,1-6.41-.29,11.6,11.6,0,0,1-3.84-1.78c-.92-.68-1.77-1.47-2.64-2.22a11.07,11.07,0,0,0-5-2.68,17.55,17.55,0,0,0-3.14-.42,12,12,0,0,0-5.44,1.28.77.77,0,0,1-1.21-.41c-.2-.44,0-.86.54-1.12a14.24,14.24,0,0,1,5-1.4,14,14,0,0,1,6.35,1,15.54,15.54,0,0,1,5.24,3.67,9.7,9.7,0,0,0,1.92,1.37,12,12,0,0,0,7.14,1.53,11.88,11.88,0,0,0,4.83-1.42,12.33,12.33,0,0,0,3.72-3.21,11.51,11.51,0,0,0,2.53-7,12.27,12.27,0,0,0-.75-4.88,12,12,0,0,0-3-4.49,11.75,11.75,0,0,0-5.1-2.88,12.92,12.92,0,0,0-4.34-.39,12.52,12.52,0,0,0-3.9.95,11.86,11.86,0,0,0-3.91,2.77A11.4,11.4,0,0,0,260.27,60s0,.08,0,.09c.29,0,.63-.05.82.09a1.31,1.31,0,0,1,.48.79.76.76,0,0,1-.54.79c-.6.28-1.2.54-1.8.81a.88.88,0,0,1-1.33-.48c-.32-.64-.61-1.3-.9-2a.84.84,0,0,1,.34-1.05.78.78,0,0,1,1.08.17l.19.16c.43-.71.82-1.43,1.28-2.1a13.79,13.79,0,0,1,5-4.41,14.27,14.27,0,0,1,5.3-1.5.8.8,0,0,0,.23-.11h1.36c.22,0,.43.09.65.11a11.82,11.82,0,0,1,1.21.11,14,14,0,0,1,7.07,3.43A13.43,13.43,0,0,1,284,59.53a12.38,12.38,0,0,1,1.1,4.91.91.91,0,0,0,.12.31Z"></path><path class="cls-4" d="M255.68,90.26l-.18,1.46a1,1,0,0,1-1.07,1h-3.21a1,1,0,0,1-1.05-.92,7.14,7.14,0,0,1-.14-1.12.55.55,0,0,0-.39-.58.91.91,0,0,1-.33-.15c-.65-.64-1.28-.36-1.93,0s-1.07.3-1.38-.1a8.39,8.39,0,0,1-.67-1.11c-.38-.66-.74-1.32-1.13-2a.9.9,0,0,1,.25-1.36l1-.69a.83.83,0,0,0,.15-.11,2.73,2.73,0,0,0-.2-2c-.29-.23-.6-.45-.9-.67a.82.82,0,0,1-.3-1.23c.55-1,1.12-2,1.7-3a.89.89,0,0,1,1.21-.38l.16.08c1.32.61,1.41.63,2.56-.24.23-.17.22-.67.3-1s.05-.47.1-.71a.81.81,0,0,1,.88-.73q1.74,0,3.48,0a1,1,0,0,1,.93.87,3.41,3.41,0,0,1,.09.89.86.86,0,0,0,.57.91,6.53,6.53,0,0,0,.82.45,1,1,0,0,0,.61-.06c.38-.13.73-.34,1.11-.47a.79.79,0,0,1,1.07.45c.53.94,1.09,1.86,1.62,2.8.42.74.32,1.09-.38,1.57l-.15.1c-.58.37-1.1.76-.84,1.58a.77.77,0,0,1,0,.45c-.08.27.05.4.26.55.37.27.73.57,1.09.85a.69.69,0,0,1,.16,1c-.35.63-.71,1.25-1.07,1.88l-.64,1.11a.93.93,0,0,1-1.4.43l-.23-.14c-.63-.34-1.25-.55-1.86.07A2.47,2.47,0,0,1,255.68,90.26Zm4-3.83c-.35-.28-.68-.55-1-.81a1,1,0,0,1-.4-1,15.43,15.43,0,0,0,0-2,.82.82,0,0,1,.35-.84c.29-.19.53-.43.81-.62s.3-.32.12-.58a6,6,0,0,1-.49-.81c-.41-.72-.42-.72-1.13-.31s-1,.36-1.46,0a5.59,5.59,0,0,0-1.31-.81A1.47,1.47,0,0,1,254,77.24c0-.3,0-.74-.19-.86s-.64-.06-1-.06c-1,0-1,0-1.11,1-.07.45-.12.91-.62,1.16a21.08,21.08,0,0,0-1.85,1.06.92.92,0,0,1-.9.13L247,79.11c-.31.53-.59,1-.86,1.48-.11.19-.18.39.06.55a7.12,7.12,0,0,0,.66.46c.55.27.58.74.56,1.26s0,1.25,0,1.87a.9.9,0,0,1-.36.82c-.25.21-.53.38-.79.59s-.29.31-.26.37c.31.59.66,1.17,1,1.72.43-.19.78-.33,1.1-.5a1,1,0,0,1,1.06.06c.59.37,1.2.71,1.81,1a1,1,0,0,1,.62.87c0,.3.06.59.1.89s.1.35.37.35c.58,0,1.17,0,1.78,0,0-.4.1-.79.12-1.17a1,1,0,0,1,.58-.89,13.56,13.56,0,0,0,1.7-1,1.13,1.13,0,0,1,1.28-.17c.34.18.69.33,1.05.5Z"></path><path class="cls-4" d="M262.44,67.61a2.61,2.61,0,0,1,.42-.62c.33-.29.73-.51,1.07-.78a.62.62,0,0,0,.2-.4,10.76,10.76,0,0,0,0-1.27.48.48,0,0,0-.18-.32,10.56,10.56,0,0,0-.87-.62.93.93,0,0,1-.43-1.38c.56-1,1.15-2.07,1.75-3.09a.73.73,0,0,1,1-.34l1.18.51a.57.57,0,0,0,.66,0c.31-.23.68-.37,1-.59a.82.82,0,0,0,.24-.47c.08-.45.12-.91.19-1.37a.77.77,0,0,1,.83-.67h3.39A1,1,0,0,1,274,57.27a6,6,0,0,0,.09,1.11.48.48,0,0,0,.18.26,9.88,9.88,0,0,0,1.1.61.86.86,0,0,0,.61,0,10.73,10.73,0,0,0,1.09-.5,1,1,0,0,1,1.23.47l1.71,3a1,1,0,0,1-.22,1.13c-.36.29-.76.54-1.1.84a.79.79,0,0,0-.21.48,7.65,7.65,0,0,0,0,1.07.67.67,0,0,0,.2.43c.36.31.76.58,1.13.87a.75.75,0,0,1,.22,1c-.6,1.08-1.21,2.15-1.84,3.21-.26.43-.72.48-1.36.21-.07,0-.12-.09-.19-.12a1.59,1.59,0,0,0-1.7,0,1.76,1.76,0,0,0-.93,1.71c0,.36,0,.75-.37,1a1.6,1.6,0,0,1-.66.21c-1.13,0-2.27,0-3.4,0-.63,0-.91-.38-1-1a4.78,4.78,0,0,1-.08-.84.69.69,0,0,0-.61-.82.47.47,0,0,1-.12-.07c-.65-.65-1.3-.3-1.94,0-.9.42-1.12.36-1.61-.5s-1.06-1.84-1.58-2.77A4,4,0,0,1,262.44,67.61Zm14.64,2.13L278,68.3a.38.38,0,0,0-.12-.6c-.25-.16-.47-.37-.73-.52a1,1,0,0,1-.43-1,13.67,13.67,0,0,0,0-1.92,1.1,1.1,0,0,1,.48-1.1c.32-.2.63-.43,1-.68l-1.06-1.84c-.42.18-.81.34-1.18.52a1,1,0,0,1-1-.1c-.63-.4-1.32-.74-1.95-1.15a1.22,1.22,0,0,1-.45-.62,4.07,4.07,0,0,1-.1-1c0-.27-.14-.34-.37-.34-.46,0-.93,0-1.4,0s-.45.15-.45.46a1.61,1.61,0,0,1,0,.31c-.09.47,0,1-.56,1.29-.7.37-1.36.8-2.07,1.16a1.06,1.06,0,0,1-.74.07,13,13,0,0,1-1.3-.52l-1,1.81c.36.28.67.56,1,.79a.9.9,0,0,1,.41,1,8.45,8.45,0,0,0,0,1.88,1,1,0,0,1-.44,1.08l-1,.72,1.07,1.81c.28-.13.51-.25.74-.34.49-.21,1-.44,1.5,0a9.2,9.2,0,0,0,1.65,1,1.12,1.12,0,0,1,.72,1c0,.36.08.73.13,1.13.57,0,1.11,0,1.65,0,.32,0,.51,0,.5-.43s.07-.54.08-.8a1,1,0,0,1,.64-.88,15.36,15.36,0,0,0,1.67-1,1,1,0,0,1,1.12-.16C276.26,69.44,276.66,69.57,277.08,69.74Z"></path><path class="cls-4" d="M265.5,89.45c-.34.61-.65,1.18-1,1.72a12.93,12.93,0,0,1-4.44,4.35,14,14,0,0,1-5.19,1.86,13.57,13.57,0,0,1-11.56-3.58,14,14,0,0,1-3.55-5.38,15.06,15.06,0,0,1-.84-4.51A14.46,14.46,0,0,1,240,78.24a4.14,4.14,0,0,1,.49-1,.8.8,0,0,1,.94-.35.75.75,0,0,1,.59.81,2.59,2.59,0,0,1-.21.72,11.54,11.54,0,0,0-1.19,4.88,11.42,11.42,0,0,0,.42,3.54,11.77,11.77,0,0,0,1.71,3.66,12.22,12.22,0,0,0,3.64,3.52,10.27,10.27,0,0,0,3.82,1.49,20,20,0,0,0,3.18.25,11.37,11.37,0,0,0,6-1.8,12.85,12.85,0,0,0,3.54-3.43,16.84,16.84,0,0,0,1-1.74,2.89,2.89,0,0,1-.93-.14.81.81,0,0,1,.1-1.52,13.35,13.35,0,0,1,2-.89.79.79,0,0,1,1.14.49c.3.63.58,1.28.85,1.93a1,1,0,0,1-.23,1.1.88.88,0,0,1-1.14-.12Z"></path><path class="cls-4" d="M242.74,74.48a1,1,0,0,1,.83-.91.87.87,0,0,1,.05,1.73A1,1,0,0,1,242.74,74.48Z"></path><path class="cls-4" d="M252.76,86.74a3.09,3.09,0,0,1,.1-6.18,3.09,3.09,0,1,1-.1,6.18Zm.06-1.68a1.35,1.35,0,0,0,1.4-1.41,1.32,1.32,0,0,0-1.39-1.37,1.35,1.35,0,0,0-1.41,1.34A1.39,1.39,0,0,0,252.82,85.06Z"></path><path class="cls-4" d="M271.28,62.12a3.1,3.1,0,1,1,0,6.19,3.1,3.1,0,0,1,0-6.19Zm.08,4.47a1.33,1.33,0,0,0,1.34-1.48,1.31,1.31,0,0,0-1.43-1.3,1.35,1.35,0,0,0-1.38,1.44A1.33,1.33,0,0,0,271.36,66.59Z"></path><path class="cls-24" d="M162.49,94H138.86a.72.72,0,0,1,0-1.43h23.63A17.42,17.42,0,1,0,149.71,87l-.34-1.32a.71.71,0,0,1,.52-.86.7.7,0,0,1,.86.51l.88,3.45a.73.73,0,0,1-.09.56.76.76,0,0,1-.48.32l-3.56.6h-.12a.72.72,0,0,1-.12-1.42l1.94-.33A18.83,18.83,0,0,1,174,60.23a8.58,8.58,0,0,1-.44-2.7,8.69,8.69,0,0,1,14.95-6l0-1.94a.71.71,0,0,1,.71-.72h0a.7.7,0,0,1,.71.7l0,4.11a.7.7,0,0,1-.2.51.65.65,0,0,1-.43.19h-4.45a.71.71,0,0,1,0-1.42h3a7.25,7.25,0,1,0,1.65,4.58.71.71,0,1,1,1.42,0,8.69,8.69,0,0,1-12.31,7.9A18.83,18.83,0,0,1,162.49,94Zm26.61-1.26a.8.8,0,0,0,0-.21s0,0-.06-.08a.44.44,0,0,0-.12-.15l0,0L184,88.6a.71.71,0,0,0-1,.13.71.71,0,0,0,.14,1l3.14,2.38H173.22a.72.72,0,0,0,0,1.43h13.27l-3.38,2.89a.71.71,0,0,0-.07,1,.69.69,0,0,0,.54.25.67.67,0,0,0,.46-.17l4.84-4.15a0,0,0,0,1,0,0,.7.7,0,0,0,.15-.19s0,0,0,0a.72.72,0,0,0,.06-.29h0A.19.19,0,0,0,189.1,92.73Z"></path></svg>