<svg xmlns="http://www.w3.org/2000/svg" viewBox="0 0 800 800" preserveAspectRatio="xMidYMid meet"><defs><clipPath id="__lottie_element_12"><rect width="800" height="800" x="0" y="0"></rect></clipPath></defs><g clip-path="url(#__lottie_element_12)"><g transform="matrix(-0.861944317817688,-0.5070028901100159,0.5070028901100159,-0.861944317817688,220.82460021972656,546.0372314453125)" opacity="1" style="display: block;"><g opacity="1" transform="matrix(1,0,0,1,0,0)"><path fill="rgb(36,78,156)" fill-opacity="1" d=" M55.762001037597656,80.05899810791016 C51.45399856567383,60.4739990234375 59.933998107910156,38.74100112915039 76.44999694824219,27.038999557495117 C62.44200134277344,7.482999801635742 46.691001892089844,-10.583999633789062 29.743000030517578,-27.48699951171875 C21.768999099731445,-17.891000747680664 -3.055000066757202,4.168000221252441 -40.18600082397461,-14.565999984741211 C-56.47100067138672,-22.783000946044922 -68.54100036621094,-42.987998962402344 -66.85399627685547,-48.9640007019043 C-92.23500061035156,-41.43600082397461 -117.96900177001953,-34.827999114990234 -131.69000244140625,-28.341999053955078 C-125.99400329589844,-15.39799976348877 -121.3499984741211,8.265999794006348 -138.78500366210938,28.72800064086914 C-151.10400390625,43.185001373291016 -180.24200439453125,42.57099914550781 -191.8509979248047,38.49100112915039 C-199.92999267578125,58.564998626708984 -205.84100341796875,79.01300048828125 -209.38800048828125,99.85299682617188 C-199.4770050048828,101.37300109863281 -189.9080047607422,104.21399688720703 -181.01600646972656,108.44100189208984 C-173.16000366210938,112.1760025024414 -165.33099365234375,117.61699676513672 -162.67599487304688,125.8010025024414 C-161.2030029296875,130.34500122070312 -161.5019989013672,135.27000427246094 -162.3699951171875,139.96299743652344 C-164.9929962158203,154.15199279785156 -172.83599853515625,167.34800720214844 -184.11500549316406,176.54600524902344 C-172.11399841308594,191.89999389648438 -157.58700561523438,204.88600158691406 -142.052001953125,216.57400512695312 C-135.86099243164062,207.2469940185547 -126.04199981689453,202.61399841308594 -116.72100067138672,199.08900451660156 C-110.53099822998047,196.7480010986328 -104.00800323486328,194.5919952392578 -97.40799713134766,195.22500610351562 C-90.47200012207031,195.88999938964844 -84.1520004272461,199.61500549316406 -79.06099700927734,204.302001953125 C-69.58000183105469,213.031005859375 -63.68600082397461,225.43699645996094 -62.957000732421875,238.1999969482422 C-41.382999420166016,237.63999938964844 -20.481000900268555,234.98399353027344 0.10700000077486038,230.81900024414062 C1.600000023841858,218.6790008544922 2.305000066757202,207.17799377441406 6.348999977111816,196.5959930419922 C10.394000053405762,186.01400756835938 18.29800033569336,176.32699584960938 29.15399932861328,172.6510009765625 C43.04899978637695,167.94700622558594 58.117000579833984,173.77200317382812 71.6050033569336,179.50999450683594 C82.2509994506836,161.98699951171875 91.11000061035156,141.96800231933594 97.37000274658203,121.18800354003906 C76.91999816894531,115.97200012207031 60.069000244140625,99.64399719238281 55.762001037597656,80.05899810791016z M-36.03799819946289,137.11099243164062 C-53.97800064086914,143.09500122070312 -75.44499969482422,136.33799743652344 -86.69599914550781,121.3290023803711 C-90.02100372314453,116.89199829101562 -92.5250015258789,111.78600311279297 -93.44400024414062,106.34600067138672 C-94.36499786376953,100.89900207519531 -93.67900085449219,95.29199981689453 -92.33300018310547,89.93199920654297 C-89.0510025024414,76.86199951171875 -81.50299835205078,64.52300262451172 -70.09400177001953,57.106998443603516 C-58.685001373291016,49.691001892089844 -43.25199890136719,47.847999572753906 -31.10700035095215,54.0260009765625 C-16.031999588012695,61.694000244140625 -6.692999839782715,77.9739990234375 -5.992000102996826,94.12699890136719 C-5.183000087738037,112.76699829101562 -18.097999572753906,131.1269989013672 -36.03799819946289,137.11099243164062z"></path></g><g opacity="1" transform="matrix(1,0,0,1,0,0)"><path fill="rgb(47,87,158)" fill-opacity="1" d=" M-62.95899963378906,241.58399963378906 C-64.74500274658203,241.58399963378906 -66.23200225830078,240.18800354003906 -66.33499908447266,238.39500427246094 C-67.01499938964844,226.468994140625 -72.48899841308594,214.95199584960938 -81.35199737548828,206.79200744628906 C-85.02100372314453,203.41600036621094 -90.83999633789062,199.2530059814453 -97.72899627685547,198.593994140625 C-103.71099853515625,198.0189971923828 -109.7959976196289,200.08799743652344 -115.5250015258789,202.2550048828125 C-124.51100158691406,205.6510009765625 -133.60299682617188,209.96600341796875 -139.23199462890625,218.44500732421875 C-139.7480010986328,219.22300720214844 -140.56100463867188,219.75 -141.47900390625,219.90899658203125 C-142.4080047607422,220.0679931640625 -143.33999633789062,219.83700561523438 -144.08399963378906,219.27699279785156 C-161.93099975585938,205.8509979248047 -175.89700317382812,192.5540008544922 -186.7790069580078,178.6280059814453 C-187.91299438476562,177.177001953125 -187.67999267578125,175.08700561523438 -186.2530059814453,173.9239959716797 C-175.6529998779297,165.2790069580078 -168.16000366210938,152.67599487304688 -165.69500732421875,139.3489990234375 C-164.74200439453125,134.17999267578125 -164.80299377441406,130.20700073242188 -165.89300537109375,126.84600067138672 C-167.79600524902344,120.98500061035156 -173.3730010986328,115.81999969482422 -182.4669952392578,111.49700164794922 C-190.8939971923828,107.49099731445312 -200.12399291992188,104.697998046875 -209.9010009765625,103.19599914550781 C-210.7969970703125,103.05999755859375 -211.6009979248047,102.56600189208984 -212.1320037841797,101.83300018310547 C-212.66299438476562,101.09700012207031 -212.87399291992188,100.17900085449219 -212.7220001220703,99.28500366210938 C-209.2030029296875,78.5989990234375 -203.23599243164062,57.71900177001953 -194.99000549316406,37.22999954223633 C-194.31399536132812,35.54899978637695 -192.43299865722656,34.70399856567383 -190.7310028076172,35.30099868774414 C-179.77999877929688,39.145999908447266 -152.4409942626953,39.53900146484375 -141.36000061035156,26.53499984741211 C-122.93000030517578,4.9019999504089355 -131.66900634765625,-19.895999908447266 -134.78599548339844,-26.979000091552734 C-135.5240020751953,-28.656999588012695 -134.79200744628906,-30.617000579833984 -133.13600158691406,-31.400999069213867 C-122.38800048828125,-36.481998443603516 -104.5,-41.61800003051758 -85.56300354003906,-47.05400085449219 C-79.73300170898438,-48.72800064086914 -73.76399993896484,-50.441001892089844 -67.81500244140625,-52.20800018310547 C-66.62999725341797,-52.55099868774414 -65.3550033569336,-52.23899841308594 -64.47599792480469,-51.37099838256836 C-63.599998474121094,-50.505001068115234 -63.262001037597656,-49.23099899291992 -63.59700012207031,-48.04600143432617 C-64.61499786376953,-44.433998107910156 -54.13600158691406,-25.395000457763672 -38.6609992980957,-17.584999084472656 C-2.2060000896453857,0.8080000281333923 20.923999786376953,-22.16900062561035 27.142000198364258,-29.649999618530273 C27.75,-30.381000518798828 28.63599967956543,-30.82200050354004 29.584999084472656,-30.865999221801758 C30.549999237060547,-30.89900016784668 31.458999633789062,-30.554000854492188 32.132999420166016,-29.884000778198242 C50.28799819946289,-11.774999618530273 65.68299865722656,6.201000213623047 79.19999694824219,25.06999969482422 C79.7239990234375,25.801000595092773 79.93399810791016,26.711000442504883 79.78600311279297,27.599000930786133 C79.63600158691406,28.486000061035156 79.14099884033203,29.27899932861328 78.40499877929688,29.798999786376953 C63.00299835205078,40.71200180053711 55.04999923706055,61.08000183105469 59.064998626708984,79.33200073242188 C63.051998138427734,97.4520034790039 78.78099822998047,112.95500183105469 98.20700073242188,117.91100311279297 C99.0989990234375,118.13800048828125 99.86100006103516,118.72100067138672 100.31500244140625,119.5250015258789 C100.76899719238281,120.3270034790039 100.8759994506836,121.28099822998047 100.61000061035156,122.16400146484375 C94.30400085449219,143.0850067138672 85.2770004272461,163.52200317382812 74.49800109863281,181.26499938964844 C73.6259994506836,182.7010040283203 71.83000183105469,183.28900146484375 70.28199768066406,182.62100219726562 C56.26300048828125,176.65699768066406 42.652000427246094,171.6529998779297 30.240999221801758,175.85499572753906 C21.364999771118164,178.85899353027344 13.61400032043457,187.0659942626953 9.508999824523926,197.80499267578125 C6.315000057220459,206.16099548339844 5.2820000648498535,215.3040008544922 4.190000057220459,224.98199462890625 C3.9590001106262207,227.04600524902344 3.7239999771118164,229.12899780273438 3.4660000801086426,231.23199462890625 C3.2880001068115234,232.677001953125 2.2039999961853027,233.843994140625 0.7789999842643738,234.13499450683594 C-21.333999633789062,238.6060028076172 -42.152000427246094,241.0449981689453 -62.86800003051758,241.58200073242188 C-62.89899826049805,241.58399963378906 -62.928001403808594,241.58399963378906 -62.95899963378906,241.58399963378906z M-99.75700378417969,191.73300170898438 C-98.87000274658203,191.73300170898438 -97.97799682617188,191.7729949951172 -97.08399963378906,191.85899353027344 C-90.1510009765625,192.52200317382812 -83.1240005493164,195.96400451660156 -76.7699966430664,201.81399536132812 C-67.44000244140625,210.4010009765625 -61.393001556396484,222.24600219726562 -59.87300109863281,234.7209930419922 C-41.34600067138672,234.06199645996094 -22.66900062561035,231.8489990234375 -2.9609999656677246,227.97900390625 C-2.812999963760376,226.7209930419922 -2.6730000972747803,225.46800231933594 -2.5320000648498535,224.2239990234375 C-1.3910000324249268,214.1060028076172 -0.31200000643730164,204.5469970703125 3.187999963760376,195.38900756835938 C8.07699966430664,182.5989990234375 17.14699935913086,173.1439971923828 28.069000244140625,169.4459991455078 C41.832000732421875,164.79400634765625 56.35599899291992,169.49899291992188 70.21199798583984,175.2519989013672 C79.48400115966797,159.52000427246094 87.3489990234375,141.7449951171875 93.12000274658203,123.48699951171875 C72.86399841308594,117.03800201416016 56.742000579833984,100.26000213623047 52.45800018310547,80.78600311279297 C48.11899948120117,61.05799865722656 56.013999938964844,39.17399978637695 71.77300262451172,26.344999313354492 C59.577999114990234,9.621999740600586 45.82400131225586,-6.432000160217285 29.868999481201172,-22.566999435424805 C21.138999938964844,-13.493000030517578 -4.4019999504089355,7.2829999923706055 -41.70899963378906,-11.545999526977539 C-55.479000091552734,-18.492000579833984 -67.66100311279297,-34.36399841308594 -69.98500061035156,-44.51499938964844 C-74.58999633789062,-43.16699981689453 -79.18399810791016,-41.84700012207031 -83.69499969482422,-40.551998138427734 C-100.69599914550781,-35.66899871826172 -116.84200286865234,-31.034000396728516 -127.33000183105469,-26.584999084472656 C-123.35900115966797,-15.918000221252441 -117.41100311279297,8.854999542236328 -136.21099853515625,30.922000885009766 C-148.64199829101562,45.51300048828125 -175.52499389648438,46.270999908447266 -189.85000610351562,42.61899948120117 C-196.8979949951172,60.6349983215332 -202.14199829101562,78.92900085449219 -205.46299743652344,97.08599853515625 C-196.29400634765625,98.78199768066406 -187.593994140625,101.56900024414062 -179.56199645996094,105.38800048828125 C-168.57000732421875,110.61399841308594 -161.9929962158203,116.947998046875 -159.45799255371094,124.75800323486328 C-158.0070037841797,129.23300170898438 -157.87399291992188,134.25999450683594 -159.04400634765625,140.57899475097656 C-161.5919952392578,154.3730010986328 -168.95899963378906,167.46400451660156 -179.43899536132812,176.9810028076172 C-169.80099487304688,188.8209991455078 -157.7449951171875,200.25900268554688 -142.73699951171875,211.802001953125 C-136.1179962158203,203.64599609375 -126.9469985961914,199.33799743652344 -117.91699981689453,195.9239959716797 C-112.47200012207031,193.86700439453125 -106.22799682617188,191.73300170898438 -99.75700378417969,191.73300170898438z M-49.76100158691406,142.67999267578125 C-64.98300170898438,142.67999267578125 -80.22000122070312,135.61000061035156 -89.40399932861328,123.35800170898438 C-93.28500366210938,118.18199920654297 -95.83499908447266,112.49500274658203 -96.77999877929688,106.91000366210938 C-97.67400360107422,101.61900329589844 -97.29299926757812,95.7959976196289 -95.61499786376953,89.10700225830078 C-91.90599822998047,74.33699798583984 -83.2760009765625,61.638999938964844 -71.93800354003906,54.27000045776367 C-58.928001403808594,45.814998626708984 -42.29899978637695,44.540000915527344 -29.572999954223633,51.01100158691406 C-13.982000350952148,58.94200134277344 -3.4000000953674316,75.80799865722656 -2.6110000610351562,93.97899627685547 C-1.7450000047683716,113.95500183105469 -15.656999588012695,133.8769989013672 -34.96799850463867,140.31900024414062 C-39.75199890136719,141.91600036621094 -44.75699996948242,142.67999267578125 -49.76100158691406,142.67999267578125z M-47.319000244140625,53.65999984741211 C-54.470001220703125,53.65999984741211 -61.856998443603516,55.78799819946289 -68.2509994506836,59.944000244140625 C-78.1729965209961,66.39299774169922 -85.75399780273438,77.62300109863281 -89.0510025024414,90.75399780273438 C-90.49800109863281,96.51799774169922 -90.84400177001953,101.43399810791016 -90.10800170898438,105.78199768066406 C-89.34400177001953,110.30799865722656 -87.22799682617188,114.98200225830078 -83.98999786376953,119.3010025024414 C-73.6520004272461,133.09300231933594 -53.499000549316406,139.36700439453125 -37.108001708984375,133.9010009765625 C-37.108001708984375,133.9010009765625 -37.108001708984375,133.9010009765625 -37.108001708984375,133.9010009765625 C-20.554000854492188,128.37899780273438 -8.630999565124512,111.34300231933594 -9.373000144958496,94.27400207519531 C-10.055000305175781,78.5 -19.187999725341797,63.88399887084961 -32.64099884033203,57.04100036621094 C-37.09700012207031,54.77399826049805 -42.14500045776367,53.65999984741211 -47.319000244140625,53.65999984741211z"></path></g></g><g transform="matrix(-0.861944317817688,0.5070028901100159,-0.5070028901100159,-0.861944317817688,-79.93206787109375,331.5505065917969)" opacity="1" style="display: block;"><g opacity="1" transform="matrix(1,0,0,1,0,0)"><g opacity="1" transform="matrix(1,0,0,1,0,0)"><path fill="rgb(255,255,255)" fill-opacity="1" d=" M-154.3780059814453,-132.3800048828125 C-154.3780059814453,-132.3800048828125 -160.01800537109375,-151.3939971923828 -160.01800537109375,-151.3939971923828 C-160.01800537109375,-151.3939971923828 -148.14700317382812,-168.52099609375 -148.14700317382812,-168.52099609375 C-148.14700317382812,-168.52099609375 -177.38400268554688,-189.2169952392578 -177.38400268554688,-189.2169952392578 C-181.1540069580078,-182.93299865722656 -184.9239959716797,-176.6490020751953 -188.69400024414062,-170.36599731445312 C-188.89500427246094,-170.031005859375 -189.1060028076172,-169.68600463867188 -189.42599487304688,-169.47000122070312 C-189.86000061035156,-169.17799377441406 -190.41400146484375,-169.17599487304688 -190.93299865722656,-169.18299865722656 C-197.44400024414062,-169.27200317382812 -203.9550018310547,-169.3939971923828 -210.46499633789062,-169.55099487304688 C-213.677001953125,-175.77699279785156 -216.7899932861328,-181.70199584960938 -220.2969970703125,-187.3699951171875 C-220.5760040283203,-187.8209991455078 -220.90699768066406,-188.30799865722656 -221.4149932861328,-188.42999267578125 C-221.9219970703125,-188.552001953125 -222.4290008544922,-188.26699829101562 -222.87600708007812,-187.99200439453125 C-230.61599731445312,-183.23899841308594 -238.3560028076172,-178.48699951171875 -246.09500122070312,-173.73399353027344 C-246.29600524902344,-173.61000061035156 -246.50399780273438,-173.47999572753906 -246.63499450683594,-173.281005859375 C-246.96600341796875,-172.7790069580078 -246.6820068359375,-172.10699462890625 -246.38999938964844,-171.5800018310547 C-243.46600341796875,-166.30599975585938 -239.98399353027344,-161.3560028076172 -236.0260009765625,-156.8470001220703 C-239.5229949951172,-150.26400756835938 -243.2010040283203,-144.14700317382812 -247.2220001220703,-138.27699279785156 C-248.18899536132812,-136.86500549316406 -249.29299926757812,-135.3800048828125 -250.90699768066406,-134.8939971923828 C-252.25399780273438,-134.48899841308594 -253.6929931640625,-134.86599731445312 -255.04400634765625,-135.2550048828125 C-260.4930114746094,-136.82400512695312 -265.8840026855469,-138.60800170898438 -271.20001220703125,-140.60000610351562 C-275.739990234375,-129.64500427246094 -276.6090087890625,-117.12999725341797 -273.62701416015625,-105.6259994506836 C-273.1910095214844,-104.74400329589844 -252.98500061035156,-107.69300079345703 -252.98500061035156,-107.69300079345703 C-252.98500061035156,-107.69300079345703 -240.93800354003906,-86.34200286865234 -240.93800354003906,-86.34200286865234 C-240.93800354003906,-86.34200286865234 -250.60699462890625,-70.0979995727539 -250.60699462890625,-70.0979995727539 C-250.60699462890625,-70.0979995727539 -228.45199584960938,-53.60300064086914 -228.45199584960938,-53.60300064086914 C-228.45199584960938,-53.60300064086914 -216.94400024414062,-70.78500366210938 -216.94400024414062,-70.78500366210938 C-216.94400024414062,-70.78500366210938 -196.6280059814453,-70.375 -196.6280059814453,-70.375 C-196.6280059814453,-70.375 -188.78700256347656,-52.24300003051758 -188.78700256347656,-52.24300003051758 C-188.78700256347656,-52.24300003051758 -158.5019989013672,-62.939998626708984 -158.5019989013672,-62.939998626708984 C-158.5019989013672,-62.939998626708984 -165.83399963378906,-81.5260009765625 -165.83399963378906,-81.5260009765625 C-165.83399963378906,-81.5260009765625 -154.94400024414062,-99.56199645996094 -154.94400024414062,-99.56199645996094 C-154.94400024414062,-99.56199645996094 -134.4010009765625,-101.24400329589844 -134.4010009765625,-101.24400329589844 C-134.4010009765625,-101.24400329589844 -133.76199340820312,-126.83200073242188 -133.76199340820312,-126.83200073242188 C-133.76199340820312,-126.83200073242188 -154.3780059814453,-132.3800048828125 -154.3780059814453,-132.3800048828125z M-189.30799865722656,-122.7030029296875 C-189.0959930419922,-121.79000091552734 -189.88299560546875,-120.0270004272461 -190.2169952392578,-119.21499633789062 C-190.50900268554688,-118.50599670410156 -190.8090057373047,-117.822998046875 -191.21800231933594,-117.1760025024414 C-191.97900390625,-115.9739990234375 -192.97999572753906,-114.81800079345703 -194.00999450683594,-113.84200286865234 C-196.1790008544922,-111.78600311279297 -198.59500122070312,-110.2979965209961 -201.35899353027344,-109.25 C-202.47900390625,-108.82599639892578 -203.67100524902344,-108.5530014038086 -204.84500122070312,-108.35199737548828 C-205.88699340820312,-108.1729965209961 -206.83299255371094,-108.0770034790039 -207.8719940185547,-108.18900299072266 C-208.51499938964844,-108.25800323486328 -209.17799377441406,-108.47000122070312 -209.8209991455078,-108.4729995727539 C-208.01400756835938,-108.46299743652344 -209.98800659179688,-108.45099639892578 -210.6929931640625,-108.65299987792969 C-213.81199645996094,-109.5459976196289 -216.85899353027344,-112.15699768066406 -218.37600708007812,-115.0469970703125 C-219.29299926757812,-116.79399871826172 -220.11500549316406,-118.74199676513672 -220.19400024414062,-120.75199890136719 C-220.26499938964844,-122.55899810791016 -219.79400634765625,-124.43199920654297 -219.11199951171875,-126.08799743652344 C-218.13299560546875,-128.46800231933594 -217.00999450683594,-130.8470001220703 -215.5659942626953,-132.97000122070312 C-213.94200134277344,-135.35699462890625 -211.91400146484375,-137.8489990234375 -209.31700134277344,-139.16600036621094 C-206.68600463867188,-140.50100708007812 -203.86300659179688,-140.7169952392578 -201.322998046875,-139.72500610351562 C-200.26499938964844,-140.22000122070312 -199.0590057373047,-140.37899780273438 -198.04400634765625,-139.99200439453125 C-196.1439971923828,-139.26800537109375 -194.5500030517578,-138.34100341796875 -193.23599243164062,-136.73800659179688 C-191.93800354003906,-135.1540069580078 -191.08999633789062,-133.61199951171875 -190.3419952392578,-131.6959991455078 C-190.11000061035156,-131.1009979248047 -189.91200256347656,-130.4969940185547 -189.76499938964844,-129.87399291992188 C-189.67999267578125,-129.51199340820312 -189.61399841308594,-129.14700317382812 -189.55599975585938,-128.7790069580078 C-189.47900390625,-128.20799255371094 -189.4040069580078,-127.63800048828125 -189.33099365234375,-127.06600189208984 C-189.34100341796875,-127.19499969482422 -189.35000610351562,-127.322998046875 -189.36000061035156,-127.4520034790039 C-189.4149932861328,-127.9469985961914 -189.4029998779297,-127.96600341796875 -189.32200622558594,-127.50900268554688 C-189.23699951171875,-126.93000030517578 -189.15899658203125,-126.35099792480469 -189.08900451660156,-125.7699966430664 C-189.0659942626953,-125.47599792480469 -189.0469970703125,-125.18800354003906 -189.05499267578125,-124.89299774169922 C-189.0760040283203,-124.1709976196289 -189.11500549316406,-123.39600372314453 -189.30799865722656,-122.7030029296875z"></path></g></g><g opacity="1" transform="matrix(1,0,0,1,0,0)"><g opacity="1" transform="matrix(1,0,0,1,0,0)"><path fill="rgb(47,87,158)" fill-opacity="1" d=" M-185.2550048828125,-118.94100189208984 C-185.4949951171875,-122.13700103759766 -190.29299926757812,-122.44499969482422 -191.01100158691406,-119.34400177001953 C-191.96600341796875,-116.34100341796875 -191.58599853515625,-116.86399841308594 -194.75799560546875,-113.76000213623047 C-197.8090057373047,-111.26499938964844 -196.7010040283203,-112.00700378417969 -201.45700073242188,-110.23500061035156 C-205.89100646972656,-108.87100219726562 -204.09500122070312,-109.15299987792969 -207.84500122070312,-109.16899871826172 C-208.36199951171875,-109.26399993896484 -208.8719940185547,-109.39800262451172 -209.37100219726562,-109.56400299072266 C-211.19400024414062,-110.25800323486328 -210.6199951171875,-109.90299987792969 -214.11000061035156,-111.87000274658203 C-215.55099487304688,-112.61399841308594 -216.8350067138672,-113.9520034790039 -218.5019989013672,-114.06099700927734 C-223.55299377441406,-115.00499725341797 -226.0290069580078,-107.51599884033203 -221.56399536132812,-104.9729995727539 C-213.63400268554688,-99.42900085449219 -205.66200256347656,-96.92900085449219 -196.6060028076172,-101.50499725341797 C-191.9290008544922,-104.10800170898438 -188.52999877929688,-108.51399993896484 -186.82899475097656,-113.6510009765625 C-186.09800720214844,-115.31199645996094 -185.10800170898438,-117.09300231933594 -185.2550048828125,-118.94100189208984z"></path></g></g><g opacity="1" transform="matrix(1,0,0,1,0,0)"><g opacity="1" transform="matrix(1,0,0,1,0,0)"><path fill="rgb(47,87,158)" fill-opacity="1" d=" M-168.76699829101562,-68.3740005493164 C-171.74099731445312,-67.2770004272461 -172.79600524902344,-66.53199768066406 -178.39700317382812,-65.52100372314453 C-181.0469970703125,-64.6719970703125 -184.2790069580078,-65.10399627685547 -186.54600524902344,-63.347999572753906 C-191.2949981689453,-59.90599822998047 -187.36500549316406,-51.9379997253418 -181.8249969482422,-53.630001068115234 C-175.1840057373047,-55.0359992980957 -167.5489959716797,-55.32600021362305 -162.3769989013672,-60.32899856567383 C-158.3040008544922,-64.99099731445312 -163.45599365234375,-71.09200286865234 -168.76699829101562,-68.3740005493164z"></path></g></g><g opacity="1" transform="matrix(1,0,0,1,0,0)"><g opacity="1" transform="matrix(1,0,0,1,0,0)"><path fill="rgb(47,87,158)" fill-opacity="1" d=" M-131.99099731445312,-111.55999755859375 C-131.98699951171875,-111.61799621582031 -131.97300720214844,-111.6719970703125 -131.97000122070312,-111.7300033569336 C-131.9770050048828,-111.677001953125 -131.98399353027344,-111.62300109863281 -131.99099731445312,-111.56900024414062 C-131.96400451660156,-112.69499969482422 -132.2209930419922,-113.8290023803711 -132.77699279785156,-114.8010025024414 C-135.08599853515625,-119.18099975585938 -141.80499267578125,-118.46099853515625 -143.40699768066406,-113.94499969482422 C-143.5070037841797,-113.73500061035156 -143.6219940185547,-113.49199676513672 -143.76300048828125,-113.197998046875 C-144.2050018310547,-112.31400299072266 -144.4949951171875,-111.36900329589844 -144.8459930419922,-110.4469985961914 C-145.14700317382812,-109.7490005493164 -145.5659942626953,-108.78299713134766 -145.81399536132812,-108.24099731445312 C-146.38600158691406,-107.2300033569336 -146.6739959716797,-106.13899993896484 -146.677001953125,-104.96900177001953 C-146.6009979248047,-97.49299621582031 -136.24600219726562,-96.06500244140625 -134.26400756835938,-103.24600219726562 C-133.2550048828125,-105.56999969482422 -132.4550018310547,-107.9469985961914 -132.125,-110.4540023803711 C-132.04800415039062,-110.81900024414062 -132,-111.18699645996094 -131.99099731445312,-111.55999755859375z"></path></g></g><g opacity="1" transform="matrix(1,0,0,1,0,0)"><g opacity="1" transform="matrix(1,0,0,1,0,0)"><path fill="rgb(47,87,158)" fill-opacity="1" d=" M-189.03900146484375,-49.077999114990234 C-190.41299438476562,-49.077999114990234 -191.66900634765625,-49.915000915527344 -192.1820068359375,-51.21699905395508 C-194.33599853515625,-56.6609992980957 -196.3820037841797,-61.83300018310547 -199.46800231933594,-67.01100158691406 C-205.43600463867188,-66.3740005493164 -211.40699768066406,-66.69000244140625 -217.08299255371094,-67.22699737548828 C-218.73699951171875,-64.21600341796875 -220.35000610351562,-61.1349983215332 -222.03900146484375,-57.90599822998047 C-223.08999633789062,-55.89699935913086 -224.16700744628906,-53.83599853515625 -225.30099487304688,-51.70600128173828 C-226.10899353027344,-50.18899917602539 -227.92100524902344,-49.51300048828125 -229.5290069580078,-50.14699935913086 C-239.52999877929688,-54.09400177001953 -248.24000549316406,-60.513999938964844 -254.71499633789062,-68.71099853515625 C-255.64700317382812,-69.88999938964844 -255.68800354003906,-71.54199981689453 -254.8179931640625,-72.76599884033203 C-251.6219940185547,-77.2699966430664 -248.33799743652344,-81.89800262451172 -244.8470001220703,-87.4260025024414 C-248.44200134277344,-92.27999877929688 -251.66700744628906,-98.00700378417969 -254.64199829101562,-104.80799865722656 C-255.7740020751953,-104.5719985961914 -256.9079895019531,-104.3290023803711 -258.04901123046875,-104.08699798583984 C-262.8190002441406,-103.06900024414062 -267.75201416015625,-102.01699829101562 -273.0989990234375,-101.26599884033203 C-274.7929992675781,-101.02799987792969 -276.39300537109375,-102.08899688720703 -276.83599853515625,-103.73699951171875 C-279.9020080566406,-115.14600372314453 -279.0559997558594,-128.01699829101562 -274.3210144042969,-141.99400329589844 C-273.7510070800781,-143.66799926757812 -271.9800109863281,-144.61500549316406 -270.28399658203125,-144.18800354003906 C-263.81298828125,-142.54299926757812 -257.3420104980469,-140.90199279785156 -250.54800415039062,-139.22999572753906 C-247.8260040283203,-144.8990020751953 -244.56700134277344,-150.2429962158203 -241.11599731445312,-155.7729949951172 C-244.31199645996094,-160.08799743652344 -247.8179931640625,-165.08200073242188 -250.96800231933594,-170.875 C-251.71200561523438,-172.2429962158203 -251.42799377441406,-173.93800354003906 -250.2790069580078,-174.98899841308594 C-242.8939971923828,-181.74000549316406 -233.60000610351562,-187.61399841308594 -222.6580047607422,-192.44400024414062 C-221.0659942626953,-193.1510009765625 -219.1929931640625,-192.52699279785156 -218.34100341796875,-191.00100708007812 C-215.14700317382812,-185.2989959716797 -212.2469940185547,-179.35499572753906 -209.69400024414062,-173.29800415039062 C-203.32000732421875,-174.22999572753906 -196.86500549316406,-174.46299743652344 -190.44000244140625,-173.9720001220703 C-187.44000244140625,-179.74899291992188 -184.2790069580078,-185.71200561523438 -180.35699462890625,-191.9499969482422 C-179.41600036621094,-193.43899536132812 -177.49600219726562,-193.96200561523438 -175.92799377441406,-193.1490020751953 C-167.9199981689453,-188.9669952392578 -160.35000610351562,-183.8769989013672 -153.42999267578125,-178.01800537109375 C-151.572998046875,-176.4499969482422 -149.76199340820312,-174.82200622558594 -147.95599365234375,-173.19700622558594 C-147.0070037841797,-172.3470001220703 -145.7010040283203,-171.1750030517578 -145.23599243164062,-169.33799743652344 C-145,-168.41099548339844 -145.1699981689453,-167.4239959716797 -145.7030029296875,-166.62899780273438 C-147.26699829101562,-164.28599548339844 -148.8719940185547,-161.9709930419922 -150.52000427246094,-159.5919952392578 C-152.64100646972656,-156.5279998779297 -154.8260040283203,-153.37600708007812 -157.08599853515625,-149.9340057373047 C-155.2100067138672,-145.24099731445312 -153.3040008544922,-140.42799377441406 -151.5399932861328,-135.58299255371094 C-145.781005859375,-134.9929962158203 -138.56300354003906,-133.7989959716797 -130.81900024414062,-130.6009979248047 C-129.62100219726562,-130.10499572753906 -128.80999755859375,-128.968994140625 -128.73300170898438,-127.6760025024414 C-128.10499572753906,-117.15899658203125 -129.48399353027344,-107.55400085449219 -132.94900512695312,-98.30999755859375 C-133.45799255371094,-96.9469985961914 -134.70199584960938,-96.00399780273438 -136.24400329589844,-96.11599731445312 C-136.24400329589844,-96.11599731445312 -138.50799560546875,-96.20700073242188 -138.50799560546875,-96.20700073242188 C-143.4040069580078,-96.40299987792969 -148.447998046875,-96.60800170898438 -153.78700256347656,-96.24199676513672 C-155.91200256347656,-91.29100036621094 -159.0050048828125,-86.302001953125 -163.35000610351562,-80.81400299072266 C-160.4320068359375,-75.62899780273438 -157.47300720214844,-70.19999694824219 -154.84300231933594,-63.821998596191406 C-154.18499755859375,-62.224998474121094 -154.8350067138672,-60.38999938964844 -156.35000610351562,-59.5620002746582 C-166.91700744628906,-53.78900146484375 -177.79400634765625,-50.27000045776367 -188.67599487304688,-49.097999572753906 C-188.7969970703125,-49.084999084472656 -188.91799926757812,-49.077999114990234 -189.03900146484375,-49.077999114990234z M-197.73699951171875,-74.02400207519531 C-196.59800720214844,-74.02400207519531 -195.52099609375,-73.4489974975586 -194.89300537109375,-72.4729995727539 C-191.3470001220703,-66.9729995727539 -188.9980010986328,-61.48899841308594 -186.85899353027344,-56.145999908447266 C-178.63299560546875,-57.33300018310547 -170.3990020751953,-59.992000579833984 -162.31399536132812,-64.07099914550781 C-164.83299255371094,-69.69599914550781 -167.64199829101562,-74.66200256347656 -170.37100219726562,-79.48799896240234 C-171.05999755859375,-80.70800018310547 -170.92799377441406,-82.22599792480469 -170.03599548339844,-83.30500030517578 C-164.77200317382812,-89.68800354003906 -161.36300659179688,-95.19599914550781 -159.30799865722656,-100.63999938964844 C-158.8520050048828,-101.84700012207031 -157.74899291992188,-102.68900299072266 -156.46499633789062,-102.81199645996094 C-149.9980010986328,-103.42900085449219 -144.13699340820312,-103.2020034790039 -138.47500610351562,-102.97699737548828 C-136.1580047607422,-109.98300170898438 -135.14199829101562,-117.26899719238281 -135.38900756835938,-125.12300109863281 C-142.53399658203125,-127.76399993896484 -149.1790008544922,-128.60699462890625 -154.28199768066406,-129.04299926757812 C-155.6060028076172,-129.15499877929688 -156.74000549316406,-130.031005859375 -157.18499755859375,-131.28399658203125 C-159.302001953125,-137.2570037841797 -161.6999969482422,-143.25399780273438 -164.0189971923828,-149.05299377441406 C-164.427001953125,-150.0709991455078 -164.31399536132812,-151.2239990234375 -163.718994140625,-152.14500427246094 C-161.06100463867188,-156.2550048828125 -158.52999877929688,-159.91099548339844 -156.08099365234375,-163.44400024414062 C-154.9320068359375,-165.1020050048828 -153.8040008544922,-166.73300170898438 -152.6959991455078,-168.36000061035156 C-154.38299560546875,-169.8780059814453 -156.07000732421875,-171.39100646972656 -157.7989959716797,-172.85299682617188 C-163.53599548339844,-177.70899963378906 -169.7429962158203,-182.0070037841797 -176.28700256347656,-185.6540069580078 C-179.75799560546875,-179.88299560546875 -182.6580047607422,-174.28500366210938 -185.47500610351562,-168.8470001220703 C-186.11399841308594,-167.60899353027344 -187.4709930419922,-166.906005859375 -188.822998046875,-167.03599548339844 C-196.2899932861328,-167.802001953125 -203.8179931640625,-167.5189971923828 -211.2050018310547,-166.19700622558594 C-212.7729949951172,-165.92599487304688 -214.33900451660156,-166.7760009765625 -214.93800354003906,-168.26300048828125 C-217.23300170898438,-173.95700073242188 -219.85400390625,-179.56100463867188 -222.7480010986328,-184.96600341796875 C-230.83999633789062,-181.14500427246094 -237.8679962158203,-176.71800231933594 -243.7050018310547,-171.76499938964844 C-240.64100646972656,-166.50999450683594 -237.28399658203125,-161.927001953125 -234.31500244140625,-157.9709930419922 C-233.4759979248047,-156.8520050048828 -233.41200256347656,-155.33200073242188 -234.1540069580078,-154.14500427246094 C-238.44900512695312,-147.28199768066406 -242.50599670410156,-140.79800415039062 -245.5500030517578,-133.91299438476562 C-246.21099853515625,-132.41600036621094 -247.8419952392578,-131.60499572753906 -249.4459991455078,-131.9949951171875 C-256.1659851074219,-133.63400268554688 -262.5400085449219,-135.24200439453125 -268.8630065917969,-136.84500122070312 C-271.9549865722656,-126.52400207519531 -272.66900634765625,-116.99400329589844 -270.9859924316406,-108.43499755859375 C-266.9949951171875,-109.0979995727539 -263.177001953125,-109.91100311279297 -259.46099853515625,-110.7040023803711 C-257.3840026855469,-111.14700317382812 -255.32699584960938,-111.58399963378906 -253.26300048828125,-111.99400329589844 C-251.6820068359375,-112.31300354003906 -250.09300231933594,-111.45700073242188 -249.47900390625,-109.96299743652344 C-246.06100463867188,-101.66600036621094 -242.33700561523438,-95.05000305175781 -238.09300231933594,-89.73999786376953 C-237.2010040283203,-88.6259994506836 -237.1060028076172,-87.07099914550781 -237.85499572753906,-85.8550033569336 C-241.3679962158203,-80.14600372314453 -244.63800048828125,-75.43499755859375 -247.7989959716797,-70.97100067138672 C-242.9029998779297,-65.36599731445312 -236.76699829101562,-60.81100082397461 -229.8249969482422,-57.625999450683594 C-229.21499633789062,-58.78200149536133 -228.6199951171875,-59.91899871826172 -228.03399658203125,-61.040000915527344 C-225.95899963378906,-65.01100158691406 -223.9969940185547,-68.75900268554688 -221.90899658203125,-72.4729995727539 C-221.2480010986328,-73.64700317382812 -219.95199584960938,-74.29900360107422 -218.60699462890625,-74.18000030517578 C-212.01699829101562,-73.48899841308594 -204.98500061035156,-72.98699951171875 -198.23199462890625,-73.98899841308594 C-198.06500244140625,-74.01300048828125 -197.89999389648438,-74.02400207519531 -197.73699951171875,-74.02400207519531z M-151.6790008544922,-167.38400268554688 C-151.6790008544922,-167.38400268554688 -151.6790008544922,-167.38400268554688 -151.6790008544922,-167.38400268554688 C-151.6790008544922,-167.38400268554688 -151.6790008544922,-167.38400268554688 -151.6790008544922,-167.38400268554688z"></path></g></g><g opacity="1" transform="matrix(1,0,0,1,0,0)"><g opacity="1" transform="matrix(1,0,0,1,0,0)"><path fill="rgb(47,87,158)" fill-opacity="1" d=" M-207.06199645996094,-106.70800018310547 C-209.96200561523438,-106.70800018310547 -212.88499450683594,-107.3030014038086 -215.6009979248047,-108.50800323486328 C-218.00599670410156,-109.58300018310547 -219.75,-110.9280014038086 -220.93499755859375,-112.63099670410156 C-222.53199768066406,-114.92400360107422 -222.91700744628906,-117.58399963378906 -223.0760040283203,-119.64800262451172 C-223.61099243164062,-126.6780014038086 -221.91299438476562,-133.10499572753906 -218.29400634765625,-137.74600219726562 C-213.80099487304688,-143.5030059814453 -206.3000030517578,-146.031005859375 -200.05599975585938,-143.906005859375 C-199.593994140625,-143.7469940185547 -199.18299865722656,-143.49600219726562 -198.8419952392578,-143.1790008544922 C-192.36000061035156,-140.92100524902344 -187.5749969482422,-134.39599609375 -187.17599487304688,-127.2490005493164 C-186.79299926757812,-120.34400177001953 -190.37399291992188,-113.47000122070312 -196.30099487304688,-109.74099731445312 C-199.4969940185547,-107.7300033569336 -203.25799560546875,-106.70800018310547 -207.06199645996094,-106.70800018310547z M-204.65899658203125,-137.88900756835938 C-207.63400268554688,-137.88900756835938 -210.84800720214844,-136.29200744628906 -212.9600067138672,-133.58299255371094 C-215.53900146484375,-130.27699279785156 -216.73599243164062,-125.50800323486328 -216.3280029296875,-120.16300201416016 C-216.23800659179688,-118.95600128173828 -216.04600524902344,-117.4469985961914 -215.38499450683594,-116.49800109863281 C-214.92300415039062,-115.83699798583984 -214.09500122070312,-115.24500274658203 -212.84800720214844,-114.69000244140625 C-208.61700439453125,-112.80699920654297 -203.6529998779297,-113.10700225830078 -199.9040069580078,-115.46800231933594 C-196.0850067138672,-117.87100219726562 -193.68600463867188,-122.4540023803711 -193.93299865722656,-126.8740005493164 C-194.17999267578125,-131.30499267578125 -197.2100067138672,-135.48800659179688 -201.13699340820312,-136.81399536132812 C-201.13699340820312,-136.81399536132812 -201.59500122070312,-136.9550018310547 -201.59500122070312,-136.9550018310547 C-202.31500244140625,-137.17300415039062 -202.91400146484375,-137.4499969482422 -203.39700317382812,-137.78900146484375 C-203.81100463867188,-137.85499572753906 -204.23199462890625,-137.88900756835938 -204.65899658203125,-137.88900756835938z"></path></g></g></g><g transform="matrix(0.9885616302490234,0.15081726014614105,-0.15081726014614105,0.9885616302490234,397.6240234375,356.9010925292969)" opacity="1" style="display: block;"><g opacity="1" transform="matrix(1,0,0,1,0,0)"><g opacity="1" transform="matrix(1,0,0,1,0,0)"><path fill="rgb(255,255,255)" fill-opacity="1" d=" M160.88900756835938,145.99899291992188 C184.50999450683594,169.23699951171875 208.13099670410156,192.4739990234375 231.75100708007812,215.71200561523438 C244.2259979248047,227.98500061035156 256.7330017089844,240.28500366210938 270.3269958496094,250.9320068359375 C277.6579895019531,256.67498779296875 285.8160095214844,262.1029968261719 294.73699951171875,262.1080017089844 C303.6579895019531,262.1130065917969 313.135009765625,254.58900451660156 313.0669860839844,244.50900268554688 C313.0140075683594,236.64500427246094 307.5849914550781,230.3260040283203 302.49700927734375,224.9600067138672 C264.88800048828125,185.29299926757812 225.5800018310547,147.6840057373047 184.7570037841797,112.30699920654297 C177.27499389648438,123.2699966430664 169.79299926757812,134.23300170898438 160.88900756835938,145.99899291992188z"></path></g><g opacity="1" transform="matrix(1,0,0,1,0,0)"><path fill="rgb(47,87,158)" fill-opacity="1" d=" M294.7439880371094,265.49200439453125 C294.74200439453125,265.49200439453125 294.739990234375,265.49200439453125 294.7359924316406,265.49200439453125 C284.7900085449219,265.4849853515625 276.12298583984375,259.7690124511719 268.239990234375,253.5959930419922 C254.48800659179688,242.82400512695312 241.7220001220703,230.26499938964844 229.37899780273438,218.1230010986328 C229.37899780273438,218.1230010986328 158.51699829101562,148.41000366210938 158.51699829101562,148.41000366210938 C157.30599975585938,147.21800231933594 157.16700744628906,145.31399536132812 158.1909942626953,143.95700073242188 C167.08200073242188,132.20899963378906 174.64500427246094,121.12200164794922 181.96200561523438,110.4000015258789 C182.50599670410156,109.60299682617188 183.36500549316406,109.07599639892578 184.3209991455078,108.9530029296875 C185.2729949951172,108.81800079345703 186.24200439453125,109.11799621582031 186.97300720214844,109.75 C227.7169952392578,145.05799865722656 267.4119873046875,183.03700256347656 304.9530029296875,222.63099670410156 C310.4840087890625,228.46299743652344 316.38800048828125,235.4429931640625 316.45001220703125,244.48599243164062 C316.4849853515625,249.7429962158203 314.34698486328125,254.81100463867188 310.42401123046875,258.75799560546875 C306.2349853515625,262.9739990234375 300.3739929199219,265.49200439453125 294.7439880371094,265.49200439453125z M165.3730010986328,145.66400146484375 C165.3730010986328,145.66400146484375 234.1230010986328,213.2989959716797 234.1230010986328,213.2989959716797 C246.33299255371094,225.31100463867188 258.9599914550781,237.7310028076172 272.4110107421875,248.27000427246094 C279.3420104980469,253.69700622558594 286.8420104980469,258.718994140625 294.739990234375,258.72601318359375 C294.74200439453125,258.72601318359375 294.7439880371094,258.72601318359375 294.7460021972656,258.72601318359375 C298.6109924316406,258.72601318359375 302.677001953125,256.9549865722656 305.6239929199219,253.98800659179688 C308.2650146484375,251.33200073242188 309.7080078125,247.97300720214844 309.6839904785156,244.531005859375 C309.6400146484375,237.95399475097656 304.8949890136719,232.406005859375 300.0409851074219,227.28799438476562 C263.5329895019531,188.78199768066406 224.9810028076172,151.81100463867188 185.40899658203125,117.35299682617188 C179.1999969482422,126.44000244140625 172.74200439453125,135.80499267578125 165.3730010986328,145.66400146484375z"></path></g></g><g opacity="1" transform="matrix(1,0,0,1,0,0)"><g opacity="1" transform="matrix(1,0,0,1,0,0)"><g opacity="1" transform="matrix(1,0,0,1,0,0)"><path fill="rgb(255,255,255)" fill-opacity="1" d=" M68.71199798583984,-110.9739990234375 C-12.642999649047852,-110.9739990234375 -78.59500122070312,-45.02199935913086 -78.59500122070312,36.33399963378906 C-78.59500122070312,117.68900299072266 -12.642999649047852,183.64100646972656 68.71199798583984,183.64100646972656 C150.0679931640625,183.64100646972656 216.0189971923828,117.68900299072266 216.0189971923828,36.33399963378906 C216.0189971923828,-45.02199935913086 150.0679931640625,-110.9739990234375 68.71199798583984,-110.9739990234375z M68.71199798583984,148.21499633789062 C6.921999931335449,148.21499633789062 -43.167999267578125,98.1240005493164 -43.167999267578125,36.33399963378906 C-43.167999267578125,-25.45599937438965 6.921999931335449,-75.5469970703125 68.71199798583984,-75.5469970703125 C130.5019989013672,-75.5469970703125 180.59300231933594,-25.45599937438965 180.59300231933594,36.33399963378906 C180.59300231933594,98.1240005493164 130.5019989013672,148.21499633789062 68.71199798583984,148.21499633789062z M68.71199798583984,148.21499633789062 C6.921999931335449,148.21499633789062 -43.167999267578125,98.1240005493164 -43.167999267578125,36.33399963378906 C-43.167999267578125,-25.45599937438965 6.921999931335449,-75.5469970703125 68.71199798583984,-75.5469970703125 C130.5019989013672,-75.5469970703125 180.59300231933594,-25.45599937438965 180.59300231933594,36.33399963378906 C180.59300231933594,98.1240005493164 130.5019989013672,148.21499633789062 68.71199798583984,148.21499633789062z"></path></g><g opacity="1" transform="matrix(1,0,0,1,0,0)"><path fill="rgb(47,87,158)" fill-opacity="1" d=" M68.71099853515625,187.0240020751953 C-14.380000114440918,187.0240020751953 -81.97699737548828,119.42400360107422 -81.97699737548828,36.33300018310547 C-81.97699737548828,-46.75699996948242 -14.380000114440918,-114.3550033569336 68.71099853515625,-114.3550033569336 C151.80099487304688,-114.3550033569336 219.40199279785156,-46.75699996948242 219.40199279785156,36.33300018310547 C219.40199279785156,119.42400360107422 151.80099487304688,187.0240020751953 68.71099853515625,187.0240020751953z M68.71099853515625,-107.58899688720703 C-10.64900016784668,-107.58899688720703 -75.21099853515625,-43.0260009765625 -75.21099853515625,36.33300018310547 C-75.21099853515625,115.69300079345703 -10.64900016784668,180.25799560546875 68.71099853515625,180.25799560546875 C148.07000732421875,180.25799560546875 212.63600158691406,115.69300079345703 212.63600158691406,36.33300018310547 C212.63600158691406,-43.0260009765625 148.07000732421875,-107.58899688720703 68.71099853515625,-107.58899688720703z M68.71099853515625,151.59800720214844 C5.1539998054504395,151.59800720214844 -46.55099868774414,99.88999938964844 -46.55099868774414,36.33300018310547 C-46.55099868774414,-27.222999572753906 5.1539998054504395,-78.93099975585938 68.71099853515625,-78.93099975585938 C132.26699829101562,-78.93099975585938 183.97500610351562,-27.222999572753906 183.97500610351562,36.33300018310547 C183.97500610351562,99.88999938964844 132.26699829101562,151.59800720214844 68.71099853515625,151.59800720214844z M-39.78499984741211,36.33300018310547 C-39.78499984741211,96.15899658203125 8.885000228881836,144.83200073242188 68.71099853515625,144.83200073242188 C128.53700256347656,144.83200073242188 177.20899963378906,96.15899658203125 177.20899963378906,36.33300018310547 C177.20899963378906,-23.492000579833984 128.53700256347656,-72.16500091552734 68.71099853515625,-72.16500091552734 C8.885000228881836,-72.16500091552734 -39.78499984741211,-23.492000579833984 -39.78499984741211,36.33300018310547z"></path></g></g></g><g opacity="1" transform="matrix(1,0,0,1,0,0)"><g opacity="1" transform="matrix(1,0,0,1,0,0)"><path fill="rgb(255,255,255)" fill-opacity="1" d=" M-0.3179999887943268,34.810001373291016 C-0.3179999887943268,28.426000595092773 4.85699987411499,23.25200080871582 11.239999771118164,23.25200080871582 C17.624000549316406,23.25200080871582 22.798999786376953,28.426000595092773 22.798999786376953,34.810001373291016 C22.798999786376953,41.19300079345703 17.624000549316406,46.36899948120117 11.239999771118164,46.36899948120117 C4.85699987411499,46.36899948120117 -0.3179999887943268,41.19300079345703 -0.3179999887943268,34.810001373291016z"></path></g><g opacity="1" transform="matrix(1,0,0,1,0,0)"><path fill="rgb(47,87,158)" fill-opacity="1" d=" M11.239999771118164,49.750999450683594 C3,49.750999450683594 -3.7019999027252197,43.04800033569336 -3.7019999027252197,34.808998107910156 C-3.7019999027252197,26.56999969482422 3,19.868000030517578 11.239999771118164,19.868000030517578 C19.479000091552734,19.868000030517578 26.18199920654297,26.56999969482422 26.18199920654297,34.808998107910156 C26.18199920654297,43.04800033569336 19.479000091552734,49.750999450683594 11.239999771118164,49.750999450683594z M11.239999771118164,26.634000778198242 C6.730999946594238,26.634000778198242 3.063999891281128,30.301000595092773 3.063999891281128,34.808998107910156 C3.063999891281128,39.31700134277344 6.730999946594238,42.98500061035156 11.239999771118164,42.98500061035156 C15.748000144958496,42.98500061035156 19.416000366210938,39.31700134277344 19.416000366210938,34.808998107910156 C19.416000366210938,30.301000595092773 15.748000144958496,26.634000778198242 11.239999771118164,26.634000778198242z"></path></g></g><g opacity="1" transform="matrix(1,0,0,1,0,0)"><g opacity="1" transform="matrix(1,0,0,1,0,0)"><path fill="rgb(255,255,255)" fill-opacity="1" d=" M55.652000427246094,34.810001373291016 C55.652000427246094,28.426000595092773 60.82699966430664,23.25200080871582 67.21099853515625,23.25200080871582 C73.59500122070312,23.25200080871582 78.76899719238281,28.426000595092773 78.76899719238281,34.810001373291016 C78.76899719238281,41.19300079345703 73.59500122070312,46.36899948120117 67.21099853515625,46.36899948120117 C60.82699966430664,46.36899948120117 55.652000427246094,41.19300079345703 55.652000427246094,34.810001373291016z"></path></g><g opacity="1" transform="matrix(1,0,0,1,0,0)"><path fill="rgb(47,87,158)" fill-opacity="1" d=" M67.21099853515625,49.750999450683594 C58.97200012207031,49.750999450683594 52.27000045776367,43.04800033569336 52.27000045776367,34.808998107910156 C52.27000045776367,26.56999969482422 58.97200012207031,19.868000030517578 67.21099853515625,19.868000030517578 C75.45099639892578,19.868000030517578 82.15299987792969,26.56999969482422 82.15299987792969,34.808998107910156 C82.15299987792969,43.04800033569336 75.45099639892578,49.750999450683594 67.21099853515625,49.750999450683594z M67.21099853515625,26.634000778198242 C62.702999114990234,26.634000778198242 59.0359992980957,30.301000595092773 59.0359992980957,34.808998107910156 C59.0359992980957,39.31700134277344 62.702999114990234,42.98500061035156 67.21099853515625,42.98500061035156 C71.72000122070312,42.98500061035156 75.38700103759766,39.31700134277344 75.38700103759766,34.808998107910156 C75.38700103759766,30.301000595092773 71.72000122070312,26.634000778198242 67.21099853515625,26.634000778198242z"></path></g></g><g opacity="1" transform="matrix(1,0,0,1,0,0)"><g opacity="1" transform="matrix(1,0,0,1,0,0)"><path fill="rgb(255,255,255)" fill-opacity="1" d=" M111.62200164794922,34.810001373291016 C111.62200164794922,28.426000595092773 116.7969970703125,23.25200080871582 123.18099975585938,23.25200080871582 C129.56500244140625,23.25200080871582 134.74000549316406,28.426000595092773 134.74000549316406,34.810001373291016 C134.74000549316406,41.19300079345703 129.56500244140625,46.36899948120117 123.18099975585938,46.36899948120117 C116.7969970703125,46.36899948120117 111.62200164794922,41.19300079345703 111.62200164794922,34.810001373291016z"></path></g><g opacity="1" transform="matrix(1,0,0,1,0,0)"><path fill="rgb(47,87,158)" fill-opacity="1" d=" M123.18099975585938,49.750999450683594 C114.94100189208984,49.750999450683594 108.23899841308594,43.04800033569336 108.23899841308594,34.808998107910156 C108.23899841308594,26.56999969482422 114.94100189208984,19.868000030517578 123.18099975585938,19.868000030517578 C131.4199981689453,19.868000030517578 138.1219940185547,26.56999969482422 138.1219940185547,34.808998107910156 C138.1219940185547,43.04800033569336 131.4199981689453,49.750999450683594 123.18099975585938,49.750999450683594z M123.18099975585938,26.634000778198242 C118.6719970703125,26.634000778198242 115.00499725341797,30.301000595092773 115.00499725341797,34.808998107910156 C115.00499725341797,39.31700134277344 118.6719970703125,42.98500061035156 123.18099975585938,42.98500061035156 C127.68900299072266,42.98500061035156 131.3560028076172,39.31700134277344 131.3560028076172,34.808998107910156 C131.3560028076172,30.301000595092773 127.68900299072266,26.634000778198242 123.18099975585938,26.634000778198242z"></path></g></g><g opacity="1" transform="matrix(1,0,0,1,0,0)"><g opacity="1" transform="matrix(1,0,0,1,0,0)"><path fill="rgb(47,87,158)" fill-opacity="1" d=" M179.88299560546875,150.2209930419922 C179.78199768066406,150.2209930419922 179.6750030517578,150.20799255371094 179.57200622558594,150.177001953125 C178.97500610351562,150.0070037841797 178.6269989013672,149.3820037841797 178.7989959716797,148.7830047607422 C178.7989959716797,148.7830047607422 181.3939971923828,139.71299743652344 181.3939971923828,139.71299743652344 C181.56399536132812,139.11599731445312 182.17999267578125,138.7570037841797 182.78799438476562,138.94000244140625 C183.38699340820312,139.11199951171875 183.73300170898438,139.73500061035156 183.56100463867188,140.33399963378906 C183.56100463867188,140.33399963378906 180.9669952392578,149.4040069580078 180.9669952392578,149.4040069580078 C180.8260040283203,149.89700317382812 180.37399291992188,150.2209930419922 179.88299560546875,150.2209930419922z"></path></g></g><g opacity="1" transform="matrix(1,0,0,1,0,0)"><g opacity="1" transform="matrix(1,0,0,1,0,0)"><path fill="rgb(47,87,158)" fill-opacity="1" d=" M192.2790069580078,166.10499572753906 C192.2310028076172,166.10499572753906 192.1790008544922,166.10299682617188 192.13099670410156,166.0959930419922 C191.51199340820312,166.01400756835938 191.07899475097656,165.44900512695312 191.1580047607422,164.83200073242188 C192.54800415039062,154.2050018310547 194.218994140625,143.49899291992188 196.12399291992188,133.00399780273438 C196.23599243164062,132.38999938964844 196.82899475097656,131.99099731445312 197.43699645996094,132.0970001220703 C198.0489959716797,132.20899963378906 198.45399475097656,132.79400634765625 198.343994140625,133.40899658203125 C196.4429931640625,143.86399841308594 194.7779998779297,154.53500366210938 193.39500427246094,165.1230010986328 C193.32000732421875,165.6909942626953 192.83599853515625,166.10499572753906 192.2790069580078,166.10499572753906z"></path></g></g><g opacity="1" transform="matrix(1,0,0,1,0,0)"><g opacity="1" transform="matrix(1,0,0,1,0,0)"><path fill="rgb(47,87,158)" fill-opacity="1" d=" M208.3699951171875,181.52000427246094 C207.7469940185547,181.52000427246094 207.24200439453125,181.01499938964844 207.24200439453125,180.39199829101562 C207.24200439453125,175.08700561523438 208.0570068359375,166.18600463867188 208.77699279785156,158.33200073242188 C209.21499633789062,153.54800415039062 209.593994140625,149.41900634765625 209.7239990234375,146.8179931640625 C209.7530059814453,146.19900512695312 210.20399475097656,145.66000366210938 210.90699768066406,145.75 C211.5279998779297,145.781005859375 212.00599670410156,146.3090057373047 211.97500610351562,146.9320068359375 C211.84300231933594,149.57699584960938 211.46499633789062,153.73199462890625 211.0240020751953,158.5399932861328 C210.30799865722656,166.34300231933594 209.4980010986328,175.19000244140625 209.4980010986328,180.39199829101562 C209.4980010986328,181.01499938964844 208.9929962158203,181.52000427246094 208.3699951171875,181.52000427246094z"></path></g></g><g opacity="1" transform="matrix(1,0,0,1,0,0)"><g opacity="1" transform="matrix(1,0,0,1,0,0)"><path fill="rgb(47,87,158)" fill-opacity="1" d=" M224.8419952392578,196.70799255371094 C224.22999572753906,196.70799255371094 223.7270050048828,196.218994140625 223.71400451660156,195.60699462890625 C223.71400451660156,195.60699462890625 222.86700439453125,157.98399353027344 222.86700439453125,157.98399353027344 C222.85400390625,157.36099243164062 223.3470001220703,156.84300231933594 223.96800231933594,156.8300018310547 C224.5850067138672,156.87399291992188 225.11099243164062,157.30999755859375 225.1219940185547,157.93099975585938 C225.1219940185547,157.93099975585938 225.97000122070312,195.5540008544922 225.97000122070312,195.5540008544922 C225.98300170898438,196.177001953125 225.48899841308594,196.69500732421875 224.8679962158203,196.70799255371094 C224.85899353027344,196.70799255371094 224.8509979248047,196.70799255371094 224.8419952392578,196.70799255371094z"></path></g></g><g opacity="1" transform="matrix(1,0,0,1,0,0)"><g opacity="1" transform="matrix(1,0,0,1,0,0)"><path fill="rgb(47,87,158)" fill-opacity="1" d=" M240.52200317382812,213.35000610351562 C239.91799926757812,213.35000610351562 239.41799926757812,212.8719940185547 239.3939971923828,212.26400756835938 C239.3939971923828,212.26400756835938 237.91799926757812,172.86500549316406 237.91799926757812,172.86500549316406 C237.89599609375,172.24400329589844 238.38099670410156,171.718994140625 239.00399780273438,171.69500732421875 C239.6649932861328,171.7259979248047 240.14999389648438,172.16000366210938 240.1739959716797,172.781005859375 C240.1739959716797,172.781005859375 241.6490020751953,212.18099975585938 241.6490020751953,212.18099975585938 C241.67100524902344,212.802001953125 241.18600463867188,213.3260040283203 240.56300354003906,213.35000610351562 C240.5500030517578,213.35000610351562 240.53500366210938,213.35000610351562 240.52200317382812,213.35000610351562z"></path></g></g><g opacity="1" transform="matrix(1,0,0,1,0,0)"><g opacity="1" transform="matrix(1,0,0,1,0,0)"><path fill="rgb(47,87,158)" fill-opacity="1" d=" M256.47601318359375,227.375 C255.87899780273438,227.375 255.38400268554688,226.91099548339844 255.3509979248047,226.30999755859375 C255.3509979248047,226.30999755859375 253.36000061035156,189.50599670410156 253.36000061035156,189.50599670410156 C253.3249969482422,188.88299560546875 253.802001953125,188.3520050048828 254.42300415039062,188.31900024414062 C255.14999389648438,188.24000549316406 255.5760040283203,188.76199340820312 255.61099243164062,189.38299560546875 C255.61099243164062,189.38299560546875 257.60198974609375,226.18600463867188 257.60198974609375,226.18600463867188 C257.6369934082031,226.8090057373047 257.15899658203125,227.34100341796875 256.5379943847656,227.37399291992188 C256.5159912109375,227.37600708007812 256.4960021972656,227.375 256.47601318359375,227.375z"></path></g></g><g opacity="1" transform="matrix(1,0,0,1,0,0)"><g opacity="1" transform="matrix(1,0,0,1,0,0)"><path fill="rgb(47,87,158)" fill-opacity="1" d=" M272.2749938964844,240.3419952392578 C271.6929931640625,240.3419952392578 271.197998046875,239.89300537109375 271.15399169921875,239.3000030517578 C271.15399169921875,239.3000030517578 268.3890075683594,203.47000122070312 268.3890075683594,203.47000122070312 C268.34100341796875,202.8489990234375 268.8059997558594,202.3070068359375 269.427001953125,202.26100158691406 C269.99700927734375,202.16400146484375 270.5899963378906,202.6750030517578 270.635986328125,203.29800415039062 C270.635986328125,203.29800415039062 273.3999938964844,239.1280059814453 273.3999938964844,239.1280059814453 C273.4490051269531,239.7469940185547 272.9840087890625,240.29100036621094 272.3630065917969,240.33700561523438 C272.3349914550781,240.3419952392578 272.3059997558594,240.3419952392578 272.2749938964844,240.3419952392578z"></path></g></g><g opacity="1" transform="matrix(1,0,0,1,0,0)"><g opacity="1" transform="matrix(1,0,0,1,0,0)"><path fill="rgb(47,87,158)" fill-opacity="1" d=" M287.2300109863281,251.99000549316406 C286.6600036621094,251.99000549316406 286.1700134277344,251.5590057373047 286.1099853515625,250.9770050048828 C286.1099853515625,250.9770050048828 282.87701416015625,219.552001953125 282.87701416015625,219.552001953125 C282.81298828125,218.93299865722656 283.26300048828125,218.38099670410156 283.8840026855469,218.31700134277344 C284.4590148925781,218.22900390625 285.05499267578125,218.70199584960938 285.1189880371094,219.322998046875 C285.1189880371094,219.322998046875 288.3529968261719,250.7480010986328 288.3529968261719,250.7480010986328 C288.4169921875,251.36700439453125 287.9670104980469,251.9199981689453 287.34600830078125,251.98399353027344 C287.3080139160156,251.98800659179688 287.2699890136719,251.99000549316406 287.2300109863281,251.99000549316406z"></path></g></g><g opacity="1" transform="matrix(1,0,0,1,0,0)"><g opacity="1" transform="matrix(1,0,0,1,0,0)"><path fill="rgb(47,87,158)" fill-opacity="1" d=" M301.8739929199219,250.31900024414062 C301.3320007324219,250.31900024414062 300.85101318359375,249.9250030517578 300.76300048828125,249.3719940185547 C300.76300048828125,249.3719940185547 298.4930114746094,235.33099365234375 298.4930114746094,235.33099365234375 C298.3909912109375,234.7169952392578 298.80999755859375,234.13699340820312 299.42401123046875,234.03799438476562 C300.02301025390625,233.92999267578125 300.6199951171875,234.35299682617188 300.7170104980469,234.97000122070312 C300.7170104980469,234.97000122070312 302.9880065917969,249.00999450683594 302.9880065917969,249.00999450683594 C303.0889892578125,249.625 302.6700134277344,250.20399475097656 302.0559997558594,250.30299377441406 C301.9939880371094,250.31399536132812 301.9360046386719,250.31900024414062 301.8739929199219,250.31900024414062z"></path></g></g><g opacity="0.2" transform="matrix(1,0,0,1,0,0)"><g opacity="1" transform="matrix(1,0,0,1,0,0)"><path fill="rgb(47,87,158)" fill-opacity="1" d=" M172.92599487304688,71.96800231933594 C169.2259979248047,75.09400177001953 167.51400756835938,80.12999725341797 164.37399291992188,83.83300018310547 C163.7949981689453,84.9000015258789 156.23500061035156,93.40599822998047 151.96499633789062,97.46600341796875 C148.2689971923828,100.76499938964844 144.72300720214844,103.6709976196289 141.11199951171875,106.4229965209961 C140.4739990234375,106.54900360107422 139.83599853515625,106.79000091552734 139.2209930419922,107.16899871826172 C120.80500030517578,120.49500274658203 106.96600341796875,125.36100006103516 83.67400360107422,129.64999389648438 C72.61699676513672,131.71600341796875 59.88600158691406,133.4550018310547 42.47600173950195,129.13600158691406 C30.27899932861328,126.2959976196289 24.391000747680664,122.95700073242188 11.652999877929688,114.37699890136719 C6.243000030517578,110.5790023803711 -5.809000015258789,99.96600341796875 -14.00100040435791,90.052001953125 C-14.003000259399414,90.04900360107422 -14.003999710083008,90.04900360107422 -14.005999565124512,90.0459976196289 C-22.819000244140625,77.99099731445312 -25.839000701904297,67.4540023803711 -27.65399932861328,62.65299987792969 C-29.483999252319336,57.72200012207031 -30.86199951171875,52.65999984741211 -32.308998107910156,47.61000061035156 C-34.441001892089844,40.67100143432617 -35.10100173950195,38.242000579833984 -35.09299850463867,32.34299850463867 C-36.43600082397461,28.583999633789062 -37.67499923706055,24.783000946044922 -38.784000396728516,20.94499969482422 C-39.87200164794922,20.454999923706055 -41.07500076293945,20.20800018310547 -42.266998291015625,20.29599952697754 C-44.23699951171875,35.518001556396484 -43.957000732421875,50.78799819946289 -42.029998779296875,65.94200134277344 C-38.71900177001953,79.04499816894531 -34.63600158691406,93.25599670410156 -22.082000732421875,107.36499786376953 C-11.95300006866455,118.51200103759766 -5.013999938964844,122.3759994506836 -0.6629999876022339,125.96099853515625 C9.487000465393066,133.28199768066406 20.280000686645508,139.97300720214844 32.24700164794922,143.86199951171875 C38.78200149536133,145.75999450683594 45.57899856567383,146.552001953125 52.327999114990234,147.3459930419922 C52.37200164794922,147.35499572753906 52.387001037597656,147.35899353027344 52.441001892089844,147.36900329589844 C59.770999908447266,148.70399475097656 67.26000213623047,148.73699951171875 74.6520004272461,147.906005859375 C80.45600128173828,147.42599487304688 86.02899932861328,145.72900390625 91.62699890136719,144.2239990234375 C103.24199676513672,141.3719940185547 114.83999633789062,137.8179931640625 125.44400024414062,132.21200561523438 C129.74899291992188,129.55599975585938 131.24200439453125,128.51800537109375 133.25999450683594,127.00199890136719 C146.28799438476562,118.88899993896484 159.73399353027344,107.61599731445312 166.6300048828125,99.73200225830078 C168.4199981689453,96.02799987792969 170.15199279785156,92.3010025024414 171.7760009765625,88.53500366210938 C173.8070068359375,82.9020004272461 175.8470001220703,77.27200317382812 177.84500122070312,71.62699890136719 C176.27699279785156,71.01599884033203 174.4510040283203,71.0530014038086 172.92599487304688,71.96800231933594z"></path></g></g><g opacity="0.2" transform="matrix(1,0,0,1,0,0)"><g opacity="1" transform="matrix(1,0,0,1,0,0)"><path fill="rgb(47,87,158)" fill-opacity="1" d=" M196.947998046875,120.04000091552734 C191.33999633789062,118.4280014038086 187.58999633789062,122.3280029296875 184.82699584960938,126.60399627685547 C184.7100067138672,126.74299621582031 184.59500122070312,126.87999725341797 184.44900512695312,127.0530014038086 C179.5540008544922,132.76400756835938 178.17100524902344,132.281005859375 170.10000610351562,139.58399963378906 C170.06700134277344,139.61199951171875 170.031005859375,139.63800048828125 169.9980010986328,139.6649932861328 C168.4010009765625,140.7740020751953 166.49899291992188,141.56300354003906 165.49400329589844,143.31100463867188 C158.69900512695312,151.66700744628906 169.06100463867188,163.32400512695312 178.2949981689453,157.89300537109375 C184.72999572753906,154.35299682617188 190.22900390625,149.34800720214844 194.65199279785156,143.50900268554688 C197.49400329589844,140.39700317382812 200.2530059814453,137.1510009765625 202.4409942626953,133.5399932861328 C205.53500366210938,128.51100158691406 202.6219940185547,121.53900146484375 196.947998046875,120.04000091552734z"></path></g></g></g></g></svg>